<svg xmlns="http://www.w3.org/2000/svg" xmlns:xlink="http://www.w3.org/1999/xlink" width="14" height="14" viewBox="0 0 14 14" fill="none">
<rect  x="0" y="0" width="14" height="14" rx="2"    fill="#FFFFFF" >
</rect>
<path fill-rule="evenodd"  fill="rgba(220, 224, 233, 1)"  d="M12 0L2 0C0.895431 0 0 0.895431 0 2L0 12C0 13.1046 0.895431 14 2 14L12 14C13.1046 14 14 13.1046 14 12L14 2C14 0.895431 13.1046 0 12 0ZM0.875 2C0.875 1.37868 1.37868 0.875 2 0.875L12 0.875C12.6213 0.875 13.125 1.37868 13.125 2L13.125 12C13.125 12.6213 12.6213 13.125 12 13.125L2 13.125C1.37868 13.125 0.875 12.6213 0.875 12L0.875 2Z">
</path>
</svg>
