<svg xmlns="http://www.w3.org/2000/svg" xmlns:xlink="http://www.w3.org/1999/xlink" width="12" height="14" viewBox="0 0 12 14" fill="none">
<path d="M5.8421 14L5.8421 11.8475L9.62236 7.9975C9.72499 7.8925 9.83903 7.81667 9.96446 7.77C10.0899 7.72333 10.2153 7.7 10.3408 7.7C10.4776 7.7 10.6088 7.72637 10.7342 7.7791C10.8596 7.83183 10.9737 7.91047 11.0763 8.015L11.7092 8.6625C11.8004 8.7675 11.8718 8.88417 11.9234 9.0125C11.9749 9.14083 12.0004 9.26917 12 9.3975C11.9995 9.52583 11.9767 9.6572 11.9316 9.7916C11.8864 9.926 11.8123 10.0455 11.7092 10.15L7.94604 14L5.8421 14ZM10.9737 9.3975L10.3408 8.75L10.9737 9.3975ZM6.86841 12.95L7.51841 12.95L9.58815 10.815L9.28025 10.4825L8.95525 10.1675L6.86841 12.285L6.86841 12.95ZM1.36842 14C0.992104 14 0.67007 13.863 0.402315 13.5891C0.134561 13.3152 0.00045614 12.9855 0 12.6L0 1.4C0 1.015 0.134105 0.685533 0.402315 0.4116C0.670526 0.137667 0.992561 0.000466667 1.36842 0L7.8421 0L11.9474 4.2L11.9474 6.3L10.5789 6.3L10.5789 4.9L7.15789 4.9L7.15789 1.4L1.36842 1.4L1.36842 12.6L4.47368 12.6L4.47368 14L1.36842 14ZM9.28025 10.4825L8.95525 10.1675L9.58815 10.815L9.28025 10.4825Z"   fill="#B1B1FF" >
</path>
</svg>
