<svg xmlns="http://www.w3.org/2000/svg" xmlns:xlink="http://www.w3.org/1999/xlink" width="20" height="20" viewBox="0 0 20 20" fill="none">
<circle cx="10" cy="10" r="10"   fill="url(#linear_fill_pNOh3jBBWSGSQGbaCscJH)" >
</circle>
<path d="M10 3.5C13.5899 3.5 16.5 6.41015 16.5 10C16.5 13.5899 13.5899 16.5 10 16.5C6.41015 16.5 3.5 13.5899 3.5 10C3.5 6.41015 6.41015 3.5 10 3.5ZM10.0531 5.98304C9.96259 5.98304 9.88334 6.0311 9.83945 6.10309C9.42922 6.89985 8.8987 7.62769 8.26438 8.26084C7.63078 8.89592 6.90231 9.42705 6.10598 9.83568C6.0331 9.87991 5.98504 9.95916 5.98504 10.0496C5.98504 10.1401 6.0331 10.2194 6.10508 10.2633C6.8826 10.6629 7.61219 11.1877 8.26261 11.8396C8.89792 12.4724 9.42911 13.2004 9.83757 13.9964C9.88383 14.0699 9.96308 14.118 10.0536 14.118C10.144 14.118 10.2233 14.0699 10.2672 13.9979L10.3327 13.8696C11.1583 12.3237 12.4371 11.065 13.9987 10.2643C14.0716 10.2191 14.1196 10.1398 14.1196 10.0493C14.1196 9.95886 14.0716 9.87961 13.9996 9.83572C13.2022 9.42725 12.4734 8.89577 11.8396 8.26025C11.2053 7.62759 10.6748 6.89983 10.2665 6.10427C10.2228 6.0311 10.1435 5.98304 10.0531 5.98304ZM10.0685 8.19231C10.6039 8.89431 11.2309 9.52137 11.9329 10.0567C11.585 10.3243 11.2536 10.615 10.9387 10.9275C10.6264 11.2388 10.3357 11.5709 10.0685 11.9217C9.80015 11.5719 9.50949 11.2398 9.19835 10.9275C8.88673 10.6156 8.55458 10.3249 8.20413 10.0573C8.55267 9.79028 8.88408 9.49964 9.19835 9.18654C9.51062 8.87525 9.80135 8.54307 10.0685 8.19231Z"   fill="#FFFFFF" >
</path>
<defs>
<linearGradient id="linear_fill_pNOh3jBBWSGSQGbaCscJH" x1="10" y1="0" x2="10" y2="20" gradientUnits="userSpaceOnUse">
<stop offset="0" stop-color="#B9BCCE"  />
<stop offset="1" stop-color="#989CB7"  />
</linearGradient>
</defs>
</svg>
