<?xml version="1.0" encoding="UTF-8"?>
<svg width="40px" height="40px" viewBox="0 0 40 40" version="1.1" xmlns="http://www.w3.org/2000/svg" xmlns:xlink="http://www.w3.org/1999/xlink">
    <title>EOS</title>
    <defs>
        <linearGradient x1="50%" y1="0%" x2="50%" y2="100%" id="linearGradient-1">
            <stop stop-color="#707076" offset="0%"></stop>
            <stop stop-color="#363638" offset="100%"></stop>
        </linearGradient>
    </defs>
    <g id="Page-1" stroke="none" stroke-width="1" fill="none" fill-rule="evenodd">
        <g id="币种图标" transform="translate(-460.000000, -740.000000)">
            <g id="EOS" transform="translate(460.000000, 740.000000)">
                <circle id="椭圆形" fill="url(#linearGradient-1)" cx="20" cy="20" r="20"></circle>
                <path d="M19.5638645,7.18765248 C19.7629472,6.93744917 20.1414376,6.93744917 20.3405203,7.18765248 L20.3405203,7.18765248 L26.1552093,14.4938401 C26.2169776,14.5568758 26.2636448,14.6398657 26.2854498,14.7421797 L28.9889147,27.4274847 C29.0376446,27.6561371 28.9222404,27.8882087 28.7110712,27.986213 L20.1963318,31.9375723 C20.1956337,31.9379595 20.1949348,31.9383448 20.1942351,31.9387284 L20.178,31.945 L20.1617662,31.9539693 C20.1488839,31.9601786 20.1385662,31.9645899 20.1280944,31.9686502 L20.1169762,31.9727682 C20.114026,31.9737768 20.1110674,31.9747573 20.1081008,31.9757099 C20.1041358,31.9772501 20.1005309,31.9784218 20.0969104,31.9795523 L20.1617662,31.9539693 C20.1324508,31.9675747 20.1029997,31.9780858 20.073649,31.9857188 C20.0625044,31.9890757 20.0508686,31.9916417 20.0391109,31.9937768 C20.0376532,31.9928527 20.0366323,31.9930239 20.0356109,31.993192 L20.0151512,31.9972111 C20.0077895,31.9981952 20.0004442,31.9990044 19.9931193,31.9996422 L19.979968,32.0007499 C19.9736953,32.0010947 19.9673981,32.0013164 19.9610789,32.0014126 L19.95734,32.0014123 L19.9521924,32 C19.9337922,32.0012551 19.9221563,32.0006729 19.9106121,31.9996746 C19.9077423,31.9992473 19.9046993,31.9989428 19.9016532,31.9986085 L19.8821917,31.9963562 C19.8801764,31.9960595 19.8781644,31.9957501 19.8761558,31.9954282 C19.87403,31.994036 19.8714004,31.9936243 19.868774,31.993192 C19.8542901,31.9915316 19.8435422,31.9891646 19.8329137,31.9864436 C19.8032628,31.9784297 19.7724804,31.967447 19.7418575,31.9530761 L19.8022277,31.9775776 C19.7958742,31.9756244 19.7895555,31.9735436 19.7832764,31.9713352 C19.7737984,31.9673255 19.7647287,31.9636221 19.755785,31.959659 L19.7418575,31.9530761 L11.2870117,27.9853198 C11.0781811,27.8873181 10.963679,27.6579004 11.0103476,27.4309923 L11.0103476,27.4309923 L13.6193533,14.7456873 C13.6203769,14.7407107 13.6214593,14.7357793 13.6225995,14.7308932 C13.6266708,14.7138091 13.6317092,14.6966455 13.6376626,14.6797674 C13.6431859,14.6619742 13.6498441,14.6453057 13.6572179,14.6293011 C13.6742934,14.5965387 13.694278,14.5644355 13.7180245,14.5345913 L13.6661213,14.6109701 C13.6887066,14.5667997 13.7169167,14.5280418 13.7493278,14.4947936 Z M25.6826567,16.682 L20.8150612,30.55 L27.9334472,27.246 L25.6826567,16.682 Z M14.231515,16.706 L12.0632767,27.246 L19.0881699,30.542 L18.191,27.985 L14.231515,16.706 Z M19.9514868,8.3 L14.6671519,14.942 L19.952,29.996 L25.2368163,14.942 L19.9514868,8.3 Z" id="形状结合备份-2" stroke="#FFFFFF" stroke-width="0.5" fill="#FFFFFF" fill-rule="nonzero"></path>
            </g>
        </g>
    </g>
</svg>