<svg xmlns="http://www.w3.org/2000/svg" xmlns:xlink="http://www.w3.org/1999/xlink" width="18" height="18" viewBox="0 0 18 18" fill="none">
<path     fill="#FFFFFF"  d="M14 0L4 0C1.79 0 0 1.79 0 4L0 14C0 16.21 1.79 18 4 18L16 18C17.11 18 18 17.11 18 16L18 6C18 4.89543 17.1046 4 16 4L16 2C16 0.895431 15.1046 0 14 0ZM14 2L14 4L4 4C3.27 4 2.59 4.2 2 4.54L2 4C2 2.9 2.9 2 4 2M12.5 12.5C11.67 12.5 11 11.83 11 11C11 10.17 11.67 9.5 12.5 9.5C13.33 9.5 14 10.17 14 11C14 11.83 13.33 12.5 12.5 12.5Z">
</path>
</svg>
