<svg xmlns="http://www.w3.org/2000/svg" xmlns:xlink="http://www.w3.org/1999/xlink" width="18" height="18.001708984375" viewBox="0 0 18 18.001708984375" fill="none">
<path d="M9.93527 0.232159L16.9353 3.9355C17.5903 4.28203 18 4.96232 18 5.70334L18 12.2948C18 13.0355 17.5906 13.7156 16.936 14.0623L9.93598 17.7692C9.35051 18.0792 8.64949 18.0792 8.06402 17.7692L1.06402 14.0623C0.409407 13.7156 0 13.0355 0 12.2948L0 5.70334C0 4.96232 0.40972 4.28203 1.06473 3.9355L8.06473 0.232159C8.64982 -0.0773863 9.35018 -0.0773863 9.93527 0.232159ZM11.7789 12.5736C11.6343 12.3383 11.3264 12.2648 11.0911 12.4094C10.4671 12.7929 9.74933 12.9988 9 12.9988C8.2574 12.9988 7.54572 12.7966 6.92554 12.4196C6.68958 12.2762 6.38201 12.3512 6.23857 12.5871C6.09513 12.8231 6.17014 13.1307 6.4061 13.2741C7.18174 13.7456 8.07289 13.9988 9 13.9988C9.93553 13.9988 10.8344 13.741 11.6147 13.2614C11.85 13.1168 11.9235 12.8089 11.7789 12.5736ZM13 9.49879C12.1716 9.49879 11.5 10.1704 11.5 10.9988C11.5 11.8272 12.1716 12.4988 13 12.4988C13.8284 12.4988 14.5 11.8272 14.5 10.9988C14.5 10.1704 13.8284 9.49879 13 9.49879ZM5 9.49879C4.17157 9.49879 3.5 10.1704 3.5 10.9988C3.5 11.8272 4.17157 12.4988 5 12.4988C5.82843 12.4988 6.5 11.8272 6.5 10.9988C6.5 10.1704 5.82843 9.49879 5 9.49879ZM6.52437 5.20736C6.34867 4.99433 6.03354 4.96406 5.8205 5.13977C4.77118 6.00521 4.11144 7.2616 4.01292 8.63686C3.99319 8.9123 4.20048 9.15158 4.47592 9.17131C4.75135 9.19104 4.99063 8.98375 5.01036 8.70831C5.08914 7.60861 5.61656 6.60421 6.45678 5.91123C6.66981 5.73553 6.70007 5.42039 6.52437 5.20736ZM12.1578 5.12201C11.9438 4.9475 11.6289 4.97952 11.4544 5.19353C11.2799 5.40754 11.3119 5.72249 11.5259 5.89701C12.3755 6.58978 12.9097 7.59973 12.9895 8.70651C13.0094 8.98193 13.2487 9.18912 13.5242 9.16926C13.7996 9.14941 14.0068 8.91003 13.9869 8.63461C13.8871 7.25049 13.2189 5.9872 12.1578 5.12201ZM9 3.49879C8.17157 3.49879 7.5 4.17036 7.5 4.99879C7.5 5.82722 8.17157 6.49879 9 6.49879C9.82843 6.49879 10.5 5.82722 10.5 4.99879C10.5 4.17036 9.82843 3.49879 9 3.49879Z" fill-rule="evenodd"  fill="#FFFFFF" >
</path>
</svg>
