<svg xmlns="http://www.w3.org/2000/svg" xmlns:xlink="http://www.w3.org/1999/xlink" width="18" height="20" viewBox="0 0 18 20" fill="none">
<path d="M14.884 17.304L10.19 19.576C9.606 19.859 9.314 20 9 20C8.686 20 8.394 19.859 7.81 19.576L3.116 17.304C1.039 16.299 0 15.796 0 15L0 5C0 4.204 1.039 3.7 3.116 2.696L7.81 0.424C8.394 0.141 8.686 0 9 0C9.314 0 9.606 0.141 10.19 0.424L14.884 2.696C16.961 3.701 18 4.204 18 5L18 15C18 15.796 16.961 16.3 14.884 17.304ZM8.49363 6.58556C8.49532 6.57423 8.49691 6.56289 8.49839 6.55153C8.50088 6.53242 8.50312 6.51273 8.50512 6.49246Q8.50798 6.46254 8.50989 6.43336C8.51114 6.41364 8.51208 6.39389 8.51271 6.3741C8.51334 6.35457 8.51364 6.33473 8.51362 6.31456C8.5136 6.29495 8.51326 6.27514 8.5126 6.25511Q8.5116 6.22596 8.50961 6.19589C8.50828 6.17599 8.50663 6.15615 8.50465 6.13637Q8.50169 6.10661 8.49776 6.07715C8.49507 6.05705 8.49215 6.03751 8.48899 6.01852C8.48574 5.99901 8.48217 5.97946 8.47826 5.95987C8.4743 5.94022 8.47009 5.92085 8.46562 5.90178C8.46105 5.88236 8.45621 5.86313 8.4511 5.8441C8.44585 5.82466 8.44039 5.80564 8.43471 5.78705C8.42908 5.76856 8.42299 5.74967 8.41643 5.73038C8.4101 5.71187 8.40341 5.69323 8.39634 5.67445C8.38937 5.65604 8.38205 5.63761 8.3744 5.61916C8.36657 5.60036 8.35866 5.58219 8.35068 5.56464C8.34239 5.54642 8.3339 5.52853 8.3252 5.51096C8.3164 5.49316 8.30731 5.47553 8.29794 5.45806C8.28863 5.44072 8.27897 5.4234 8.26896 5.40611C8.25039 5.37406 8.23079 5.34251 8.21018 5.31146C8.18977 5.28072 8.16827 5.25041 8.14568 5.22052C8.12312 5.19073 8.09984 5.16185 8.07583 5.13388C8.05174 5.10579 8.02668 5.07832 8.00063 5.05146C7.97482 5.0249 7.94818 4.99909 7.92071 4.97404C7.8933 4.94906 7.86511 4.9249 7.83613 4.90155C7.80716 4.87823 7.7775 4.85583 7.74715 4.83434Q7.70167 4.80212 7.65444 4.77284C7.62289 4.75326 7.59074 4.73466 7.55799 4.71704C7.52529 4.69943 7.49203 4.68282 7.45822 4.66721C7.42447 4.65164 7.39031 4.63713 7.35573 4.62366C7.32102 4.61016 7.28603 4.59777 7.25076 4.58649C7.21537 4.57516 7.1797 4.56494 7.14373 4.55581Q7.08963 4.54207 7.03485 4.53172C6.99838 4.52481 6.9617 4.51902 6.92483 4.51436C6.88798 4.5097 6.85103 4.50617 6.81396 4.50377Q6.7583 4.50018 6.70256 4.50001C6.66545 4.49989 6.62837 4.50091 6.59132 4.50306C6.55417 4.50522 6.51717 4.50851 6.48033 4.51295Q6.42495 4.51958 6.37005 4.52963C6.33355 4.53631 6.29728 4.54409 6.26125 4.55299C6.22516 4.5619 6.18937 4.57191 6.15388 4.58303C6.11845 4.59412 6.08338 4.6063 6.04867 4.61955C6.0139 4.63283 5.97964 4.64714 5.94588 4.66247Q5.89516 4.68548 5.84585 4.71162Q5.79659 4.73775 5.74912 4.76677Q5.70156 4.79584 5.65589 4.82777Q5.61022 4.8597 5.56657 4.89438Q5.52292 4.92907 5.48153 4.96633Q5.44018 5.00353 5.40101 5.04336Q5.36193 5.08314 5.32544 5.12514C5.3011 5.15315 5.27761 5.18191 5.25498 5.21141Q5.22106 5.25566 5.18993 5.30188C5.16915 5.33274 5.14935 5.36418 5.13053 5.39621Q5.10236 5.44415 5.07706 5.49389C5.06023 5.52704 5.04443 5.56066 5.02967 5.59473Q5.00754 5.64583 4.98854 5.69825Q4.96958 5.75064 4.95383 5.80416C4.94336 5.83977 4.93399 5.87569 4.92569 5.91192Q4.91329 5.9662 4.90421 6.02121C4.89817 6.05787 4.89325 6.09468 4.88947 6.13163Q4.88379 6.18705 4.8815 6.2428Q4.87924 6.29848 4.88038 6.35413C4.88114 6.39123 4.88304 6.42832 4.88607 6.46541C4.88912 6.50248 4.89329 6.53937 4.89859 6.57606Q4.90653 6.63125 4.91786 6.68582C4.9254 6.72219 4.93405 6.75832 4.94382 6.79419C4.95358 6.83 4.96441 6.86548 4.97634 6.90063C4.98828 6.93586 5.0013 6.97066 5.01539 7.00504C5.02948 7.03951 5.04458 7.07341 5.06069 7.10674C5.07685 7.14023 5.09402 7.17318 5.11221 7.20559Q5.13942 7.25412 5.16963 7.30101C5.18986 7.3324 5.21093 7.36299 5.23284 7.39279C5.25484 7.42272 5.27774 7.45196 5.30155 7.48051Q5.33734 7.52343 5.37547 7.56381C5.40094 7.59081 5.42722 7.617 5.4543 7.64237Q5.4949 7.68048 5.53799 7.71615C5.56653 7.73978 5.59581 7.76255 5.62583 7.78448C5.65588 7.8064 5.68657 7.82738 5.71792 7.84743C5.7492 7.86744 5.78105 7.88646 5.81346 7.90449Q5.86222 7.93163 5.91241 7.95564C5.94604 7.97175 5.98002 7.98675 6.01435 8.00066Q6.02071 8.00324 6.0271 8.00577L6.02711 12.2606C5.99547 12.2731 5.96407 12.2866 5.93291 12.301C5.89857 12.3169 5.86465 12.334 5.83115 12.3521C5.79793 12.3701 5.76515 12.3892 5.7328 12.4095Q5.68435 12.4398 5.63831 12.4728Q5.59196 12.5061 5.54787 12.5421C5.51839 12.5662 5.4898 12.591 5.46212 12.6167Q5.42043 12.6553 5.38106 12.6967C5.3549 12.7242 5.32962 12.7525 5.30521 12.7816C5.28079 12.8107 5.25735 12.8405 5.23487 12.871C5.21247 12.9014 5.19095 12.9326 5.1703 12.9646C5.14963 12.9966 5.13006 13.0292 5.11158 13.0623C5.0932 13.0952 5.07575 13.1288 5.05925 13.1632C5.04286 13.1974 5.02753 13.2321 5.01328 13.2673Q4.9919 13.3202 4.97391 13.3741C4.96191 13.4102 4.95106 13.4465 4.94137 13.4831C4.93163 13.5198 4.92306 13.5568 4.91565 13.594C4.90825 13.6313 4.90202 13.6687 4.89697 13.7063C4.89192 13.7439 4.88805 13.7816 4.88536 13.8195Q4.88133 13.8763 4.88087 13.9331Q4.88038 13.9901 4.8835 14.047C4.88557 14.0849 4.88882 14.1227 4.89326 14.1604C4.8977 14.1981 4.90332 14.2356 4.91011 14.2729C4.91689 14.3102 4.92484 14.3473 4.93397 14.3842C4.94309 14.4211 4.95335 14.4575 4.96474 14.4937C4.97616 14.5299 4.9887 14.5658 5.00238 14.6012C5.01599 14.6365 5.03072 14.6714 5.04657 14.7059C5.0623 14.7402 5.07924 14.7742 5.09738 14.8079C5.11537 14.8414 5.13439 14.8742 5.15444 14.9065C5.17468 14.939 5.1957 14.9706 5.21749 15.0011Q5.25048 15.0475 5.28639 15.0917C5.31015 15.121 5.33492 15.1496 5.36071 15.1777C5.38649 15.2057 5.41307 15.2328 5.44044 15.259C5.46785 15.2853 5.4961 15.3107 5.5252 15.3352C5.55422 15.3597 5.58395 15.3832 5.61437 15.4058Q5.65968 15.4395 5.70789 15.4707Q5.75573 15.5019 5.80537 15.5297Q5.85535 15.5579 5.90618 15.5824C5.94095 15.5992 5.97558 15.6146 6.01009 15.6287C6.04629 15.6434 6.08186 15.6567 6.11681 15.6684C6.15338 15.6807 6.1888 15.6914 6.22307 15.7006C6.29868 15.7217 6.37569 15.7379 6.45408 15.7492Q6.57177 15.7663 6.69083 15.7682L7.12074 15.7751L7.12074 15.7129C7.12994 15.7107 7.13921 15.7084 7.14855 15.7059C7.18628 15.6962 7.22276 15.6856 7.25797 15.6741Q7.31109 15.6569 7.36478 15.6356C7.4011 15.6211 7.43599 15.606 7.46946 15.5903C7.50421 15.5739 7.53797 15.5567 7.57074 15.5386C7.60407 15.5203 7.63678 15.501 7.66888 15.4805C7.70123 15.46 7.73255 15.4387 7.76285 15.4167Q7.80793 15.384 7.85261 15.3471C7.88199 15.3228 7.91056 15.2976 7.93831 15.2715Q7.97879 15.2337 8.01859 15.1914C8.0449 15.1634 8.0701 15.1348 8.09419 15.1057C8.11835 15.0765 8.14159 15.0466 8.1639 15.016C8.18607 14.9855 8.20737 14.9542 8.2278 14.9221C8.24799 14.8904 8.26733 14.8577 8.28583 14.8242C8.30408 14.791 8.32136 14.7572 8.33765 14.7227C8.35386 14.6884 8.36896 14.6536 8.38296 14.6184C8.39697 14.5831 8.40989 14.5473 8.4217 14.5112C8.43347 14.4751 8.4441 14.4387 8.45359 14.4019C8.46303 14.3653 8.47135 14.3283 8.47855 14.291C8.48575 14.2536 8.49175 14.2161 8.49655 14.1785C8.50135 14.141 8.50499 14.1032 8.50746 14.0652C8.50989 14.0275 8.51115 13.9896 8.51125 13.9515C8.5113 13.9137 8.51018 13.8758 8.50789 13.8377Q8.50439 13.7806 8.49742 13.7244C8.49578 13.7112 8.49399 13.698 8.49205 13.6848L12.1813 11.5512C12.2005 11.5665 12.22 11.5813 12.2398 11.5957C12.2701 11.6177 12.3008 11.6386 12.3319 11.6585C12.3631 11.6784 12.395 11.6974 12.4277 11.7156C12.4603 11.7337 12.4934 11.7507 12.5269 11.7667Q12.577 11.7907 12.6292 11.8117C12.6637 11.8256 12.6985 11.8385 12.7338 11.8503C12.7689 11.862 12.805 11.8729 12.8422 11.8828C12.9194 11.903 12.9972 11.9182 13.0757 11.9285C13.1542 11.9387 13.2331 11.944 13.3125 11.9443L13.314 11.9443C13.3337 11.9443 13.3536 11.944 13.3737 11.9433C13.3934 11.9427 13.4133 11.9417 13.4333 11.9403Q13.4634 11.9383 13.4923 11.9355C13.5117 11.9335 13.5314 11.9313 13.5514 11.9286C13.5713 11.926 13.591 11.9231 13.6105 11.9198Q13.6398 11.915 13.6687 11.9092C13.6879 11.9054 13.7073 11.9012 13.7271 11.8965C13.7464 11.892 13.7656 11.8872 13.7847 11.882C13.8043 11.8768 13.8235 11.8713 13.8422 11.8656C13.8609 11.8599 13.8797 11.8538 13.8985 11.8475C13.9169 11.8412 13.9356 11.8345 13.9543 11.8274C13.9735 11.8202 13.992 11.8129 14.0096 11.8055C14.0274 11.7981 14.0456 11.7902 14.0642 11.7818C14.082 11.7737 14.0999 11.7653 14.1178 11.7564C14.1358 11.7475 14.1535 11.7384 14.1709 11.7291C14.1888 11.7195 14.2062 11.7098 14.2229 11.7001C14.2401 11.6902 14.2571 11.68 14.2741 11.6694C14.2908 11.659 14.3074 11.6483 14.3238 11.6373C14.3405 11.6261 14.3568 11.6148 14.3727 11.6034C14.3889 11.5917 14.4049 11.5799 14.4206 11.5678C14.4362 11.5558 14.4516 11.5435 14.4669 11.531C14.482 11.5186 14.4971 11.5057 14.5123 11.4924Q14.5347 11.4727 14.5563 11.4525C14.5707 11.4389 14.585 11.425 14.5992 11.4108C14.6134 11.3965 14.6271 11.3824 14.6402 11.3683Q14.6605 11.3466 14.6802 11.3242C14.6929 11.3096 14.7057 11.2945 14.7186 11.2788C14.7313 11.2633 14.7437 11.2477 14.7557 11.232C14.7674 11.2167 14.7792 11.2007 14.7911 11.1842C14.8026 11.168 14.8139 11.1517 14.8249 11.1352C14.8358 11.1189 14.8464 11.1023 14.8569 11.0854C14.8674 11.0686 14.8776 11.0515 14.8875 11.0342Q14.9024 11.0083 14.9163 10.9824C14.9257 10.9647 14.9347 10.9471 14.9434 10.9294Q14.9563 10.9033 14.9688 10.8756C14.9769 10.8578 14.9847 10.8396 14.9923 10.8212C14.9999 10.8029 15.0072 10.7843 15.0143 10.7654C15.0214 10.7464 15.0281 10.7278 15.0343 10.7095C15.0406 10.6906 15.0467 10.6717 15.0524 10.6529C15.0583 10.6335 15.0637 10.6144 15.0687 10.5955C15.0738 10.5763 15.0786 10.5571 15.083 10.5379C15.0876 10.5182 15.0918 10.4988 15.0955 10.4799C15.0994 10.4602 15.1029 10.4407 15.1061 10.4214Q15.1109 10.3919 15.1148 10.3624C15.1173 10.3431 15.1195 10.3234 15.1215 10.3032C15.1234 10.2836 15.125 10.2639 15.1263 10.2441C15.1275 10.2243 15.1284 10.2046 15.1291 10.1849C15.1297 10.1652 15.13 10.1454 15.13 10.1254C15.13 10.1058 15.1297 10.086 15.129 10.0658C15.1283 10.0464 15.1273 10.0267 15.126 10.0066C15.1247 9.98694 15.123 9.96714 15.121 9.94718C15.1191 9.9276 15.1168 9.90789 15.1142 9.88804C15.1115 9.86837 15.1086 9.84878 15.1054 9.82927Q15.1004 9.79978 15.0946 9.77054Q15.0887 9.74118 15.082 9.71261Q15.0751 9.68327 15.0674 9.65471C15.0622 9.63533 15.0568 9.61637 15.0511 9.59783C15.0454 9.57912 15.0393 9.56019 15.0328 9.54102C15.0264 9.52229 15.0197 9.50365 15.0127 9.4851C15.0056 9.46649 14.9983 9.44807 14.9907 9.42986C14.983 9.41139 14.9752 9.39325 14.9671 9.37545C14.9588 9.3572 14.9503 9.33931 14.9416 9.32178C14.9329 9.30423 14.9238 9.28654 14.9143 9.26872C14.905 9.25149 14.8955 9.23439 14.8857 9.21742C14.8671 9.18522 14.8476 9.15365 14.8271 9.12271C14.8065 9.09159 14.7851 9.06118 14.7627 9.03147C14.7403 9.00176 14.717 8.97275 14.6929 8.94446C14.6688 8.91621 14.6437 8.88867 14.6178 8.86182C14.592 8.83516 14.5653 8.80919 14.5378 8.78392C14.5101 8.75861 14.4819 8.73442 14.4534 8.71134C14.4246 8.68803 14.3949 8.66548 14.3642 8.64369C14.3338 8.62204 14.3028 8.60143 14.2714 8.58186C14.2398 8.56222 14.2077 8.54355 14.175 8.52585C14.1426 8.50834 14.1093 8.49164 14.0752 8.47577C14.0414 8.46013 14.0072 8.44553 13.9725 8.43196C13.9378 8.41839 13.9028 8.40592 13.8674 8.39453C13.8323 8.38321 13.7966 8.37291 13.7603 8.36364C13.7244 8.35444 13.688 8.34632 13.6512 8.33929C13.6147 8.33234 13.5779 8.32649 13.541 8.32174C13.5041 8.31704 13.4671 8.31345 13.4298 8.31098C13.3927 8.30854 13.3555 8.30723 13.3183 8.30705C13.2812 8.3069 13.244 8.30788 13.2068 8.30997C13.1697 8.31208 13.1327 8.31533 13.0957 8.31972C13.0586 8.32413 13.0218 8.32965 12.9853 8.33629C12.9486 8.34294 12.9122 8.3507 12.8762 8.35958C12.8401 8.36843 12.8043 8.37841 12.7686 8.38953C12.7332 8.40058 12.698 8.41274 12.6631 8.42601C12.6285 8.43921 12.5941 8.45352 12.56 8.46893C12.5261 8.48431 12.4927 8.50068 12.4599 8.51803C12.4272 8.53534 12.3948 8.55374 12.3629 8.57323C12.3311 8.59263 12.3 8.61297 12.2694 8.63426C12.2389 8.65557 12.209 8.67781 12.1798 8.701C12.1774 8.70292 12.1749 8.70485 12.1725 8.70678L8.49363 6.58556ZM7.12941 6.52108L7.12884 6.52193C7.12301 6.53072 7.11753 6.53939 7.1124 6.54796L7.10966 6.5525L7.10716 6.55691C7.10211 6.56579 7.09681 6.57444 7.09125 6.58286C7.0858 6.59112 7.07996 6.59935 7.07371 6.60755C7.06765 6.61551 7.06129 6.6233 7.05464 6.63091Q7.04479 6.6422 7.03409 6.65289Q7.02346 6.66352 7.01195 6.67359C7.00436 6.68022 6.99655 6.68659 6.98853 6.69269C6.98049 6.69882 6.97228 6.70464 6.96389 6.71017C6.95548 6.71573 6.94582 6.72161 6.93493 6.72781C6.92589 6.73305 6.91681 6.73792 6.9077 6.74242C6.89847 6.74698 6.88904 6.75125 6.87942 6.75524C6.86999 6.75915 6.86036 6.76276 6.85051 6.76609C6.84088 6.76934 6.83102 6.77231 6.82093 6.77499C6.81109 6.7776 6.80111 6.7799 6.79099 6.78187C6.78084 6.78385 6.77067 6.78549 6.76047 6.78679C6.75024 6.78809 6.7401 6.78904 6.73003 6.78965C6.71958 6.79027 6.70828 6.79054 6.69615 6.79047C6.68524 6.79047 6.6743 6.79074 6.66333 6.79127C6.65658 6.7916 6.64998 6.79203 6.64353 6.79254C6.6388 6.79201 6.634 6.7914 6.62914 6.79071C6.62038 6.78946 6.61172 6.78799 6.60317 6.78628C6.59467 6.78459 6.58618 6.78267 6.57771 6.78051C6.56942 6.77839 6.56097 6.77597 6.55237 6.77326Q6.54021 6.76945 6.52799 6.76485C6.51985 6.7618 6.51172 6.75848 6.50359 6.7549C6.49571 6.75145 6.48793 6.74777 6.48024 6.74388C6.47247 6.73994 6.46475 6.73576 6.4571 6.73135C6.44956 6.727 6.44214 6.72244 6.43483 6.71767C6.42764 6.713 6.42043 6.70799 6.41318 6.70266C6.40633 6.69765 6.39947 6.69234 6.39262 6.68671C6.38605 6.68133 6.37955 6.67569 6.3731 6.66979C6.36662 6.66386 6.36032 6.65776 6.3542 6.65151C6.34821 6.6454 6.34227 6.63896 6.33636 6.63221C6.3307 6.62577 6.3252 6.61915 6.31986 6.61236Q6.31166 6.60191 6.30416 6.59117Q6.29679 6.58067 6.28992 6.56959C6.28525 6.56208 6.28087 6.55459 6.27676 6.54712C6.27252 6.53938 6.26853 6.53161 6.26478 6.5238C6.26101 6.51595 6.25745 6.50796 6.25408 6.49984Q6.24906 6.48772 6.24481 6.47561C6.24188 6.4673 6.23922 6.45901 6.23682 6.45076C6.23438 6.44239 6.23216 6.43392 6.23016 6.42535C6.22819 6.41689 6.22645 6.40838 6.22494 6.39981C6.22343 6.39124 6.22215 6.3826 6.2211 6.37391C6.22007 6.36529 6.21926 6.35661 6.21868 6.34786Q6.21784 6.33489 6.2177 6.32175C6.21761 6.31299 6.21775 6.30427 6.21814 6.29559Q6.21871 6.28257 6.22 6.26954C6.22085 6.26087 6.22193 6.25229 6.22324 6.2438C6.22459 6.23511 6.22614 6.22657 6.2279 6.21816C6.22973 6.20954 6.23175 6.20107 6.23397 6.19274C6.23626 6.18425 6.23876 6.17587 6.24148 6.16758C6.2442 6.15927 6.24715 6.15104 6.25032 6.14291C6.25344 6.13488 6.2568 6.12689 6.26041 6.11894C6.26405 6.11094 6.26793 6.10299 6.27204 6.09509C6.27599 6.0875 6.28019 6.07997 6.28462 6.07249C6.28907 6.06498 6.29369 6.05765 6.29848 6.0505C6.30338 6.04319 6.30846 6.03603 6.31372 6.02903Q6.32153 6.01862 6.32967 6.00893C6.33544 6.00208 6.34128 5.9955 6.34718 5.98921C6.35318 5.98282 6.35936 5.97659 6.36571 5.97051C6.37196 5.96454 6.37841 5.95871 6.38506 5.953C6.39173 5.94729 6.39846 5.94184 6.40526 5.93663C6.4122 5.93132 6.41929 5.92619 6.42652 5.92126C6.43384 5.91627 6.44108 5.9116 6.44825 5.90725C6.45585 5.90266 6.46341 5.89835 6.47094 5.89433Q6.48272 5.88807 6.49491 5.88241Q6.50654 5.87698 6.51866 5.87214Q6.53061 5.86735 6.54286 5.86321C6.5513 5.86036 6.55963 5.85778 6.56785 5.85549C6.57638 5.85312 6.58484 5.85101 6.59322 5.84915C6.60185 5.84726 6.61039 5.84562 6.61886 5.84423C6.62749 5.84282 6.63627 5.84163 6.6452 5.84067C6.65378 5.83973 6.66233 5.83904 6.67086 5.83859C6.67969 5.83812 6.68851 5.83789 6.69734 5.8379L6.73549 5.83793C6.73759 5.83811 6.73968 5.8383 6.74177 5.83851C6.74697 5.83902 6.75228 5.83962 6.7577 5.84033C6.76288 5.841 6.768 5.84176 6.77307 5.8426C6.77832 5.84346 6.7834 5.84438 6.78831 5.84535C6.7936 5.8464 6.7987 5.84749 6.8036 5.84863C6.80874 5.84982 6.81377 5.85107 6.8187 5.85238Q6.82678 5.85455 6.83371 5.85665C6.83897 5.85824 6.8441 5.85988 6.84909 5.86156Q6.85629 5.864 6.86356 5.86673C6.86875 5.86869 6.87364 5.87061 6.87822 5.8725Q6.88563 5.87557 6.89305 5.87893C6.89767 5.88101 6.90233 5.88321 6.90703 5.88554C6.91182 5.88789 6.91636 5.89021 6.92066 5.8925C6.92545 5.89507 6.93017 5.89769 6.93481 5.90036C6.93911 5.90283 6.94348 5.90545 6.94792 5.9082C6.95231 5.91093 6.95678 5.91381 6.96134 5.91685C6.96558 5.91968 6.96983 5.92261 6.97409 5.92566C6.97826 5.92865 6.98245 5.93175 6.98666 5.93496C6.99095 5.93825 6.99499 5.94146 6.99879 5.94459C7.00306 5.94809 7.00703 5.95144 7.0107 5.95464C7.01463 5.95809 7.01862 5.9617 7.02265 5.96547C7.02656 5.96913 7.03033 5.97278 7.03397 5.97641C7.03758 5.98001 7.04114 5.98368 7.04465 5.98743Q7.05009 5.99324 7.05507 5.9989C7.05882 6.00319 7.06237 6.00738 7.06572 6.01145Q7.07031 6.01704 7.07517 6.02335C7.07853 6.02774 7.08173 6.03207 7.08477 6.03633C7.08768 6.04037 7.09064 6.04465 7.09367 6.04916C7.09652 6.05344 7.09922 6.05762 7.10177 6.06171C7.10474 6.06649 7.10766 6.07136 7.11053 6.07633Q7.11722 6.08787 7.12309 6.0994C7.12701 6.10708 7.13071 6.11485 7.13418 6.1227Q7.13971 6.13523 7.14423 6.1472C7.14726 6.15519 7.15009 6.16331 7.1527 6.17155C7.15543 6.18015 7.15785 6.18854 7.15996 6.19672C7.16218 6.20534 7.16413 6.21381 7.16581 6.22213C7.16758 6.23099 7.16908 6.23968 7.1703 6.24819C7.17153 6.25666 7.17254 6.26527 7.17333 6.27402C7.1741 6.28268 7.17464 6.29132 7.17494 6.29995C7.17524 6.30886 7.17531 6.31757 7.17515 6.32608C7.17496 6.33487 7.17455 6.3436 7.17391 6.35227C7.17326 6.36102 7.17238 6.36963 7.17128 6.3781Q7.16954 6.39141 7.16717 6.40419C7.16556 6.41286 7.16374 6.42138 7.16171 6.42975C7.1597 6.43802 7.15743 6.44632 7.15492 6.45467C7.15231 6.46329 7.14956 6.47161 7.14666 6.47962Q7.14218 6.49194 7.13711 6.5039C7.13459 6.50981 7.13202 6.51553 7.12941 6.52108ZM7.36518 8.00614L7.36518 12.2607Q7.36842 12.262 7.37166 12.2633Q7.42456 12.2845 7.47572 12.3088C7.50997 12.3251 7.5437 12.3425 7.57691 12.3609C7.60996 12.3792 7.64253 12.3987 7.67462 12.4192Q7.7222 12.4496 7.76848 12.4835Q7.79711 12.5045 7.82476 12.5265L11.5125 10.4002C11.5118 10.3953 11.511 10.3903 11.5103 10.3854C11.505 10.3488 11.5008 10.3118 11.4977 10.2744C11.4947 10.2373 11.4928 10.2001 11.492 10.1629Q11.4909 10.1071 11.4932 10.0514C11.4947 10.0141 11.4973 9.97699 11.5011 9.93999C11.5037 9.9153 11.5067 9.89071 11.5102 9.8662L7.82541 7.74046C7.81854 7.74591 7.81157 7.75135 7.8045 7.7568C7.78857 7.76904 7.77253 7.78097 7.75636 7.79258C7.73975 7.80447 7.72347 7.81577 7.70752 7.82646C7.69082 7.83761 7.67414 7.84838 7.65749 7.85877C7.64024 7.8695 7.62319 7.87973 7.60634 7.88947C7.58961 7.89915 7.57246 7.9087 7.5549 7.91813C7.53743 7.9275 7.51957 7.93669 7.50132 7.94568C7.48369 7.95441 7.46582 7.96288 7.4477 7.97109C7.42989 7.97919 7.41178 7.98706 7.39338 7.9947C7.38414 7.99855 7.37474 8.00236 7.36518 8.00614ZM13.2944 9.64909L13.2948 9.64907C13.3013 9.64881 13.3078 9.64868 13.314 9.64868Q13.3217 9.64868 13.3298 9.64892C13.3348 9.64909 13.3402 9.64935 13.3459 9.64972C13.3508 9.65003 13.3558 9.65044 13.3608 9.65094C13.3662 9.65147 13.3715 9.65207 13.3766 9.65275Q13.3846 9.6538 13.3923 9.65506C13.3973 9.65589 13.4024 9.6568 13.4075 9.65781Q13.4156 9.65945 13.4233 9.66121C13.428 9.66232 13.433 9.66357 13.4383 9.66497C13.4434 9.66634 13.4484 9.66775 13.4531 9.6692C13.4585 9.67083 13.4636 9.67246 13.4685 9.67411C13.4735 9.67582 13.4784 9.67756 13.4831 9.67933C13.4881 9.68123 13.4931 9.68318 13.4979 9.68517Q13.5053 9.68823 13.512 9.69131C13.5171 9.6936 13.5219 9.69585 13.5264 9.69808C13.5313 9.70049 13.5359 9.70287 13.5404 9.70523C13.5452 9.7078 13.5498 9.71039 13.5543 9.71298C13.5585 9.7154 13.5628 9.71796 13.5672 9.72067C13.5721 9.72373 13.5766 9.72664 13.5808 9.72941C13.5853 9.73245 13.5896 9.73539 13.5936 9.73823Q13.6 9.74288 13.6062 9.74757C13.6105 9.75091 13.6147 9.75421 13.6187 9.75747C13.6228 9.76088 13.6268 9.76421 13.6305 9.76745Q13.6363 9.77259 13.6424 9.7782C13.6463 9.78191 13.65 9.78547 13.6534 9.78887C13.6574 9.79287 13.6611 9.79665 13.6644 9.8002Q13.6697 9.8058 13.675 9.81184C13.6786 9.81603 13.6821 9.82004 13.6852 9.82387C13.6888 9.82818 13.692 9.83225 13.6949 9.83606C13.6984 9.84058 13.7015 9.84476 13.7043 9.8486C13.7077 9.85342 13.7107 9.85768 13.7131 9.86138C13.7163 9.86612 13.7191 9.87052 13.7217 9.87458Q13.7262 9.88176 13.73 9.88846C13.7331 9.89379 13.736 9.89894 13.7386 9.90393C13.7415 9.90937 13.7442 9.91468 13.7467 9.91987C13.7493 9.92512 13.7518 9.93055 13.7543 9.93616C13.7565 9.94109 13.7587 9.94649 13.7611 9.95236C13.7632 9.95777 13.7653 9.96327 13.7673 9.96887C13.7693 9.97452 13.7711 9.97998 13.7728 9.98525C13.7746 9.9911 13.7763 9.99677 13.7778 10.0023C13.7794 10.0082 13.7809 10.014 13.7822 10.0195C13.7836 10.0254 13.7848 10.0311 13.7858 10.0365Q13.7876 10.0455 13.789 10.0545C13.7899 10.0601 13.7907 10.0658 13.7914 10.0718C13.7921 10.0777 13.7927 10.0834 13.7932 10.0892C13.7937 10.095 13.7941 10.1008 13.7944 10.1067C13.7946 10.1129 13.7948 10.1187 13.7949 10.1243L13.7947 10.142Q13.7944 10.151 13.7939 10.1597C13.7935 10.1657 13.793 10.1716 13.7924 10.1774Q13.7916 10.1859 13.7903 10.1951C13.7895 10.2007 13.7886 10.2064 13.7876 10.2123C13.7865 10.2182 13.7854 10.2239 13.7842 10.2294C13.7829 10.2357 13.7815 10.2415 13.7802 10.2469C13.7787 10.2527 13.7771 10.2584 13.7755 10.264C13.7739 10.2694 13.7721 10.275 13.7702 10.2808C13.7683 10.2864 13.7664 10.2918 13.7644 10.2971C13.7622 10.303 13.76 10.3086 13.7577 10.314C13.7555 10.3192 13.7532 10.3245 13.7507 10.33C13.7483 10.3353 13.7457 10.3405 13.7431 10.3457C13.7403 10.3512 13.7375 10.3564 13.7348 10.3613C13.7318 10.3666 13.7289 10.3718 13.7259 10.3767C13.7227 10.3819 13.7195 10.3869 13.7163 10.3918C13.7132 10.3966 13.7099 10.4014 13.7065 10.4063C13.703 10.4111 13.6996 10.4158 13.696 10.4204C13.6925 10.4251 13.6888 10.4296 13.6851 10.4341C13.6813 10.4387 13.6774 10.4433 13.6734 10.4478C13.6696 10.4521 13.6655 10.4564 13.6613 10.4608C13.6575 10.4648 13.6535 10.4688 13.6491 10.4731C13.6449 10.4772 13.6405 10.4812 13.6361 10.4852Q13.6296 10.491 13.6225 10.497C13.6183 10.5005 13.6138 10.5041 13.609 10.5078Q13.6016 10.5135 13.5948 10.5184C13.5903 10.5216 13.5854 10.525 13.58 10.5285C13.5753 10.5316 13.5705 10.5347 13.5654 10.5378C13.5603 10.5409 13.5551 10.544 13.5499 10.5469C13.545 10.5496 13.54 10.5523 13.5347 10.555Q13.5266 10.5591 13.5189 10.5628C13.5133 10.5654 13.5078 10.5678 13.5025 10.5701C13.4972 10.5723 13.4918 10.5745 13.4862 10.5766C13.4808 10.5787 13.4753 10.5807 13.4697 10.5825C13.4643 10.5844 13.4586 10.5862 13.4526 10.588C13.4471 10.5896 13.4415 10.5912 13.436 10.5926C13.4302 10.5941 13.4244 10.5955 13.4186 10.5968C13.4128 10.598 13.4071 10.5992 13.4015 10.6002C13.3952 10.6013 13.3894 10.6023 13.3841 10.603C13.378 10.6039 13.372 10.6046 13.3664 10.6052C13.3604 10.6058 13.3546 10.6063 13.3487 10.6067C13.343 10.6071 13.3371 10.6074 13.3311 10.6076C13.3253 10.6078 13.3195 10.6079 13.3136 10.6078C13.3075 10.6078 13.3015 10.6077 13.2957 10.6074C13.29 10.6072 13.2841 10.6068 13.278 10.6063C13.2721 10.6059 13.2663 10.6053 13.2604 10.6046C13.255 10.604 13.2491 10.6032 13.2428 10.6022C13.2372 10.6013 13.2315 10.6004 13.2257 10.5992C13.2199 10.5981 13.2142 10.5969 13.2087 10.5956Q13.1998 10.5936 13.1912 10.5913C13.1838 10.5893 13.1763 10.5871 13.1687 10.5846C13.1612 10.5822 13.1538 10.5796 13.1465 10.5768C13.1392 10.5741 13.132 10.5711 13.1248 10.568C13.1174 10.5648 13.1102 10.5615 13.1034 10.5581C13.0962 10.5546 13.0893 10.5509 13.0826 10.5472C13.0757 10.5433 13.0689 10.5393 13.0621 10.5351Q13.0521 10.5289 13.0427 10.5223C13.0361 10.5177 13.0297 10.513 13.0234 10.5082C13.0173 10.5035 13.0112 10.4986 13.005 10.4934C12.9992 10.4884 12.9934 10.4833 12.9877 10.4779Q12.9793 10.47 12.9707 10.4611C12.9655 10.4557 12.9602 10.4501 12.955 10.4441C12.9498 10.4381 12.9447 10.432 12.9399 10.4259C12.935 10.4198 12.9303 10.4135 12.9256 10.407C12.9212 10.4009 12.9168 10.3944 12.9124 10.3875C12.9082 10.3811 12.9042 10.3745 12.9002 10.3675C12.8963 10.3608 12.8926 10.3539 12.889 10.3469C12.8854 10.3399 12.8819 10.3327 12.8786 10.3254C12.8754 10.3185 12.8724 10.3112 12.8694 10.3037C12.8666 10.2966 12.8639 10.2894 12.8615 10.282C12.8589 10.2745 12.8565 10.267 12.8543 10.2593C12.8522 10.2518 12.8503 10.2443 12.8485 10.2368C12.8467 10.2289 12.8451 10.2212 12.8437 10.2138C12.8423 10.206 12.8411 10.1982 12.84 10.1903C12.839 10.1826 12.8382 10.1748 12.8375 10.1668C12.8369 10.159 12.8364 10.1513 12.8362 10.1438C12.8359 10.1358 12.8358 10.1277 12.8359 10.1197C12.8361 10.1121 12.8364 10.1042 12.8369 10.0961Q12.8376 10.0848 12.839 10.0731C12.8399 10.0652 12.841 10.0573 12.8423 10.0495Q12.8441 10.0382 12.8467 10.0263C12.8482 10.019 12.85 10.0114 12.8522 10.0035C12.8537 9.99756 12.8556 9.9913 12.8576 9.98469C12.8594 9.97889 12.8614 9.97285 12.8637 9.96656C12.8659 9.96026 12.8683 9.95411 12.8707 9.94811C12.8731 9.94219 12.8756 9.9362 12.8784 9.93013Q12.8825 9.92105 12.8869 9.91218C12.8897 9.90669 12.8927 9.90102 12.896 9.89517C12.8991 9.88952 12.9024 9.8838 12.906 9.87801C12.9092 9.87259 12.9127 9.86718 12.9163 9.86179C12.9201 9.85616 12.9238 9.85079 12.9275 9.84568Q12.9331 9.83805 12.9395 9.8299Q12.9457 9.8221 12.9517 9.81513C12.9561 9.81006 12.9605 9.80519 12.9649 9.80051C12.9693 9.79573 12.974 9.79097 12.9788 9.78622C12.9833 9.78175 12.988 9.77729 12.9929 9.77286C12.9976 9.76857 13.0026 9.76427 13.0077 9.75996C13.0128 9.75574 13.0177 9.75177 13.0226 9.74805C13.0279 9.74398 13.0332 9.74002 13.0387 9.73617C13.0439 9.7325 13.0494 9.72882 13.0551 9.72511C13.0603 9.72175 13.0658 9.71834 13.0717 9.71489C13.0771 9.71168 13.0828 9.70847 13.0888 9.70525C13.0944 9.70227 13.1001 9.69936 13.106 9.69653Q13.1149 9.69223 13.1238 9.68833C13.1298 9.68574 13.1359 9.68324 13.1421 9.68083C13.1482 9.67847 13.1543 9.67626 13.1604 9.6742Q13.1698 9.67101 13.1791 9.66825C13.1855 9.66637 13.1916 9.66468 13.1976 9.66319C13.2042 9.66154 13.2107 9.66006 13.217 9.65874C13.2236 9.65736 13.23 9.65615 13.2363 9.65512C13.2426 9.65407 13.249 9.65315 13.2555 9.65234C13.2622 9.65152 13.2688 9.65084 13.2752 9.65029C13.2816 9.64978 13.2879 9.64938 13.2944 9.64909ZM6.61771 13.4791C6.61424 13.4797 6.61078 13.4803 6.60733 13.481C6.59761 13.4828 6.58779 13.485 6.57786 13.4875C6.56828 13.49 6.55869 13.4928 6.5491 13.4959Q6.53485 13.5005 6.52087 13.506C6.51142 13.5097 6.50214 13.5137 6.49302 13.518C6.48413 13.5221 6.47512 13.5267 6.46599 13.5317C6.45716 13.5365 6.44861 13.5416 6.44035 13.5468C6.43192 13.5521 6.42352 13.5578 6.41515 13.5639C6.40718 13.5696 6.39929 13.5757 6.3915 13.5822C6.38375 13.5885 6.37614 13.5952 6.36868 13.6022Q6.35778 13.6124 6.3474 13.6234C6.34063 13.6305 6.33398 13.6381 6.32747 13.6459Q6.31781 13.6575 6.30897 13.6696C6.30304 13.6777 6.29736 13.686 6.29192 13.6946C6.28663 13.7028 6.28153 13.7114 6.27662 13.7203C6.27173 13.7291 6.26713 13.7381 6.26281 13.7472C6.25852 13.7562 6.25448 13.7655 6.25069 13.7749C6.24701 13.7842 6.2436 13.7936 6.24046 13.8031C6.23737 13.8125 6.23455 13.8222 6.23199 13.832C6.22942 13.8419 6.22719 13.8516 6.22531 13.8613C6.2234 13.8712 6.22179 13.8811 6.22049 13.8911C6.2192 13.901 6.21822 13.911 6.21755 13.9211Q6.21656 13.936 6.21651 13.9511C6.21647 13.9612 6.21674 13.9712 6.21733 13.9812C6.21793 13.9913 6.21884 14.0013 6.22005 14.0112C6.22128 14.0213 6.22281 14.0312 6.22465 14.0411C6.22649 14.051 6.22865 14.0608 6.23112 14.0705C6.23355 14.0802 6.23631 14.0899 6.23939 14.0995Q6.24401 14.1139 6.24943 14.1278C6.25306 14.1371 6.25702 14.1464 6.2613 14.1556C6.26559 14.1648 6.2701 14.1737 6.27483 14.1824C6.27963 14.1913 6.28471 14.1999 6.29007 14.2085C6.29539 14.2169 6.30098 14.2253 6.30685 14.2334C6.3127 14.2416 6.3188 14.2495 6.32513 14.2572C6.3316 14.2651 6.33826 14.2728 6.34511 14.2802C6.35185 14.2874 6.35887 14.2945 6.36617 14.3014C6.37356 14.3084 6.38105 14.3151 6.38863 14.3214C6.39642 14.3279 6.40432 14.3341 6.41235 14.34C6.42045 14.346 6.42873 14.3517 6.43718 14.3571C6.44565 14.3626 6.45424 14.3677 6.46294 14.3726C6.47188 14.3776 6.48077 14.3822 6.4896 14.3864C6.49884 14.3908 6.50812 14.3949 6.51745 14.3986C6.52667 14.4023 6.5361 14.4058 6.54574 14.409C6.55513 14.4121 6.56473 14.415 6.57454 14.4175Q6.58912 14.4214 6.60395 14.4243Q6.61873 14.4272 6.63356 14.4292C6.6436 14.4305 6.65356 14.4316 6.66344 14.4322C6.67365 14.4329 6.68371 14.4333 6.69362 14.4334Q6.70879 14.4335 6.72365 14.4326C6.73362 14.4321 6.7437 14.4312 6.7539 14.43C6.76399 14.4288 6.77384 14.4273 6.78347 14.4255C6.79348 14.4237 6.80337 14.4216 6.81315 14.4191C6.82284 14.4167 6.83242 14.414 6.84191 14.411C6.85166 14.4079 6.86117 14.4046 6.87044 14.401C6.87985 14.3973 6.88902 14.3935 6.89796 14.3893C6.90717 14.3851 6.91623 14.3805 6.92513 14.3757C6.93405 14.3709 6.94275 14.3659 6.95124 14.3606C6.95959 14.3554 6.96794 14.3498 6.97627 14.3438C6.9845 14.338 6.99248 14.3319 7.00023 14.3256C7.00796 14.3193 7.01555 14.3127 7.02298 14.3058Q7.03403 14.2956 7.04453 14.2846C7.05132 14.2775 7.058 14.27 7.06457 14.2622C7.0711 14.2545 7.07729 14.2466 7.08315 14.2387C7.08915 14.2306 7.09488 14.2223 7.10034 14.2139C7.10579 14.2054 7.11096 14.1969 7.11585 14.1881C7.12075 14.1794 7.12541 14.1705 7.12983 14.1613C7.13418 14.1522 7.13825 14.1431 7.14202 14.1338C7.14579 14.1245 7.14927 14.1151 7.15248 14.1055C7.15567 14.096 7.15855 14.0864 7.16112 14.0768C7.16371 14.067 7.16601 14.0572 7.16801 14.0472C7.17 14.0373 7.17166 14.0274 7.17299 14.0175C7.17431 14.0078 7.17535 13.9978 7.1761 13.9876Q7.17718 13.9724 7.17733 13.9576C7.17742 13.9475 7.1772 13.9374 7.17667 13.9272C7.17615 13.9175 7.17531 13.9076 7.17415 13.8975C7.17296 13.8874 7.17148 13.8774 7.1697 13.8676C7.16795 13.8579 7.16584 13.848 7.16336 13.8379C7.16103 13.8284 7.15836 13.8189 7.15535 13.8093C7.15231 13.7996 7.14898 13.7901 7.14537 13.7806C7.14281 13.774 7.14012 13.7674 7.13731 13.761Q7.12464 13.7426 7.11249 13.7222C7.10847 13.7153 7.10501 13.7094 7.1021 13.7047C7.09939 13.7004 7.09664 13.6961 7.09385 13.6919C7.09074 13.6873 7.08776 13.683 7.08491 13.679C7.08202 13.6749 7.079 13.6709 7.07583 13.6667C7.07254 13.6625 7.06932 13.6584 7.06618 13.6546C7.06295 13.6507 7.05958 13.6467 7.05605 13.6427C7.0527 13.6389 7.04926 13.6351 7.04575 13.6313C7.0422 13.6276 7.03863 13.6239 7.03502 13.6203C7.03143 13.6167 7.02773 13.6131 7.0239 13.6096C7.02003 13.606 7.01624 13.6025 7.01251 13.5993C7.00842 13.5957 7.00445 13.5924 7.00062 13.5892C6.99669 13.586 6.99254 13.5827 6.98818 13.5794C6.98422 13.5764 6.98018 13.5734 6.97607 13.5705C6.97181 13.5675 6.96752 13.5645 6.96319 13.5617C6.95909 13.5589 6.95483 13.5562 6.95041 13.5535C6.94578 13.5506 6.94129 13.548 6.93694 13.5455C6.93257 13.543 6.9281 13.5405 6.92354 13.5381C6.91871 13.5355 6.91409 13.5332 6.9097 13.5311C6.90492 13.5287 6.90035 13.5266 6.89599 13.5247C6.89116 13.5225 6.88634 13.5205 6.88155 13.5185C6.87684 13.5166 6.87204 13.5147 6.86717 13.5129C6.86234 13.5111 6.85736 13.5094 6.85223 13.5077C6.84733 13.506 6.84251 13.5045 6.83777 13.5031C6.83275 13.5016 6.82779 13.5003 6.8229 13.499C6.81791 13.4977 6.81279 13.4964 6.80752 13.4953C6.80283 13.4942 6.79798 13.4932 6.79295 13.4922C6.78754 13.4912 6.78222 13.4903 6.77701 13.4895C6.77238 13.4887 6.76743 13.4881 6.76214 13.4874C6.75671 13.4867 6.75165 13.4862 6.74698 13.4858C6.74181 13.4853 6.73662 13.4849 6.73143 13.4846C6.72604 13.4843 6.72086 13.4841 6.71588 13.484Q6.708 13.4838 6.69878 13.4839C6.68377 13.4838 6.67099 13.4835 6.66046 13.4829C6.64981 13.4823 6.63911 13.4815 6.62836 13.4803C6.62477 13.48 6.62122 13.4796 6.61771 13.4791Z" fill-rule="evenodd"  fill="#FFFFFF" >
</path>
</svg>
