<svg xmlns="http://www.w3.org/2000/svg" xmlns:xlink="http://www.w3.org/1999/xlink" width="18" height="18" viewBox="0 0 18 18" fill="none">
<path d="M18 2C18 0.895431 17.1046 0 16 0L2 0C0.895431 0 0 0.895431 0 2L0 13C0 14.1046 0.895431 15 2 15L16 15C17.1046 15 18 14.1046 18 13L18 2ZM12.2 4C12.2 4.44183 12.5582 4.8 13 4.8L13.1745 4.8L10.8464 7.46063L7.7613 5.53241Q7.37629 5.29179 6.92519 5.34316C6.62446 5.37741 6.36708 5.50155 6.15306 5.71557L2.93469 8.93394L2.93431 8.93431C2.78954 9.07909 2.7 9.27909 2.7 9.5C2.7 9.94183 3.05817 10.3 3.5 10.3C3.72091 10.3 3.92091 10.2105 4.06569 10.0657L4.06606 10.0653L7.11568 7.0157L10.215 8.95279C10.4855 9.12184 10.7785 9.18305 11.094 9.13643C11.4096 9.08981 11.6723 8.94648 11.8824 8.70645L14.2019 6.05557C14.2304 6.47147 14.5768 6.8 15 6.8C15.4418 6.8 15.8 6.44183 15.8 6L15.8 4.5C15.8 3.78203 15.218 3.2 14.5 3.2L13 3.2C12.5582 3.2 12.2 3.55817 12.2 4ZM17 16L1 16C0.447715 16 0 16.4477 0 17C0 17.5523 0.447715 18 1 18L17 18C17.5523 18 18 17.5523 18 17C18 16.4477 17.5523 16 17 16Z" fill-rule="evenodd"  fill="#FFFFFF" >
</path>
</svg>
