<svg xmlns="http://www.w3.org/2000/svg" xmlns:xlink="http://www.w3.org/1999/xlink" width="18" height="18" viewBox="0 0 18 18" fill="none">
<path d="M16 3.44841e-32C17.1046 -2.02906e-16 18 0.895431 18 2L18 13C18 14.1046 17.1046 15 16 15L2 15C0.895431 15 1.35271e-16 14.1046 1.53263e-32 13L1.53263e-32 2C-1.35271e-16 0.895431 0.895431 2.02906e-16 2 3.44841e-32L16 3.44841e-32ZM5 6C4.44772 6 4 6.44772 4 7L4 11C4 11.5523 4.44772 12 5 12C5.55228 12 6 11.5523 6 11L6 7C6 6.44772 5.55228 6 5 6ZM9 3C8.44771 3 8 3.44772 8 4L8 11C8 11.5523 8.44771 12 9 12C9.55229 12 10 11.5523 10 11L10 4C10 3.44772 9.55229 3 9 3ZM13 9C12.4477 9 12 9.44771 12 10L12 11C12 11.5523 12.4477 12 13 12C13.5523 12 14 11.5523 14 11L14 10C14 9.44771 13.5523 9 13 9ZM1 16L17 16C17.5523 16 18 16.4477 18 17C18 17.5523 17.5523 18 17 18L1 18C0.447715 18 6.76354e-17 17.5523 1.53263e-32 17C-6.76354e-17 16.4477 0.447715 16 1 16Z" fill-rule="evenodd"  fill="#FFFFFF" >
</path>
</svg>
