<svg xmlns="http://www.w3.org/2000/svg" xmlns:xlink="http://www.w3.org/1999/xlink" width="18" height="18" viewBox="0 0 18 18" fill="none">
<path d="M3.989 0.9C3.74853 1.46784 3.62461 2.08063 3.625 2.7C3.625 3.69411 4.4085 4.5 5.375 4.5L12.625 4.5C13.5915 4.5 14.375 3.69411 14.375 2.7C14.375 2.0601 14.2455 1.4508 14.011 0.9L16.25 0.9C17.2165 0.9 18 1.70589 18 2.7L18 16.2C18 17.1941 17.2165 18 16.25 18L1.75 18C0.783502 18 0 17.1941 0 16.2L0 2.7C0 1.70589 0.783502 0.9 1.75 0.9L3.989 0.9ZM11 10.8L4.375 10.8C3.89175 10.8 3.5 11.2029 3.5 11.7C3.5 12.1971 3.89175 12.6 4.375 12.6L11 12.6C11.4832 12.6 11.875 12.1971 11.875 11.7C11.875 11.2029 11.4832 10.8 11 10.8ZM13.625 7.2L4.375 7.2C3.91204 7.20053 3.52961 7.57189 3.50247 8.04726C3.47534 8.52262 3.81291 8.93746 4.27262 8.9937L4.375 9L13.625 9C14.1082 9 14.5 8.59706 14.5 8.1C14.5 7.60294 14.1082 7.2 13.625 7.2ZM9 0C10.8639 0 12.4301 1.27489 12.874 3.00024L5.12595 3.00024C5.56991 1.27489 7.13607 0 9 0Z"   fill="#FFFFFF" >
</path>
</svg>
