<svg xmlns="http://www.w3.org/2000/svg" xmlns:xlink="http://www.w3.org/1999/xlink" width="18" height="18" viewBox="0 0 18 18" fill="none">
<path d="M18 5L18 16C18 17.1046 17.1046 18 16 18L2 18C0.895431 18 1.35271e-16 17.1046 1.53263e-32 16L1.53263e-32 5L18 5ZM4.16906 8.24274C3.93058 8.52908 3.96926 8.9545 4.25546 9.19314L4.46606 9.36864C5.05916 9.86274 5.44616 10.1876 5.69546 10.463C5.93126 10.7249 5.95376 10.8473 5.95376 10.9247C5.95376 11.0021 5.93126 11.1254 5.69546 11.3864C5.44706 11.6618 5.05916 11.9858 4.46606 12.4808L4.25546 12.6563C4.06352 12.8086 3.96918 13.053 4.00898 13.2947C4.04877 13.5365 4.21645 13.7377 4.44708 13.8205C4.6777 13.9032 4.93505 13.8545 5.11946 13.6931L5.36876 13.4861C5.91326 13.0325 6.37676 12.6464 6.69716 12.2909C7.03826 11.9138 7.30376 11.48 7.30376 10.9247C7.30376 10.3694 7.03826 9.93654 6.69716 9.55854C6.37676 9.20304 5.91326 8.81694 5.36876 8.36334L5.11946 8.15634C4.83312 7.91787 4.4077 7.95654 4.16906 8.24274ZM13.6875 12.4997L9.18746 12.4997C8.81467 12.4997 8.51246 12.802 8.51246 13.1747C8.51246 13.5475 8.81467 13.8497 9.18746 13.8497L13.6875 13.8497C14.0603 13.8497 14.3625 13.5475 14.3625 13.1747C14.3625 12.802 14.0603 12.4997 13.6875 12.4997ZM1.53263e-32 2C-1.35271e-16 0.895431 0.895431 2.02906e-16 2 3.44841e-32L16 3.44841e-32C17.1046 -2.02906e-16 18 0.895431 18 2L18 3L1.53263e-32 3L1.53263e-32 2Z" fill-rule="evenodd"  fill="#FFFFFF" >
</path>
</svg>
