<svg xmlns="http://www.w3.org/2000/svg" xmlns:xlink="http://www.w3.org/1999/xlink" width="18" height="18" viewBox="0 0 18 18" fill="none">
<path d="M9 0C13.9706 0 18 4.02944 18 9C18 13.9706 13.9706 18 9 18C4.02944 18 0 13.9706 0 9C0 4.02944 4.02944 0 9 0ZM9.07347 3.43806C8.94832 3.43806 8.83867 3.50448 8.77787 3.60399C8.21043 4.70647 7.47557 5.71483 6.59684 6.59193C5.71937 7.47145 4.71048 8.20698 3.60761 8.77282C3.50724 8.83393 3.44082 8.94357 3.44082 9.06873C3.44082 9.19389 3.50724 9.30353 3.60675 9.36433C4.68319 9.91749 5.69361 10.6443 6.59438 11.5471C7.47433 12.4237 8.21004 13.432 8.77567 14.5346C8.83935 14.6354 8.94899 14.7018 9.07415 14.7018C9.19662 14.7018 9.30424 14.6382 9.36577 14.5422C10.5036 12.3166 12.3138 10.5054 14.5381 9.36524C14.6377 9.30311 14.7041 9.19347 14.7041 9.06831C14.7041 8.94316 14.6377 8.83351 14.5382 8.77271C13.434 8.20709 12.4248 7.47115 11.5471 6.59111C10.7141 5.76025 10.0104 4.81092 9.45776 3.7754L9.36907 3.60399C9.30827 3.50448 9.19863 3.43806 9.07347 3.43806ZM9.09488 6.49705C9.83613 7.46905 10.7044 8.33728 11.6764 9.07852C11.1946 9.44906 10.7357 9.85149 10.2997 10.2842C9.86735 10.7152 9.4648 11.1751 9.09488 11.6608C8.72328 11.1765 8.32083 10.7167 7.89003 10.2842C7.45855 9.85231 6.99865 9.44979 6.51341 9.07934C6.996 8.70962 7.45488 8.30719 7.89003 7.87367C8.3224 7.44265 8.72495 6.98272 9.09488 6.49705Z"   fill="#FFFFFF" >
</path>
</svg>
