<svg xmlns="http://www.w3.org/2000/svg" xmlns:xlink="http://www.w3.org/1999/xlink" width="14" height="14" viewBox="0 0 14 14" fill="none">
<path d="M7 14C3.1342 14 0 10.8658 0 7C0 3.1342 3.1342 0 7 0C10.8658 0 14 3.1342 14 7C14 10.8658 10.8658 14 7 14ZM10.7491 6.3721C11.0941 6.3721 11.3791 6.65551 11.3791 7.0021C11.3791 7.34712 11.0957 7.6321 10.7491 7.6321L7.6191 7.6321L7.6191 10.7521C7.6191 11.0971 7.34569 11.3821 6.9991 11.3821C6.65408 11.3821 6.3691 11.0987 6.3691 10.7521L6.3691 7.6321L3.2491 7.6321C2.90408 7.6321 2.6191 7.34869 2.6191 7.0021C2.6191 6.65708 2.90251 6.3721 3.2491 6.3721L6.3691 6.3721L6.3691 3.2521C6.3691 2.90708 6.65251 2.6221 6.9991 2.6221C7.34412 2.6221 7.6291 2.90551 7.6291 3.2521L7.6291 6.3721L10.7491 6.3721Z" fill-rule="evenodd"  fill="#8484DD" >
</path>
<path d="M10.7522 6.37652L7.62351 6.37652L7.62351 3.24781C7.62351 2.90279 7.34436 2.62207 6.99777 2.62207C6.65275 2.62207 6.37203 2.90122 6.37203 3.24781L6.37203 6.37652L3.24488 6.37652C2.89986 6.37652 2.61914 6.65568 2.61914 7.00227C2.61914 7.34729 2.89829 7.62801 3.24488 7.62801L6.37359 7.62801L6.37359 10.7551C6.37359 11.1002 6.65275 11.3809 6.99934 11.3825C7.34436 11.3825 7.62508 11.1033 7.62508 10.7567L7.62508 7.62801L10.7538 7.62801C11.0988 7.62801 11.3795 7.34885 11.3795 7.00227C11.378 6.65568 11.0988 6.37652 10.7522 6.37652Z"   fill="#FFFFFF" >
</path>
</svg>
