<svg xmlns="http://www.w3.org/2000/svg" xmlns:xlink="http://www.w3.org/1999/xlink" width="14" height="14" viewBox="0 0 14 14" fill="none">
<path d="M8.0002 1C8.0002 0.447715 7.55248 0 7.0002 0C6.44792 0 6.0002 0.447715 6.0002 1L6.0002 5.9999L1 5.9999C0.447715 5.9999 0 6.44762 0 6.9999C0 7.55218 0.447715 7.9999 1 7.9999L6.0002 7.9999L6.0002 13C6.0002 13.5523 6.44792 14 7.0002 14C7.55248 14 8.0002 13.5523 8.0002 13L8.0002 7.9999L13 7.9999C13.5523 7.9999 14 7.55218 14 6.9999C14 6.44762 13.5523 5.9999 13 5.9999L8.0002 5.9999L8.0002 1Z" fill-rule="evenodd"  fill="#B1B1FF" >
</path>
</svg>
