<svg xmlns="http://www.w3.org/2000/svg" xmlns:xlink="http://www.w3.org/1999/xlink" width="24" height="24" viewBox="0 0 24 24" fill="none">
<path     fill="#FFFFFF"  d="M6 -2.20436e-15L18 -2.20436e-15C21.3137 -2.20436e-15 24 2.68629 24 6L24 18C24 21.3137 21.3137 24 18 24L6 24C2.68629 24 -3.91526e-15 21.3137 -3.30655e-15 18L1.10218e-15 6C1.30509e-15 2.68629 2.68629 -2.61018e-15 6 -2.20436e-15Z">
</path>
<path d="M13.2422 7.88986C13.2422 7.88986 12.1551 7.50769 11.4275 7.31293C10.7 7.11816 8.87793 7.11816 8.87793 7.11816L8.87793 8.59434C8.87793 8.59434 10.6328 8.6093 11.3224 8.79647C12.0198 8.98387 13.2422 9.49334 13.2422 9.49334L13.2422 7.88986Z"   fill="url(#linear_fill_47_196)" >
</path>
<path d="M10.7578 16.0244C10.7578 16.0244 11.845 16.4063 12.5725 16.6013C13.3 16.8035 15.1221 16.7961 15.1221 16.7961L15.1221 15.3275C15.1221 15.3275 13.3598 15.3126 12.6698 15.1251C11.9802 14.938 10.7578 14.4209 10.7578 14.4209L10.7578 16.0244Z"   fill="url(#linear_fill_47_197)" >
</path>
<path d="M7.91019 10.8936C7.91019 10.8936 7.52769 11.9725 7.32532 12.6918C7.13036 13.4184 7.13036 15.2318 7.13036 15.2318L8.61514 15.2318C8.61514 15.2318 8.63021 13.4861 8.81751 12.7968C9.00505 12.1074 9.52246 10.8936 9.52246 10.8936L7.91019 10.8936Z"   fill="url(#linear_fill_47_198)" >
</path>
<path d="M16.0893 13.1942C16.0893 13.1942 16.4718 12.1153 16.6742 11.3886C16.8691 10.6694 16.8691 8.85596 16.8691 8.85596L15.3844 8.85596C15.3844 8.85596 15.3693 10.6017 15.182 11.291C14.9945 11.973 14.477 13.1942 14.477 13.1942L16.0893 13.1942Z"   fill="url(#linear_fill_47_199)" >
</path>
<path d="M3.03913 11.1263C2.99386 11.7485 2.98619 12.1982 3.02379 12.4677C3.1289 13.2094 3.40665 13.7485 3.63914 14.1459C3.87162 14.5433 4.29899 15.075 4.85373 15.4724C5.03404 15.5993 5.35629 15.8241 5.87344 16.0116C6.12817 16.1012 6.77345 16.229 6.77345 16.229L9.81798 16.229L10.6727 16.7383L10.6727 15.4799C10.6727 15.4799 10.6574 15.0676 10.418 14.9174C10.1702 14.7756 9.65302 14.798 9.65302 14.798L6.7581 14.798C6.7581 14.798 5.84351 14.4081 5.73072 14.3334C5.22125 13.9584 5.01869 13.6366 4.85373 13.3745C4.44094 12.7224 4.35117 11.8754 4.49388 11.1263C4.53148 10.9239 4.73404 10.4593 5.04862 10.0545C5.26576 9.77744 5.80591 9.29796 6.65375 9.04329C6.81104 8.99852 6.98368 8.9612 7.0957 8.93882C7.17857 8.9155 7.31361 8.93882 7.31361 8.93882L7.31361 7.40989C7.31361 7.40989 7.14864 7.40989 7.10337 7.40989C6.86322 7.43974 6.63841 7.53769 6.43585 7.60486C5.34862 7.95654 4.44094 8.59367 4.05884 9.04329C3.87162 9.25318 3.60921 9.61979 3.44425 9.95748C3.17417 10.5116 3.0468 11.0442 3.03913 11.1263Z"   fill="url(#linear_fill_47_200)" >
</path>
<path d="M15.1624 7.24333L16.692 7.24333C16.692 7.24333 16.6995 7.13129 16.692 7.08633C16.662 6.84625 16.5653 6.62141 16.5053 6.41944C16.1449 5.34785 15.5077 4.44164 15.0498 4.05904C14.8405 3.87917 14.4727 3.61699 14.1358 3.45236C13.5802 3.18256 13.0406 3.05528 12.958 3.04766C12.3359 3.00269 11.8854 2.99507 11.6086 3.03242C10.8588 3.12997 10.3182 3.4074 9.91378 3.64748C9.52339 3.87231 8.9838 4.29912 8.5784 4.85321C8.45922 5.02546 8.22649 5.34785 8.04631 5.86535C7.95622 6.11229 7.82109 6.75631 7.82109 6.75631L7.82109 9.7836L7.31152 10.6304L8.5784 10.6304C8.5784 10.6304 8.99881 10.6227 9.14145 10.3758C9.28409 10.1357 9.26157 9.61897 9.26157 9.61897L9.26157 6.74183C9.26157 6.74183 9.65102 5.83487 9.7336 5.72283C10.109 5.21295 10.4309 5.01097 10.6936 4.85321C11.3533 4.44164 12.2082 4.35171 12.958 4.49347C13.1607 4.53158 13.6253 4.73355 14.0382 5.04832C14.315 5.25791 14.7955 5.79752 15.0498 6.64428C15.1023 6.80128 15.1399 6.96667 15.1624 7.0787C15.1774 7.16102 15.1624 7.24333 15.1624 7.24333Z"   fill="url(#linear_fill_47_201)" >
</path>
<path d="M13.3273 7.42383L13.3273 8.68223C13.3273 8.68223 13.3426 9.09454 13.582 9.24473C13.8298 9.38652 14.347 9.36413 14.347 9.36413L17.2419 9.36413C17.2419 9.36413 18.1565 9.75406 18.2693 9.82869C18.7787 10.2037 18.9813 10.5255 19.1463 10.7876C19.5591 11.4397 19.6488 12.2867 19.5061 13.0358C19.4685 13.2382 19.266 13.7028 18.9514 14.1076C18.7342 14.3847 18.1941 14.8641 17.3462 15.1188C17.189 15.1636 17.0163 15.2009 16.9043 15.2233C16.8214 15.2466 16.7017 15.2233 16.7017 15.2233L16.7017 16.7522C16.7017 16.7522 16.8514 16.7522 16.8966 16.7522C17.1368 16.7224 17.3616 16.6244 17.5642 16.5573C18.6514 16.2056 19.5591 15.5684 19.9412 15.1188C20.1284 14.9089 20.3908 14.5423 20.5557 14.2046C20.8258 13.6505 20.9532 13.1179 20.9609 13.0358C21.0061 12.4136 21.0138 11.964 20.9762 11.6944C20.8711 10.9528 20.5933 10.4136 20.3609 10.0162C20.1284 9.6188 19.701 9.08708 19.1463 8.68969C18.966 8.56282 18.6437 8.33801 18.1266 8.15051C17.8718 8.06096 17.2266 7.93316 17.2266 7.93316L14.182 7.93316L13.3273 7.42383Z"   fill="url(#linear_fill_47_202)" >
</path>
<path d="M8.84841 16.6812L7.31152 16.6812C7.31152 16.6812 7.31152 16.8687 7.31152 16.9213C7.34908 17.1537 7.43921 17.3786 7.5068 17.5805C7.86638 18.6598 8.50385 19.566 8.95356 19.9486C9.17137 20.1277 9.53095 20.3906 9.87644 20.5476C10.4313 20.8174 10.9711 20.9523 11.0538 20.9523C11.6762 20.9973 12.1259 21.0049 12.4029 20.9676C13.1455 20.87 13.6928 20.5926 14.09 20.3601C14.488 20.1277 15.0279 19.7085 15.425 19.1536C15.5527 18.9745 15.778 18.6521 15.9648 18.1346C16.055 17.8877 16.1826 17.2505 16.1826 17.2505L16.1826 14.2164L16.6999 13.3696L15.4325 13.3696C15.4325 13.3696 15.0128 13.3773 14.8701 13.6242C14.7274 13.8719 14.75 14.381 14.75 14.381L14.75 17.2582C14.75 17.2582 14.3604 18.1727 14.2777 18.2772C13.9031 18.787 13.5802 18.989 13.3182 19.1536C12.6582 19.5583 11.8029 19.6559 11.0538 19.5134C10.851 19.476 10.3787 19.2664 9.97314 18.9593C9.68867 18.7421 9.20892 18.2025 8.95356 17.3633C8.90849 17.2056 8.87094 17.0409 8.84841 16.9213C8.83339 16.8466 8.84841 16.6812 8.84841 16.6812Z"   fill="url(#linear_fill_47_203)" >
</path>
<defs>
<linearGradient id="linear_fill_47_196" x1="8.513671875" y1="8.3056640625" x2="13.06494140625" y2="9.93994140625" gradientUnits="userSpaceOnUse">
<stop offset="0" stop-color="#62C4F9"  />
<stop offset="1" stop-color="#2C8AE2"  />
</linearGradient>
<linearGradient id="linear_fill_47_197" x1="15.486328125" y1="15.6083984375" x2="10.96240234375" y2="13.38134765625" gradientUnits="userSpaceOnUse">
<stop offset="0" stop-color="#62C4F9"  />
<stop offset="1" stop-color="#2B89E2"  />
</linearGradient>
<linearGradient id="linear_fill_47_198" x1="8.326171875" y1="15.59375" x2="12.2666015625" y2="10.8935546875" gradientUnits="userSpaceOnUse">
<stop offset="0" stop-color="#62C4F9"  />
<stop offset="1" stop-color="#2B8AE2"  />
</linearGradient>
<linearGradient id="linear_fill_47_199" x1="15.6728515625" y1="8.49365234375" x2="14.72998046875" y2="12.9990234375" gradientUnits="userSpaceOnUse">
<stop offset="0" stop-color="#62C4F9"  />
<stop offset="1" stop-color="#2B89E2"  />
</linearGradient>
<linearGradient id="linear_fill_47_200" x1="10.2744140625" y1="16.22314453125" x2="10.2744140625" y2="7.40966796875" gradientUnits="userSpaceOnUse">
<stop offset="0.002905785620629371" stop-color="#62C4F9"  />
<stop offset="1" stop-color="#2B8AE2"  />
</linearGradient>
<linearGradient id="linear_fill_47_201" x1="7.82958984375" y1="10.23486328125" x2="16.69580078125" y2="10.23486328125" gradientUnits="userSpaceOnUse">
<stop offset="0.002905785620629371" stop-color="#62C4F9"  />
<stop offset="1" stop-color="#2A88E1"  />
</linearGradient>
<linearGradient id="linear_fill_47_202" x1="13.7255859375" y1="7.93896484375" x2="13.7255859375" y2="16.75244140625" gradientUnits="userSpaceOnUse">
<stop offset="0.002905785620629371" stop-color="#62C4F9"  />
<stop offset="1" stop-color="#2B8AE2"  />
</linearGradient>
<linearGradient id="linear_fill_47_203" x1="16.181640625" y1="13.76513671875" x2="7.3115234375" y2="13.76513671875" gradientUnits="userSpaceOnUse">
<stop offset="0.002905785620629371" stop-color="#62C4F9"  />
<stop offset="1" stop-color="#2B89E2"  />
</linearGradient>
</defs>
</svg>
