<svg xmlns="http://www.w3.org/2000/svg" xmlns:xlink="http://www.w3.org/1999/xlink" width="40" height="24.00048828125" viewBox="0 0 40 24.00048828125" fill="none">
<path d="M2.66667 0.0078125L5.33333 0.0078125L5.33333 2.67448C5.33333 4.14724 4.13943 5.34115 2.66667 5.34115C1.19391 5.34115 1.80361e-16 4.14724 0 2.67448C-6.2445e-16 1.20172 1.19391 0.0078125 2.66667 0.0078125Z" fill-rule="evenodd"  fill="#8484DD" >
</path>
<path d="M12.6031 3.34558L4.26953 24L6.60153 24C8.77654 24 10.7336 22.6792 11.5475 20.6622L19.881 0.0078125L17.549 0.0078125C15.374 0.0078125 13.4169 1.32857 12.6031 3.34558Z" fill-rule="evenodd"  fill="#8484DD" >
</path>
<path d="M14.205 14.0752L11.5473 20.6616C10.7334 22.6788 8.77469 23.9998 6.59774 23.9998L0.853692 23.9998C0.0431015 22.0246 0.988704 19.7669 2.96576 18.9571C3.43152 18.7663 3.93007 18.6682 4.43346 18.6682L6.42031 18.6682L6.4208 18.667C6.46842 18.6678 6.51612 18.6682 6.56393 18.6682C9.87604 18.6682 12.7531 16.8074 14.205 14.0752Z" fill-rule="evenodd"  fill="#06F0C6" >
</path>
<path d="M9.94873 9.92458L12.6066 3.33765C13.4204 1.3207 15.3775 3.99533e-16 17.5524 0L22.7663 0C23.5766 1.97446 22.6329 4.23195 20.6584 5.04225C20.1929 5.23331 19.6945 5.3316 19.1913 5.3316L17.7334 5.3316L17.7329 5.33276C17.6853 5.33199 17.6376 5.3316 17.5898 5.3316C14.2777 5.3316 11.4006 7.19236 9.94873 9.92458Z" fill-rule="evenodd"  fill="#06F0C6" >
</path>
<path d="M26.5805 5.44629L26.6363 5.56535C26.8424 5.94862 27.2443 6.19272 27.6865 6.19272L32.1676 6.19266L31.8446 6.99166L27.2043 6.99246L27.2601 7.11151C27.4663 7.49478 27.8682 7.73888 28.3104 7.73888L31.5436 7.73866L31.2216 8.53766L27.8281 8.53862L27.8839 8.65767C28.0901 9.04094 28.492 9.28505 28.9342 9.28505L30.9196 9.28466L30.5976 10.0847L28.452 10.0848L28.5078 10.2039C28.7139 10.5871 29.1158 10.8312 29.558 10.8312L30.2966 10.8307L29.9736 11.6307L29.0758 11.631L29.1316 11.75C29.2609 11.9903 29.467 12.1759 29.7118 12.2809L26.33 20.6625C25.5162 22.6795 23.5591 24.0003 21.384 24.0003L13.8221 24.0003L13.4505 23.095C12.7778 21.4558 13.5613 19.5816 15.2005 18.9089C15.587 18.7503 16.0008 18.6687 16.4186 18.6687L19.4035 18.6687C20.491 18.6687 21.4696 18.0083 21.8765 16.9998L26.5376 5.44629L26.5805 5.44629Z" fill-rule="evenodd"  fill="#8484DD" >
</path>
<path d="M40.0001 24L34.9313 24C34.4101 24 33.9412 23.6835 33.7462 23.2003L38.8151 23.2003C39.3362 23.2003 39.8051 23.5167 40.0001 24ZM39.3762 22.4538L34.3073 22.4538C33.7862 22.4538 33.3173 22.1374 33.1223 21.6541L38.1912 21.6541C38.7123 21.6541 39.1813 21.9706 39.3762 22.4538ZM38.7524 20.9077L33.6835 20.9077C33.1624 20.9077 32.6935 20.5912 32.4985 20.1079L37.5673 20.1079C38.0885 20.1079 38.5574 20.4244 38.7524 20.9077ZM38.1286 19.3615L33.0597 19.3615C32.5386 19.3615 32.0696 19.045 31.8747 18.5618L36.9435 18.5618C37.4646 18.5618 37.9336 18.8782 38.1286 19.3615ZM37.5047 17.8153L32.4359 17.8153C31.9148 17.8153 31.4458 17.4989 31.2508 17.0156L36.3197 17.0156C36.8408 17.0156 37.3098 17.3321 37.5047 17.8153ZM36.8809 16.2692L31.812 16.2692C31.2909 16.2692 30.822 15.9527 30.627 15.4694L35.6958 15.4694C36.217 15.4694 36.6859 15.7859 36.8809 16.2692ZM36.2571 14.723L31.1882 14.723C30.6671 14.723 30.1982 14.4066 30.0031 13.9233L35.072 13.9233C35.5931 13.9233 36.0621 14.2397 36.2571 14.723ZM35.6332 13.1769L30.5644 13.1769C30.0432 13.1769 29.5743 12.8604 29.3793 12.3771L34.4482 12.3771C34.9693 12.3771 35.4382 12.6936 35.6332 13.1769ZM35.0094 11.6307L29.9405 11.6307C29.4194 11.6307 28.9505 11.3142 28.7555 10.8309L33.8243 10.8309C34.3455 10.8309 34.8144 11.1474 35.0094 11.6307ZM34.3856 10.0845L29.3167 10.0845C28.7956 10.0845 28.3266 9.76808 28.1316 9.2848L33.2005 9.2848C33.7216 9.2848 34.1905 9.60125 34.3856 10.0845ZM33.7617 8.53837L28.6929 8.53837C28.1717 8.53837 27.7028 8.22191 27.5078 7.73863L32.5767 7.73863C33.0978 7.73863 33.5667 8.05509 33.7617 8.53837ZM33.1378 6.99221L28.0691 6.99221C27.5479 6.99221 27.079 6.67575 26.884 6.19247L31.9528 6.19247C32.4739 6.19247 32.9429 6.50893 33.1378 6.99221ZM32.514 5.44604L27.4452 5.44604C26.9241 5.44604 26.4551 5.12958 26.2602 4.6463L31.3289 4.6463C31.8501 4.6463 32.319 4.96276 32.514 5.44604ZM31.8902 3.89988L26.8213 3.89988C26.3002 3.89988 25.8313 3.58342 25.6363 3.10014L30.7051 3.10014C31.2262 3.10014 31.6952 3.41659 31.8902 3.89988ZM31.2663 2.35372L26.1975 2.35372C25.6764 2.35372 25.2075 2.03726 25.0125 1.55398L30.0813 1.55398C30.6024 1.55398 31.0714 1.87044 31.2663 2.35372ZM30.6425 0.807553L25.5737 0.807553C25.0526 0.807553 24.5836 0.491093 24.3887 0.0078125L29.4574 0.0078125C29.9786 0.0078125 30.4475 0.324273 30.6425 0.807553Z" fill-rule="evenodd"  fill="#9797CF" >
</path>
</svg>
