<svg xmlns="http://www.w3.org/2000/svg" xmlns:xlink="http://www.w3.org/1999/xlink" width="14" height="14" viewBox="0 0 14 14" fill="none">
<path d="M0 7C0 3.1402 3.1402 0 7 0C10.8598 0 14 3.1402 14 7C14 10.8598 10.8598 14 7 14C3.1402 14 0 10.8598 0 7ZM0.875 7C0.875 10.3768 3.6232 13.125 7 13.125C10.3768 13.125 13.125 10.3768 13.125 7C13.125 3.6232 10.3768 0.875 7 0.875C3.6232 0.875 0.875 3.6232 0.875 7ZM7.84396 2.5083C7.72759 2.39105 7.61063 2.3333 7.43564 2.3333L7.35397 2.3333L7.31897 2.34497L7.29564 2.34497L7.26064 2.35663L7.23731 2.3683L7.19064 2.39163L7.15564 2.4033L7.10898 2.42663L7.08565 2.44996L7.06231 2.4733L7.05065 2.48496L7.02731 2.5083C6.91094 2.62467 6.85232 2.74162 6.85232 2.91662L6.85232 2.99828L6.86398 3.03328L6.86398 3.05661L6.87565 3.09161L6.89898 3.13828L6.91065 3.16161L6.92232 3.19661L6.93398 3.21994L6.94565 3.24327L6.96898 3.26661L6.99231 3.28994L7.02731 3.32494L7.05065 3.34827L7.06231 3.35994L7.08565 3.38327L7.10898 3.4066L7.13231 3.41827L7.15564 3.42994L7.19064 3.4416L7.21397 3.45327L7.26064 3.4766L7.29564 3.48827L7.31897 3.48827L7.35397 3.49993L7.49397 3.49993L7.5173 3.48827L7.5523 3.48827L7.57563 3.4766L7.59896 3.46494L7.63396 3.46494L7.6573 3.45327L7.68063 3.4416L7.70396 3.42994L7.72729 3.4066L7.77396 3.38327L7.79729 3.35994L7.82062 3.34827L7.84396 3.32494C7.9612 3.20857 8.01895 3.09161 8.01895 2.91662C8.01895 2.74162 7.9612 2.62467 7.84396 2.5083ZM7.84396 4.66657C7.90258 4.3752 7.66867 4.02521 7.3773 3.96659C7.08594 3.90884 6.85203 4.08354 6.73565 4.37491L5.86068 8.98311C5.56844 11.0831 7.66838 10.7331 8.48561 9.15811C8.54335 9.09949 8.54394 9.04086 8.54394 8.98311C8.48619 8.98311 8.42757 8.92478 8.36894 8.92478C8.31119 8.92478 8.25228 8.98311 8.25228 8.98311C7.78592 9.74084 6.73565 10.4411 6.91065 9.44977C6.91065 9.39552 7.72992 5.24376 7.83229 4.7249L7.84396 4.66657Z" fill-rule="evenodd"  fill="#8484DD" >
</path>
</svg>
