<svg xmlns="http://www.w3.org/2000/svg" xmlns:xlink="http://www.w3.org/1999/xlink" width="126" height="100.377685546875" viewBox="0 0 126 100.377685546875" fill="none">
<g opacity="0.07">
<path d="M125.964 82.9504C125.964 78.7833 122.395 75.3412 117.673 74.6529C117.528 71.4642 114.463 68.9277 110.678 68.9277C106.821 68.9277 103.684 71.5729 103.684 74.8336C103.684 76.8992 104.91 78.6739 106.784 79.7257C106.784 79.761 106.749 79.7977 106.749 79.8337C95.5001 77.4787 79.4936 75.9934 61.7922 75.9934C49.3904 75.9934 37.8536 76.7177 28.1562 77.9496C27.7955 73.5657 23.5054 70.1603 18.2417 70.1603C13.1584 70.1603 9.01273 73.3483 8.39986 77.4787C5.91245 78.3844 4.14498 80.486 4.14498 82.9137C4.14498 83.2032 4.18161 83.4573 4.21754 83.7467C1.51386 85.1233 0 86.6093 0 88.1673C0 94.9062 27.6511 100.377 61.7922 100.377C95.6086 100.377 123.044 95.0149 123.584 88.348C125.062 86.9354 125.964 85.0153 125.964 82.9504Z"   fill="#F3F5FF" >
</path>
</g>
<g opacity="0.07">
<path d="M114.392 86.2105C114.392 89.4352 91.9321 92.0436 64.2085 92.0436C36.4841 92.0436 14.0242 89.4352 14.0242 86.2105C14.0242 82.9858 36.4841 80.3773 64.2085 80.3773C91.9321 80.3413 114.392 82.9498 114.392 86.2105Z"   fill="#F3F5FF" >
</path>
</g>
<path     fill="#565C7E"  d="M43.8489 16.3706L43.8489 9.70515C43.8489 7.7483 45.4346 6.1543 47.3817 6.1543L103.927 6.1543C105.874 6.1543 107.425 7.7483 107.425 9.70515L106.425 74.8856C106.425 76.8417 104.838 78.4364 102.927 78.4364L96.2582 78.4364">
</path>
<path d="M29.5877 2.55777L30.3584 1.78703C30.7667 1.37878 30.7738 0.717445 30.3655 0.309194C29.9573 -0.0990577 29.2889 -0.0990577 28.8806 0.309194L28.1099 1.07993L27.3745 0.344549C26.9643 -0.0656663 26.2998 -0.0656664 25.8896 0.344549C25.4794 0.754764 25.4794 1.41924 25.8896 1.82946L26.625 2.56484L25.8754 3.31437C25.4672 3.72262 25.4742 4.38396 25.8825 4.79221C26.2908 5.20046 26.945 5.20046 27.3533 4.79221L28.1028 4.04268L28.8382 4.77807C29.2484 5.18828 29.9129 5.18828 30.3231 4.77807C30.7333 4.36785 30.7333 3.70337 30.3231 3.29316L29.5877 2.55777ZM24.3854 42.3097C24.7936 41.9014 24.7936 41.233 24.3854 40.8248C23.9771 40.4165 23.3158 40.4236 22.9076 40.8318L21.4226 42.3168L19.9448 40.8389C19.5345 40.4286 18.8703 40.4286 18.4599 40.8389C18.0495 41.2493 18.0495 41.9135 18.4599 42.3238L19.9377 43.8017L18.4458 45.2936C18.0375 45.7019 18.0304 46.3632 18.4387 46.7715C18.8469 47.1797 19.5153 47.1797 19.9236 46.7715L21.4156 45.2795L22.8863 46.7503C23.2967 47.1606 23.9609 47.1606 24.3713 46.7503C24.7816 46.3399 24.7816 45.6757 24.3713 45.2654L22.9005 43.7946L24.3854 42.3097ZM120.427 46.2599L118.914 47.7731L120.399 49.258C120.802 49.6613 120.802 50.3113 120.399 50.7146C119.995 51.1179 119.346 51.1179 118.942 50.7146L117.457 49.2297L115.965 50.7217C115.557 51.1301 114.889 51.1301 114.48 50.7217C114.072 50.3133 114.079 49.6522 114.487 49.2439L115.979 47.7519L114.502 46.274C114.091 45.8637 114.091 45.1995 114.502 44.7891C114.912 44.3788 115.576 44.3788 115.987 44.7891L117.464 46.267L118.949 44.7821C119.358 44.3737 120.019 44.3666 120.427 44.775C120.835 45.1834 120.835 45.8515 120.427 46.2599Z" fill-rule="evenodd"  fill="#888A96" >
</path>
<path d="M107.433 77.9644C107.939 77.2041 108.191 76.3337 108.191 75.392L108.191 8.799C108.191 6.22657 106.1 4.125 103.541 4.125L47.7687 4.125C45.2087 4.125 43.1179 6.22657 43.1179 8.79829L43.1179 16.6459L45.2087 16.6459L45.2087 8.79829C45.2087 7.38572 46.3626 6.22657 47.7687 6.22657L103.54 6.22657C104.946 6.22657 106.1 7.38572 106.1 8.799L106.1 75.392C106.1 76.8053 104.946 77.9644 103.541 77.9644L95.6811 77.9644C95.1042 77.9644 94.6357 78.436 94.6357 79.0156C94.6357 79.305 94.7435 79.5592 94.9246 79.7766C95.1042 79.9573 95.393 80.1027 95.6452 80.1027L118.754 80.1027C119.332 80.1027 119.799 79.6312 119.799 79.0516C119.799 78.7621 119.692 78.472 119.475 78.2906C119.259 78.1099 119.043 77.9644 118.754 77.9644L107.433 77.9644Z"   fill="#888A96" >
</path>
<path d="M119.728 23.9794C119.729 24.7365 120.125 25.4377 120.773 25.8276C121.423 26.1898 122.214 26.1898 122.864 25.8276C123.513 25.4654 123.909 24.7404 123.909 23.9794C123.908 23.2226 123.511 22.5218 122.864 22.132C122.214 21.7698 121.423 21.7698 120.773 22.132C120.126 22.5218 119.729 23.2226 119.728 23.9794Z"   fill="#3D4363" >
</path>
<path d="M125.996 23.9761C125.996 25.0992 125.569 26.1851 124.776 26.9461C123.983 27.7071 122.933 28.1861 121.816 28.1861C120.11 28.1861 118.574 27.1576 117.926 25.5761C117.277 23.9814 117.635 22.1719 118.826 20.9761C120.031 19.7782 121.837 19.417 123.406 20.0661C124.992 20.7184 125.996 22.2734 125.996 23.9761ZM120.342 25.4618C119.733 24.855 119.547 23.9388 119.872 23.1418C120.192 22.3474 120.968 21.8418 121.822 21.8418C122.987 21.8713 123.916 22.8146 123.942 23.9818C123.942 24.8389 123.444 25.6076 122.652 25.9318C121.86 26.2579 120.955 26.0774 120.342 25.4618Z" fill-rule="evenodd"  fill="#888A96" >
</path>
<path d="M10.4915 17.4576C10.4903 19.1953 11.8936 20.6057 13.6277 20.6096C15.3617 20.6057 16.765 19.1953 16.7639 17.4576C16.7639 16.3352 16.151 15.2833 15.1782 14.7045C14.2126 14.1245 13.0068 14.1245 12.0412 14.7045C11.1043 15.2833 10.4915 16.3352 10.4915 17.4576Z"   fill="#3D4363" >
</path>
<path d="M15.5379 12.5658C17.5209 13.3635 18.8179 15.3168 18.8179 17.4558C18.8179 20.3176 16.5119 22.6738 13.6279 22.7458C11.4991 22.7797 9.56433 21.5178 8.72786 19.5558C7.89872 17.5989 8.32993 15.3238 9.80786 13.7658C11.2858 12.2078 13.5555 11.7688 15.5379 12.5658ZM11.2831 19.6276C10.418 18.7212 10.1687 17.3167 10.6731 16.1576C11.1813 14.9826 12.3457 14.2309 13.6231 14.2676C15.3532 14.3396 16.7231 15.7149 16.7231 17.4176C16.7231 18.7109 15.9424 19.8798 14.7431 20.3576C13.554 20.8284 12.1488 20.5333 11.2831 19.6276Z" fill-rule="evenodd"  fill="#888A96" >
</path>
<path d="M39.2962 17.1104L91.7876 17.1104C93.4459 17.1104 94.2743 17.9434 94.2743 19.6101L94.2743 85.7185C94.2743 87.3845 93.4459 88.2182 91.7876 88.2182L39.2962 88.2182C37.638 88.2182 36.8088 87.3852 36.8088 85.7185L36.8088 19.6101C36.8088 17.9441 37.638 17.1104 39.2962 17.1104Z"   fill="#61698B" >
</path>
<path d="M35.114 19.6288C35.114 18.6504 35.4786 17.7104 36.164 17.0588C36.8487 16.4065 37.7505 16.0088 38.724 16.0088L92.404 16.0088C94.3863 16.0088 96.0099 17.6359 95.974 19.6288L95.974 86.2988C95.9381 88.2916 94.3463 89.9188 92.364 89.9188L88.724 89.9188C88.5796 89.9541 88.4377 89.9541 88.294 89.9188L37.114 89.9188C36.0094 89.9188 35.114 89.0234 35.114 87.9188L35.114 19.6288ZM93.8753 19.6304L93.8753 86.2304C93.8753 87.0484 93.2215 87.7104 92.4053 87.7104L38.7153 87.7104C38.3116 87.7104 37.9241 87.5631 37.6353 87.2804C37.3547 87.0034 37.2053 86.6251 37.2053 86.2304L37.2053 19.6304C37.2053 18.7974 37.8855 18.1104 38.7153 18.1104L92.4053 18.1104C92.8019 18.1104 93.1931 18.2502 93.4453 18.5404C93.6975 18.8298 93.8753 19.2315 93.8753 19.6304Z" fill-rule="evenodd"  fill="#888A96" >
</path>
<path d="M72.4303 28.2541C72.4303 27.6738 71.9566 27.2041 71.3803 27.2041L46.1503 27.2041C45.5734 27.2041 45.1003 27.6738 45.1003 28.2541C45.1003 28.8336 45.5721 29.3041 46.1503 29.3041L71.3803 29.3041C71.9566 29.3041 72.4303 28.833 72.4303 28.2541ZM77.6903 35.4287C78.2695 35.4287 78.7403 35.8984 78.7403 36.4787C78.7403 37.059 78.2695 37.5287 77.6903 37.5287L46.1503 37.5287C45.8725 37.5287 45.6065 37.4158 45.4103 37.2187C45.2142 37.0216 45.1003 36.7571 45.1003 36.4787C45.1003 35.8991 45.5734 35.4287 46.1503 35.4287L77.6903 35.4287ZM68.2103 44.7395C68.2103 44.1599 67.7373 43.6895 67.1603 43.6895L46.1503 43.6895C45.5734 43.6895 45.1003 44.1599 45.1003 44.7395C45.1003 45.0179 45.2142 45.2824 45.4103 45.4795C45.6065 45.6766 45.8725 45.7895 46.1503 45.7895L67.1603 45.7895C67.7373 45.7895 68.2103 45.3191 68.2103 44.7395Z" fill-rule="evenodd"  fill="#888A96" >
</path>
<path d="M54.0419 74.0516C53.7531 74.0516 53.5009 73.9429 53.3206 73.7622C50.04 70.4655 50.04 65.1392 53.3206 61.8418C53.5009 61.6243 53.789 61.5156 54.0412 61.5156C54.3301 61.5156 54.5822 61.6243 54.7626 61.8418C54.9788 62.0232 55.0866 62.3126 55.0866 62.6028C55.0866 62.8922 54.9788 63.1463 54.7626 63.3638C52.3111 65.8275 52.3111 69.8132 54.7626 72.3129C55.0514 72.6023 55.1592 73.0739 54.9788 73.4721C54.8344 73.7615 54.4378 74.0156 54.0419 74.0516Z"   fill="#9499B5" >
</path>
<path d="M69.7996 78.1805C70.4592 78.0677 71.1288 78.284 71.5996 78.7605L84.8996 92.1305C85.4765 92.7468 85.6536 93.6128 85.3296 94.4105C85.0013 95.1979 84.2412 95.7205 83.3896 95.7205C82.8486 95.7205 82.3062 95.4987 81.9096 95.1005L68.7096 81.7305C68.1334 81.1502 67.9608 80.2515 68.2496 79.4905L67.7096 78.8705C61.7246 83.3271 53.2804 82.2444 48.6296 76.4105C43.9788 70.5774 44.736 62.0626 50.3596 57.1705C55.9839 52.2798 64.4563 52.7095 69.5396 58.1805C74.6222 63.6515 74.5232 72.1649 69.2596 77.4905L69.7996 78.1805ZM70.9824 67.9611C70.9824 74.3738 65.8333 79.5611 59.4524 79.5611C53.0715 79.5244 47.9124 74.3385 47.9124 67.9611C47.9124 61.5484 53.0715 56.3711 59.4524 56.3711C65.8333 56.3711 70.9824 61.5484 70.9824 67.9611Z" fill-rule="evenodd"  fill="#9499B5" >
</path>
</svg>
