<svg xmlns="http://www.w3.org/2000/svg" xmlns:xlink="http://www.w3.org/1999/xlink" width="12" height="12" viewBox="0 0 12 12" fill="none">
<path d="M6 0C2.6916 0 0 2.6916 0 6C0 9.3084 2.6916 12 6 12C9.3084 12 12 9.3084 12 6C12 2.6916 9.3084 0 6 0ZM6 11.25C3.1056 11.25 0.75 8.8944 0.75 6C0.75 3.1056 3.1056 0.75 6 0.75C8.8944 0.75 11.25 3.1056 11.25 6C11.25 8.8944 8.8944 11.25 6 11.25ZM5.9472 8.4024C5.772 8.4024 5.6352 8.4516 5.5284 8.568C5.4108 8.6748 5.3532 8.8116 5.3532 8.9772C5.3532 9.14281 5.412 9.2796 5.5284 9.396C5.6352 9.5028 5.772 9.5616 5.9472 9.5616C6.1032 9.5616 6.2496 9.5028 6.366 9.396C6.4728 9.2892 6.5316 9.1524 6.5316 8.9772C6.5316 8.8116 6.4728 8.6748 6.366 8.568C6.2484 8.4516 6.1128 8.4024 5.9472 8.4024ZM6.0828 2.4636C5.3904 2.4636 4.8444 2.7408 4.4448 3.1704C4.0644 3.5796 3.87 4.128 3.87 4.872L4.65 4.872C4.65 4.128 4.7568 3.9612 4.962 3.6876C5.2056 3.366 5.5668 3.1788 6.0444 3.1788C6.4536 3.1788 6.7752 3.27 7.0092 3.504C7.224 3.7188 7.3308 4.0128 7.3308 4.4028C7.3308 4.6752 7.2336 4.9248 7.0476 5.1696C6.9792 5.2476 6.8724 5.3628 6.7164 5.5188C6.1896 5.9868 5.8872 6.3564 5.76 6.6492C5.6328 6.8928 5.604 7.1748 5.604 7.4964L5.604 7.872L6.348 7.872L6.348 7.4952C6.348 7.2324 6.4008 6.9876 6.528 6.7728C6.6252 6.5976 6.7692 6.4224 6.9732 6.246C7.4028 5.8656 7.674 5.6124 7.7712 5.4948C8.0052 5.1732 8.1312 4.7928 8.1312 4.3536C8.1312 3.7692 7.9452 3.3108 7.5852 2.9784C7.2144 2.6304 6.7068 2.4636 6.0828 2.4636Z"   fill="#8484DD" >
</path>
</svg>
