<svg xmlns="http://www.w3.org/2000/svg" xmlns:xlink="http://www.w3.org/1999/xlink" width="12" height="12" viewBox="0 0 12 12" fill="none">
<path d="M6 12C2.69134 12 0 9.30866 0 6C0 2.69134 2.69134 0 6 0C9.30866 0 12 2.69134 12 6C12 9.30866 9.30866 12 6 12ZM5.9986 0.8486C8.83885 0.8486 11.1486 3.15835 11.1486 5.9986C11.1486 8.83885 8.83885 11.1486 5.9986 11.1486C3.15835 11.1486 0.8486 8.83885 0.8486 5.9986C0.8486 3.15835 3.15835 0.8486 5.9986 0.8486Z" fill-rule="evenodd"  fill="#F87746" >
</path>
<path d="M5.57617 3.00293L6.425 3.00293L6.425 7.62206L5.57617 7.62206L5.57617 3.00293Z"   fill="#F87746" >
</path>
<path d="M5.94249 9.67002C6.15186 9.69076 6.35639 9.59822 6.47902 9.42727C6.60166 9.25632 6.62378 9.03293 6.53705 8.84125C6.45032 8.64957 6.26792 8.51872 6.05855 8.49799C5.84918 8.47725 5.64466 8.56979 5.52202 8.74074C5.39938 8.91169 5.37726 9.13508 5.46399 9.32677C5.55072 9.51845 5.73313 9.6493 5.94249 9.67002Z"   fill="#F87746" >
</path>
</svg>
