<svg xmlns="http://www.w3.org/2000/svg" xmlns:xlink="http://www.w3.org/1999/xlink" width="6.0029296875" height="6.00390625" viewBox="0 0 6.0029296875 6.00390625" fill="none">
<path d="M5.71996 0.283462C6.0953 0.658807 6.0953 1.26736 5.71996 1.64271L4.36139 3.00127L5.71996 4.3612C6.0953 4.73654 6.0953 5.3451 5.71996 5.72044C5.34461 6.09579 4.73606 6.09579 4.36071 5.72044L3.00214 4.36052L1.64222 5.72044C1.26687 6.09579 0.658319 6.09579 0.282974 5.72044C-0.0923715 5.3451 -0.0923715 4.73654 0.282974 4.3612L1.6429 3.00127L0.282974 1.64271C-0.0923715 1.26736 -0.0923715 0.658807 0.282974 0.283462C0.658319 -0.0918832 1.26687 -0.0918832 1.64222 0.283462L3.00214 1.64203L4.36071 0.283462C4.73606 -0.0918832 5.34461 -0.0918832 5.71996 0.283462Z"   fill="#9DA9B5" >
</path>
</svg>
