<svg xmlns="http://www.w3.org/2000/svg" xmlns:xlink="http://www.w3.org/1999/xlink" width="625" height="630" viewBox="0 0 625 630" fill="none">
<g opacity="0.5">
<g filter="url(#filter_51_6)">
<circle cx="485" cy="490" r="70"   fill="#FFC54A" >
</circle>
</g>
</g>
<g opacity="0.6">
<g filter="url(#filter_51_5)">
<circle cx="284" cy="120" r="60"   fill="#06F0C6" >
</circle>
</g>
</g>
<g opacity="0.2">
<g filter="url(#filter_wVg1aY64ddCihnjc54GiB)">
<path d="M265.348 502.87C193.416 502.87 132.746 449.138 113.903 375.729L113.903 375.729C113.251 373.188 110.961 371.412 108.338 371.411L86 371.41C74.954 371.41 66 362.456 66 351.41C66 346.974 67.475 342.664 70.192 339.158L140.944 247.874C144.327 243.509 150.609 242.713 154.974 246.096C155.639 246.612 156.236 247.209 156.752 247.874L227.503 339.158C234.27 347.889 232.678 360.452 223.947 367.218C220.441 369.936 216.131 371.41 211.695 371.41L180.597 371.411C179.113 371.412 177.909 372.615 177.909 374.099C177.909 374.48 177.99 374.856 178.147 375.203L178.147 375.203C201.757 427.614 245.85 462.87 296.348 462.87C318.198 462.87 338.85 456.269 357.161 444.533C359.989 442.721 366.95 440.181 371.536 444.042C376.122 447.903 373.647 454.53 370.301 458.228C344.143 487.132 305.664 502.87 265.348 502.87Z" fill-rule="evenodd"  fill="#E8FFFB" >
</path>
</g>
</g>
<g opacity="0.2">
<g filter="url(#filter_qUY0f6JVF5oE32h-Cdwdj)">
<path d="M375.699 129C447.631 129 508.301 182.732 527.144 256.141L527.144 256.141C527.796 258.682 530.086 260.459 532.709 260.459L555.047 260.46C566.093 260.46 575.047 269.414 575.047 280.46C575.047 284.896 573.572 289.206 570.855 292.712L500.103 383.996C496.72 388.361 490.438 389.157 486.073 385.774C485.408 385.258 484.811 384.661 484.295 383.996L413.544 292.712C406.777 283.981 408.369 271.418 417.1 264.652C420.606 261.934 424.916 260.46 429.352 260.46L460.45 260.459C461.934 260.458 463.138 259.255 463.138 257.771C463.138 257.39 463.057 257.014 462.9 256.667L462.9 256.667C439.29 204.256 395.197 169 344.699 169C322.849 169 302.197 175.601 283.886 187.337C281.058 189.149 274.097 191.689 269.511 187.828C264.925 183.967 267.4 177.34 270.746 173.642C296.904 144.738 335.383 129 375.699 129Z" fill-rule="evenodd"  fill="#E8FFFB" >
</path>
</g>
</g>
<circle cx="226.21972548370127" cy="259.43163954620127" transform="rotate(-15.000000120055857 146.2197265625 179.431640625)" r="79.99999892120128"   fill="#F7931A" >
</circle>
<g mask="url(#mask-TYuq16Kk7_uT1BW0ops0w)" opacity="0.7">
<g filter="url(#filter_UDAg2Uz29JOOedrHcb5lx)">
<path d="M223.494 158.726C226.138 158.017 228.788 157.45 231.434 157.019C188.584 173.013 164.264 219.894 176.546 265.731C179.45 276.57 184.156 286.437 190.246 295.085C179.327 285.129 171.033 272.037 166.925 256.706C155.49 214.028 180.816 170.161 223.494 158.726Z" fill-rule="evenodd"  fill="#BD3200" >
</path>
</g>
</g>
<g mask="url(#mask-V9ePX9hX2QMvFwBJOJ2fR)" opacity="0.3">
<g filter="url(#filter_N1lCZ7aBBIM-AWswA-mxg)">
<path d="M185.55 248.568C195.494 285.678 233.639 307.701 270.75 297.757C276.111 296.321 281.158 294.295 285.839 291.77C279.355 296.319 271.978 299.829 263.884 301.998C226.773 311.941 188.628 289.919 178.684 252.808C170.178 221.063 185.064 188.56 212.776 173.602C189.54 189.911 177.777 219.556 185.55 248.568Z" fill-rule="evenodd"  fill="#FFFFFF" >
</path>
</g>
</g>
<g mask="url(#mask-g7pVBnn8nYMjawSieVnCc)" opacity="0.8">
<g filter="url(#filter_nC161r_2w8SpIwPBXra6E)">
<path d="M248.482 156.969C281.846 158.875 311.705 181.825 320.827 215.868C327.244 239.82 322.027 264.148 308.639 282.851C316.202 263.301 317.977 241.07 312.668 221.255C304.747 191.694 278.652 166.679 248.686 157.033L248.482 156.969Z" fill-rule="evenodd"  fill="#A15F10" >
</path>
</g>
</g>
<g mask="url(#mask-xrN63hQqSk-xbxt3AIC0b)" opacity="0.8">
<g filter="url(#filter_SaZ6a555XNTowyTcAqxnP)">
<path d="M321.153 214.133L321.473 215.295C332.909 257.972 307.582 301.839 264.905 313.274C222.228 324.71 178.361 299.383 166.925 256.706C166.821 256.317 166.72 255.928 166.622 255.538L166.325 254.466C176.877 293.845 220.027 316.497 262.704 305.062C304.993 293.731 330.948 253.182 321.153 214.133ZM223.494 158.726C255.924 150.037 289.04 162.574 308.092 187.822C289.627 164.763 256.924 153.77 224.494 162.459C192.064 171.149 169.239 197.021 164.778 226.223C168.653 194.832 191.064 167.416 223.494 158.726Z" fill-rule="evenodd"  fill="url(#linear_fill_SaZ6a555XNTowyTcAqxnP)" >
</path>
</g>
</g>
<g filter="url(#filter_XGYYAM-G6zh_pEoh0cUo9)">
<path d="M265.439 209.99C268.399 215.637 267.962 220.663 264.128 225.069C268.283 224.443 271.789 224.962 274.647 226.627C277.505 228.292 279.63 231.455 281.024 236.118C281.725 238.504 282.015 240.736 281.894 242.815C281.773 244.894 281.31 246.754 280.504 248.395C279.697 250.037 278.508 251.617 276.937 253.135C275.365 254.654 273.623 256.006 271.71 257.193C269.797 258.379 267.539 259.574 264.935 260.775L269.18 271.282C269.594 272.307 269.099 273.472 268.075 273.886L264.303 275.41C263.278 275.824 262.113 275.33 261.699 274.305L257.532 263.992C254.941 265.039 252.959 265.821 251.586 266.338L255.772 276.7C256.186 277.724 255.691 278.889 254.667 279.303L250.894 280.827C249.87 281.241 248.705 280.747 248.291 279.722L244.046 269.215C243.463 269.451 242.585 269.796 241.413 270.251C240.24 270.707 239.346 271.058 238.731 271.307L231.21 274.345C230.186 274.759 229.02 274.264 228.607 273.24C228.565 273.136 228.532 273.029 228.507 272.919L227.298 267.402C227.089 266.45 227.598 265.485 228.503 265.12L232.329 263.574C233.948 262.92 234.555 261.716 234.148 259.963L226.274 240.475L227.052 240.161C226.844 240.207 226.579 240.296 226.255 240.427L220.634 226.514C219.325 224.487 217.439 223.97 214.978 224.965L211.44 226.394C210.416 226.808 209.25 226.313 208.836 225.289L207.126 221.056C206.712 220.032 207.207 218.866 208.231 218.453C208.234 218.452 208.237 218.45 208.24 218.449L216.692 215.081C218.765 214.243 220.329 213.592 221.385 213.128L217.199 202.766C216.785 201.742 217.28 200.577 218.304 200.163L222.076 198.639C223.1 198.225 224.266 198.72 224.68 199.744L228.768 209.863C231.398 208.725 233.361 207.895 234.656 207.371L230.607 197.349C230.193 196.325 230.688 195.159 231.712 194.746L235.485 193.221C236.509 192.807 237.675 193.302 238.088 194.326L242.275 204.688C244.925 203.881 247.339 203.328 249.517 203.031C251.695 202.734 253.818 202.722 255.888 202.994C257.957 203.267 259.802 203.988 261.423 205.156C263.045 206.325 264.383 207.936 265.439 209.99ZM263.686 237.822C262.835 237.113 261.935 236.612 260.988 236.318C260.04 236.025 258.91 235.908 257.597 235.968C256.284 236.029 255.103 236.159 254.053 236.357C253.003 236.556 251.746 236.895 250.281 237.374C248.817 237.852 247.68 238.255 246.871 238.582C246.061 238.909 245.023 239.348 243.757 239.897C242.49 240.446 241.728 240.773 241.469 240.878L248.089 257.263C248.348 257.158 248.95 256.924 249.896 256.56C250.842 256.198 251.622 255.891 252.237 255.642C252.853 255.394 253.701 255.023 254.783 254.53C255.865 254.037 256.786 253.589 257.547 253.188C258.308 252.787 259.175 252.276 260.149 251.656C261.124 251.038 261.931 250.448 262.571 249.889C263.212 249.329 263.844 248.679 264.468 247.939C265.091 247.198 265.535 246.455 265.799 245.709C266.063 244.963 266.198 244.157 266.206 243.289C266.213 242.421 266.034 241.535 265.668 240.63C265.198 239.467 264.538 238.531 263.686 237.822ZM251.143 216.358C250.406 215.698 249.637 215.219 248.839 214.921C248.041 214.623 247.08 214.485 245.959 214.506C244.837 214.527 243.839 214.62 242.964 214.786C242.089 214.951 241.04 215.224 239.819 215.605C238.598 215.986 237.642 216.325 236.953 216.622C236.263 216.919 235.395 217.289 234.349 217.73C233.303 218.172 232.666 218.438 232.44 218.53L238.453 233.412C238.614 233.347 239.176 233.129 240.138 232.759C241.1 232.389 241.853 232.085 242.397 231.847C242.941 231.608 243.738 231.249 244.787 230.768C245.836 230.288 246.691 229.839 247.351 229.422C248.012 229.005 248.774 228.49 249.638 227.878C250.502 227.266 251.166 226.65 251.632 226.029C252.097 225.409 252.52 224.731 252.9 223.994C253.281 223.258 253.467 222.459 253.458 221.598C253.449 220.737 253.262 219.854 252.896 218.949C252.465 217.882 251.881 217.019 251.143 216.358Z"   fill="#FFE5C6" >
</path>
</g>
<circle cx="347.69921875" cy="331.5" r="103.5"   fill="#8484DD" >
</circle>
<g mask="url(#mask-6AUBGX070dwqiAZObqU-t)" opacity="0.7">
<g filter="url(#filter_3CU8sJJCZyFGu24a6TM6a)">
<path d="M347.699 228C351.24 228 354.74 228.178 358.19 228.525C299.288 234.166 253.199 284.608 253.199 346C253.199 360.517 255.776 374.422 260.49 387.266C250.179 371.172 244.199 352.034 244.199 331.5C244.199 274.339 290.538 228 347.699 228Z" fill-rule="evenodd"  fill="#2C2CA4" >
</path>
</g>
</g>
<g mask="url(#mask-Py746TsastY2NYx5y3ql8)" opacity="0.3">
<g filter="url(#filter_KRh8Mwobi4gmC-S7KbOlC)">
<path d="M270.199 327.567C270.199 377.273 310.494 417.567 360.199 417.567C367.383 417.567 374.371 416.726 381.068 415.135C371.44 418.649 361.044 420.567 350.199 420.567C300.494 420.567 260.199 380.273 260.199 330.567C260.199 288.044 289.69 252.409 329.335 242.998C294.831 255.595 270.199 288.704 270.199 327.567Z" fill-rule="evenodd"  fill="#F8F8FF" >
</path>
</g>
</g>
<g mask="url(#mask-8KXAnWb7ovAZ2caelz7S1)" opacity="0.8">
<g filter="url(#filter_rsonD4v3_64SPOMUHP0gT)">
<path d="M379.515 234.171C420.571 247.726 450.2 286.403 450.2 332C450.2 364.082 435.533 392.738 412.538 411.628C428.537 389.728 438.2 362.541 438.2 336C438.2 296.407 413.967 256.408 379.748 234.321L379.515 234.171Z" fill-rule="evenodd"  fill="#151562" >
</path>
</g>
</g>
<g mask="url(#mask-Mb2WeIWRHAeiw-dIcIy9g)" opacity="0.8">
<g filter="url(#filter_pZHQU-i6Zv7JkW2f6HlbO)">
<path d="M451.187 329.939L451.199 331.5C451.199 388.661 404.86 435 347.699 435C290.538 435 244.199 388.661 244.199 331.5C244.199 330.979 244.203 330.459 244.211 329.939L244.199 328.5C244.199 381.243 290.538 424 347.699 424C404.34 424 450.353 382.019 451.187 329.939ZM347.699 228C391.137 228 428.325 254.759 443.677 292.692C428.325 257.691 391.137 233 347.699 233C304.262 233 267.074 257.691 251.721 292.691C267.074 254.759 304.262 228 347.699 228Z" fill-rule="evenodd"  fill="url(#linear_fill_pZHQU-i6Zv7JkW2f6HlbO)" >
</path>
</g>
</g>
<path d="M199.348 507.87C127.416 507.87 66.746 454.138 47.903 380.729L47.903 380.729C47.251 378.188 44.961 376.411 42.338 376.411L20 376.41C8.95401 376.41 0 367.456 0 356.41C0 351.974 1.47501 347.664 4.19199 344.158L74.944 252.874C78.327 248.509 84.609 247.713 88.974 251.096C89.639 251.612 90.236 252.209 90.752 252.874L161.503 344.158C168.27 352.889 166.678 365.452 157.947 372.218C154.441 374.936 150.131 376.41 145.695 376.41L114.597 376.411C113.113 376.412 111.909 377.615 111.909 379.099C111.909 379.48 111.99 379.856 112.147 380.203L112.147 380.203C135.757 432.615 179.85 467.87 230.348 467.87C252.198 467.87 272.85 461.269 291.161 449.534C293.989 447.721 300.95 445.181 305.536 449.042C310.122 452.903 307.647 459.531 304.301 463.228C278.143 492.132 239.664 507.87 199.348 507.87Z" fill-rule="evenodd"  fill="url(#linear_fill_iNlkfrBKketG0A-JqRNvx)" >
</path>
<g mask="url(#mask-8NNvnxjf4BLWRAE15lU7Z)">
<g filter="url(#filter_51_22)">
<path    stroke="rgba(19, 23, 92, 1)" stroke-width="9"    d="M38.0123 284.5C31.5123 299 -2.48773 343.5 1.51227 360.5C5.51227 377.5 29.004 377 43.0023 386">
</path>
</g>
</g>
<g mask="url(#mask-8NNvnxjf4BLWRAE15lU7Z)" opacity="0.9">
<g filter="url(#filter_9Fv-Ni-AunjlHnWia_LPw)">
<path d="M79.5148 265.288C80.8628 262.879 74.8698 259.46 72.6178 261.403C70.3667 263.345 9.05972 342.87 8.14072 345.436C7.22072 348.002 13.8827 351.377 16.5637 347.233C19.2447 343.089 78.1657 267.696 79.5148 265.288Z" fill-rule="evenodd"  fill="#18188C" >
</path>
</g>
</g>
<g mask="url(#mask-8NNvnxjf4BLWRAE15lU7Z)">
<g filter="url(#filter_51_19)">
<path    stroke="rgba(255, 255, 255, 1)" stroke-width="5"    d="M84.5 251.5C127 311 198.5 376.5 135.5 373">
</path>
</g>
</g>
<g mask="url(#mask-8NNvnxjf4BLWRAE15lU7Z)">
<g filter="url(#filter_51_21)">
<path    stroke="rgba(18, 84, 75, 1)" stroke-width="10"    d="M44.9982 379.5C56 447 191.498 586.5 305.998 457">
</path>
</g>
</g>
<g mask="url(#mask-8NNvnxjf4BLWRAE15lU7Z)">
<g filter="url(#filter_51_20)">
<path    stroke="rgba(255, 255, 255, 1)" stroke-width="7"    d="M112.5 380.5C120 400 137.5 434.5 170.5 454C203.5 473.5 245.5 477 286.5 455.5">
</path>
</g>
</g>
<g mask="url(#mask-W5DmaVEoF0nKzZaDHVfZb)">
<g filter="url(#filter_bQ7nlEy_CGZnTJNh_BvT0)">
<path d="M302.037 458.007C298.847 462.394 262.688 489.075 230.593 490.051C198.497 491.027 156.271 490.042 135.756 475.786C115.241 461.531 137.757 455.358 162.308 464.546C186.859 473.733 202.355 477.042 227.848 477.042C253.341 477.042 268.882 472.167 283.151 461.531C297.421 450.894 305.228 453.62 302.037 458.007Z" fill-rule="evenodd"  fill="url(#linear_fill_bQ7nlEy_CGZnTJNh_BvT0)" >
</path>
</g>
</g>
<path d="M398.702 83C470.634 83 531.304 136.732 550.147 210.141L550.147 210.141C550.799 212.682 553.089 214.459 555.712 214.459L578.05 214.46C589.096 214.46 598.05 223.414 598.05 234.46C598.05 238.896 596.575 243.206 593.858 246.712L523.106 337.996C519.723 342.361 513.441 343.157 509.076 339.774C508.411 339.258 507.814 338.661 507.298 337.996L436.547 246.712C429.78 237.981 431.372 225.418 440.103 218.652C443.609 215.934 447.919 214.46 452.355 214.46L483.453 214.459C484.937 214.458 486.141 213.255 486.141 211.771C486.141 211.39 486.06 211.014 485.903 210.667L485.903 210.667C462.293 158.255 418.2 123 367.702 123C345.852 123 325.2 129.601 306.889 141.337C304.061 143.149 297.1 145.689 292.514 141.828C287.928 137.967 290.403 131.34 293.749 127.642C319.907 98.7377 358.386 83 398.702 83Z" fill-rule="evenodd"  fill="url(#linear_fill_51_25)" >
</path>
<g mask="url(#mask-51_27)">
<g filter="url(#filter_51_29)">
<path    stroke="rgba(19, 23, 92, 1)" stroke-width="9"    d="M560.038 306.37C566.538 291.87 600.538 247.37 596.538 230.37C592.538 213.37 569.046 213.87 555.048 204.87">
</path>
</g>
</g>
<g mask="url(#mask-51_27)" opacity="0.9">
<g filter="url(#filter_51_30)">
<path d="M520.535 321.582C519.187 323.991 525.18 327.41 527.432 325.467C529.683 323.525 590.99 244 591.909 241.434C592.829 238.868 586.167 235.493 583.486 239.637C580.805 243.781 521.884 319.174 520.535 321.582Z" fill-rule="evenodd"  fill="#18188C" >
</path>
</g>
</g>
<g mask="url(#mask-51_27)">
<g filter="url(#filter_51_31)">
<path    stroke="rgba(255, 255, 255, 1)" stroke-width="5"    d="M513.55 339.37C471.05 279.87 399.55 214.37 462.55 217.87">
</path>
</g>
</g>
<g mask="url(#mask-51_27)">
<g filter="url(#filter_51_32)">
<path    stroke="rgba(18, 84, 75, 1)" stroke-width="10"    d="M553.052 211.37C542.05 143.87 406.552 4.37012 292.052 133.87">
</path>
</g>
</g>
<g mask="url(#mask-51_27)">
<g filter="url(#filter_51_33)">
<path    stroke="rgba(255, 255, 255, 1)" stroke-width="7"    d="M485.55 210.37C478.05 190.87 460.55 156.37 427.55 136.87C394.55 117.37 352.55 113.87 311.55 135.37">
</path>
</g>
</g>
<g mask="url(#mask-51_35)">
<g filter="url(#filter_51_37)">
<path d="M296.013 132.863C299.203 128.476 335.362 101.795 367.457 100.819C399.553 99.8432 441.779 100.829 462.294 115.084C482.809 129.339 460.293 135.512 435.742 126.324C411.191 117.137 395.695 113.828 370.202 113.828C344.709 113.828 329.168 118.703 314.899 129.339C300.629 139.976 292.822 137.251 296.013 132.863Z" fill-rule="evenodd"  fill="url(#linear_fill_51_37)" >
</path>
</g>
</g>
<g filter="url(#filter_9dBup6P9AbECb-SnuwlfW)">
<path d="M383.335 280.688L303.146 294.827C302.058 295.019 301.332 296.056 301.524 297.144L304.426 313.603C304.617 314.691 305.654 315.418 306.743 315.226L333.819 310.451C334.907 310.26 335.944 310.986 336.136 312.074L338.138 323.431C313.125 329.002 295.009 337.282 296.053 343.202C297.097 349.122 316.952 350.708 342.363 347.388L349.557 388.187C349.749 389.275 350.785 390.001 351.874 389.809L370.032 386.607C371.12 386.415 371.847 385.378 371.655 384.29L364.459 343.482C389.372 337.91 407.392 329.655 406.352 323.753C405.311 317.851 385.554 316.255 360.238 319.543L358.234 308.176C358.042 307.089 358.768 306.051 359.856 305.859L386.931 301.085C388.02 300.893 388.746 299.857 388.554 298.768L385.652 282.31C385.46 281.222 384.423 280.496 383.335 280.688ZM363.558 338.372L362.287 338.653L362.145 338.678L360.951 338.934L360.821 338.957C359.933 339.145 359.033 339.33 358.12 339.512L358.064 339.522L356.84 339.764L356.493 339.825L355.525 340.009L349.387 341.092L348.426 341.248L348.092 341.307L346.941 341.484L346.815 341.507C345.452 341.716 344.106 341.911 342.779 342.092L342.762 342.095L341.44 342.271C321.359 344.89 306.006 344.219 305.316 340.307C304.626 336.395 318.827 330.522 338.59 326.106L340.771 338.478C344.261 338.048 347.957 337.496 351.772 336.824C355.648 336.14 359.384 335.379 362.868 334.572L360.695 322.247C380.697 319.652 395.954 320.331 396.641 324.223C397.327 328.117 383.223 333.971 363.558 338.372Z"   fill="#DDDDFF" >
</path>
</g>
<g filter="url(#filter_w37mQZTY-xYQi7Ip_ug2t)">
</g>
<defs>
<filter id="filter_51_6" x="345" y="350" width="280" height="280" filterUnits="userSpaceOnUse" color-interpolation-filters="sRGB">
<feGaussianBlur result="gaussian_blur_51_6" stdDeviation="35"/>
</filter>
<filter id="filter_51_5" x="164" y="0" width="240" height="240" filterUnits="userSpaceOnUse" color-interpolation-filters="sRGB">
<feGaussianBlur result="gaussian_blur_51_5" stdDeviation="30"/>
</filter>
<filter id="filter_wVg1aY64ddCihnjc54GiB" x="36" y="214" width="368.0469970703125" height="318.8701171875" filterUnits="userSpaceOnUse" color-interpolation-filters="sRGB">
<feGaussianBlur result="gaussian_blur_wVg1aY64ddCihnjc54GiB" stdDeviation="15"/>
</filter>
<filter id="filter_qUY0f6JVF5oE32h-Cdwdj" x="237" y="99" width="368.0469970703125" height="318.870361328125" filterUnits="userSpaceOnUse" color-interpolation-filters="sRGB">
<feGaussianBlur result="gaussian_blur_qUY0f6JVF5oE32h-Cdwdj" stdDeviation="15"/>
</filter>
<mask id="mask-TYuq16Kk7_uT1BW0ops0w" style="mask-type:alpha" maskUnits="userSpaceOnUse">
<circle cx="226.21972548370127" cy="259.43163954620127" transform="rotate(-15.000000120055857 146.2197265625 179.431640625)" r="79.99999892120128"   fill="#000000" >
</circle>
</mask>
<filter id="filter_UDAg2Uz29JOOedrHcb5lx" x="151.81229359937504" y="144.65189320875015" width="91.98857198093742" height="162.7997292074997" filterUnits="userSpaceOnUse" color-interpolation-filters="sRGB">
<feGaussianBlur result="gaussian_blur_UDAg2Uz29JOOedrHcb5lx" stdDeviation="6.18357488"/>
</filter>
<mask id="mask-V9ePX9hX2QMvFwBJOJ2fR" style="mask-type:alpha" maskUnits="userSpaceOnUse">
<circle cx="226.21972548370127" cy="259.43163954620127" transform="rotate(-15.000000120055857 146.2197265625 179.431640625)" r="79.99999892120128"   fill="#000000" >
</circle>
</mask>
<filter id="filter_N1lCZ7aBBIM-AWswA-mxg" x="168.56728432968748" y="165.87209390000044" width="125.00068524687504" height="146.24287274687458" filterUnits="userSpaceOnUse" color-interpolation-filters="sRGB">
<feGaussianBlur result="gaussian_blur_N1lCZ7aBBIM-AWswA-mxg" stdDeviation="3.8647343"/>
</filter>
<mask id="mask-g7pVBnn8nYMjawSieVnCc" style="mask-type:alpha" maskUnits="userSpaceOnUse">
<circle cx="226.21972548370127" cy="259.43163954620127" transform="rotate(-15.000000120055857 146.2197265625 179.431640625)" r="79.99999892120128"   fill="#000000" >
</circle>
</mask>
<filter id="filter_nC161r_2w8SpIwPBXra6E" x="242.29872492468746" y="150.78517511999962" width="87.44405405687496" height="138.2499622600003" filterUnits="userSpaceOnUse" color-interpolation-filters="sRGB">
<feGaussianBlur result="gaussian_blur_nC161r_2w8SpIwPBXra6E" stdDeviation="3.09178744"/>
</filter>
<mask id="mask-xrN63hQqSk-xbxt3AIC0b" style="mask-type:alpha" maskUnits="userSpaceOnUse">
<circle cx="226.21972548370127" cy="259.43163954620127" transform="rotate(-15.000000120055857 146.2197265625 179.431640625)" r="79.99999892120128"   fill="#000000" >
</circle>
</mask>
<linearGradient id="linear_fill_SaZ6a555XNTowyTcAqxnP" x1="223.4937744140625" y1="158.72607421875" x2="264.90478515625" y2="313.274169921875" gradientUnits="userSpaceOnUse">
<stop offset="0" stop-color="#FFFFFF"  />
<stop offset="1" stop-color="#FFFFFF" stop-opacity="0.7" />
</linearGradient>
<filter id="filter_SaZ6a555XNTowyTcAqxnP" x="158.5940740457812" y="149.79689386999962" width="171.8087391154687" height="172.4067005412503" filterUnits="userSpaceOnUse" color-interpolation-filters="sRGB">
<feGaussianBlur result="gaussian_blur_SaZ6a555XNTowyTcAqxnP" stdDeviation="3.09178744"/>
</filter>
<filter id="filter_XGYYAM-G6zh_pEoh0cUo9" x="199.71246337890625" y="184.8076171875" width="95.30230712890625" height="108.43359375" filterUnits="userSpaceOnUse" color-interpolation-filters="sRGB">
<feFlood flood-opacity="0" result="feFloodId_XGYYAM-G6zh_pEoh0cUo9"/>
<feColorMatrix in="SourceAlpha" type="matrix" values="0 0 0 0 0 0 0 0 0 0 0 0 0 0 0 0 0 0 127 0" result="hardAlpha_XGYYAM-G6zh_pEoh0cUo9"/>
<feOffset dx="3" dy="2"/>
<feGaussianBlur stdDeviation="5"/>
<feComposite in2="hardAlpha_XGYYAM-G6zh_pEoh0cUo9" operator="out"/>
<feColorMatrix type="matrix" values="0 0 0 0 0 0 0 0 0 0 0 0 0 0 0 0 0 0 0.25 0"/>
<feBlend mode="normal" in2="feFloodId_XGYYAM-G6zh_pEoh0cUo9" result="dropShadow_1_XGYYAM-G6zh_pEoh0cUo9"/>
<feBlend mode="normal" in="SourceGraphic" in2="dropShadow_1_XGYYAM-G6zh_pEoh0cUo9" result="shape_XGYYAM-G6zh_pEoh0cUo9"/>
<feBlend mode="normal" in="SourceGraphic" in2="feFloodId_XGYYAM-G6zh_pEoh0cUo9" result="shape_XGYYAM-G6zh_pEoh0cUo9"/>
<feColorMatrix in="SourceAlpha" type="matrix" values="0 0 0 0 0 0 0 0 0 0 0 0 0 0 0 0 0 0 127 0" result="hardAlpha_XGYYAM-G6zh_pEoh0cUo9"/>
<feOffset dx="3" dy="2"/>
<feGaussianBlur stdDeviation="2.5"/>
<feComposite in2="hardAlpha_XGYYAM-G6zh_pEoh0cUo9" operator="arithmetic" k2="-1" k3="1"/>
<feColorMatrix type="matrix" values="0 0 0 0 1 0 0 0 0 1 0 0 0 0 1 0 0 0 1 0"/>
<feBlend mode="normal" in2="shape_XGYYAM-G6zh_pEoh0cUo9" result="innerShadow_0_XGYYAM-G6zh_pEoh0cUo9" />
</filter>
<mask id="mask-6AUBGX070dwqiAZObqU-t" style="mask-type:alpha" maskUnits="userSpaceOnUse">
<circle cx="347.69921875" cy="331.5" r="103.5"   fill="#000000" >
</circle>
</mask>
<filter id="filter_3CU8sJJCZyFGu24a6TM6a" x="228.19921875" y="212" width="145.990966796875" height="191.26611328125" filterUnits="userSpaceOnUse" color-interpolation-filters="sRGB">
<feGaussianBlur result="gaussian_blur_3CU8sJJCZyFGu24a6TM6a" stdDeviation="8"/>
</filter>
<mask id="mask-Py746TsastY2NYx5y3ql8" style="mask-type:alpha" maskUnits="userSpaceOnUse">
<circle cx="347.69921875" cy="331.5" r="103.5"   fill="#000000" >
</circle>
</mask>
<filter id="filter_KRh8Mwobi4gmC-S7KbOlC" x="250.19921875" y="232.998046875" width="140.8690185546875" height="197.569091796875" filterUnits="userSpaceOnUse" color-interpolation-filters="sRGB">
<feGaussianBlur result="gaussian_blur_KRh8Mwobi4gmC-S7KbOlC" stdDeviation="5"/>
</filter>
<mask id="mask-8KXAnWb7ovAZ2caelz7S1" style="mask-type:alpha" maskUnits="userSpaceOnUse">
<circle cx="347.69921875" cy="331.5" r="103.5"   fill="#000000" >
</circle>
</mask>
<filter id="filter_rsonD4v3_64SPOMUHP0gT" x="369.5147705078125" y="224.17138671875" width="90.6849365234375" height="197.45703125" filterUnits="userSpaceOnUse" color-interpolation-filters="sRGB">
<feGaussianBlur result="gaussian_blur_rsonD4v3_64SPOMUHP0gT" stdDeviation="5"/>
</filter>
<mask id="mask-Mb2WeIWRHAeiw-dIcIy9g" style="mask-type:alpha" maskUnits="userSpaceOnUse">
<circle cx="347.69921875" cy="331.5" r="103.5"   fill="#000000" >
</circle>
</mask>
<linearGradient id="linear_fill_pZHQU-i6Zv7JkW2f6HlbO" x1="347.69921875" y1="228" x2="347.69921875" y2="435" gradientUnits="userSpaceOnUse">
<stop offset="0" stop-color="#FFFFFF"  />
<stop offset="1" stop-color="#FFFFFF" stop-opacity="0.7" />
</linearGradient>
<filter id="filter_pZHQU-i6Zv7JkW2f6HlbO" x="236.19921875" y="220" width="223" height="223" filterUnits="userSpaceOnUse" color-interpolation-filters="sRGB">
<feGaussianBlur result="gaussian_blur_pZHQU-i6Zv7JkW2f6HlbO" stdDeviation="4"/>
</filter>
<linearGradient id="linear_fill_iNlkfrBKketG0A-JqRNvx" x1="308.0469970703125" y1="495.41064453125" x2="65.09033203125" y2="261.9482421875" gradientUnits="userSpaceOnUse">
<stop offset="0" stop-color="#BBFFF3"  />
<stop offset="1" stop-color="#ECECFF"  />
</linearGradient>
<mask id="mask-8NNvnxjf4BLWRAE15lU7Z" style="mask-type:alpha" maskUnits="userSpaceOnUse">
<path d="M199.348 507.87C127.416 507.87 66.746 454.138 47.903 380.729L47.903 380.729C47.251 378.188 44.961 376.411 42.338 376.411L20 376.41C8.95401 376.41 0 367.456 0 356.41C0 351.974 1.47501 347.664 4.19199 344.158L74.944 252.874C78.327 248.509 84.609 247.713 88.974 251.096C89.639 251.612 90.236 252.209 90.752 252.874L161.503 344.158C168.27 352.889 166.678 365.452 157.947 372.218C154.441 374.936 150.131 376.41 145.695 376.41L114.597 376.411C113.113 376.412 111.909 377.615 111.909 379.099C111.909 379.48 111.99 379.856 112.147 380.203L112.147 380.203C135.757 432.615 179.85 467.87 230.348 467.87C252.198 467.87 272.85 461.269 291.161 449.534C293.989 447.721 300.95 445.181 305.536 449.042C310.122 452.903 307.647 459.531 304.301 463.228C278.143 492.132 239.664 507.87 199.348 507.87Z" fill-rule="evenodd"  fill="#000000" >
</path>
</mask>
<filter id="filter_51_22" x="-17.31341552734375" y="268.6591796875" width="76.74932861328125" height="135.1259765625" filterUnits="userSpaceOnUse" color-interpolation-filters="sRGB">
<feGaussianBlur result="gaussian_blur_51_22" stdDeviation="7"/>
</filter>
<filter id="filter_9Fv-Ni-AunjlHnWia_LPw" x="-21.94573974609375" y="230.82958984375" width="131.65576171875" height="148.350341796875" filterUnits="userSpaceOnUse" color-interpolation-filters="sRGB">
<feGaussianBlur result="gaussian_blur_9Fv-Ni-AunjlHnWia_LPw" stdDeviation="15"/>
</filter>
<filter id="filter_51_19" x="75.46563720703125" y="243.046875" width="94.4112548828125" height="139.586669921875" filterUnits="userSpaceOnUse" color-interpolation-filters="sRGB">
<feGaussianBlur result="gaussian_blur_51_19" stdDeviation="3.5"/>
</filter>
<filter id="filter_51_21" x="24.06329345703125" y="362.695556640625" width="301.68072509765625" height="168.4423828125" filterUnits="userSpaceOnUse" color-interpolation-filters="sRGB">
<feGaussianBlur result="gaussian_blur_51_21" stdDeviation="8"/>
</filter>
<filter id="filter_51_20" x="99.2332763671875" y="369.24365234375" width="198.8922119140625" height="114.438720703125" filterUnits="userSpaceOnUse" color-interpolation-filters="sRGB">
<feGaussianBlur result="gaussian_blur_51_20" stdDeviation="5"/>
</filter>
<mask id="mask-W5DmaVEoF0nKzZaDHVfZb" style="mask-type:alpha" maskUnits="userSpaceOnUse">
<path d="M199.348 507.87C127.416 507.87 66.746 454.138 47.903 380.729L47.903 380.729C47.251 378.188 44.961 376.411 42.338 376.411L20 376.41C8.95401 376.41 0 367.456 0 356.41C0 351.974 1.47501 347.664 4.19199 344.158L74.944 252.874C78.327 248.509 84.609 247.713 88.974 251.096C89.639 251.612 90.236 252.209 90.752 252.874L161.503 344.158C168.27 352.889 166.678 365.452 157.947 372.218C154.441 374.936 150.131 376.41 145.695 376.41L114.597 376.411C113.113 376.412 111.909 377.615 111.909 379.099C111.909 379.48 111.99 379.856 112.147 380.203L112.147 380.203C135.757 432.615 179.85 467.87 230.348 467.87C252.198 467.87 272.85 461.269 291.161 449.534C293.989 447.721 300.95 445.181 305.536 449.042C310.122 452.903 307.647 459.531 304.301 463.228C278.143 492.132 239.664 507.87 199.348 507.87Z" fill-rule="evenodd"  fill="#000000" >
</path>
</mask>
<linearGradient id="linear_fill_bQ7nlEy_CGZnTJNh_BvT0" x1="141.5164794921875" y1="466.909912109375" x2="285.954833984375" y2="466.909912109375" gradientUnits="userSpaceOnUse">
<stop offset="0" stop-color="#A6FFF2"  />
<stop offset="1" stop-color="#008773"  />
</linearGradient>
<filter id="filter_bQ7nlEy_CGZnTJNh_BvT0" x="107.7410888671875" y="434.130615234375" width="215.0048828125" height="76.192626953125" filterUnits="userSpaceOnUse" color-interpolation-filters="sRGB">
<feGaussianBlur result="gaussian_blur_bQ7nlEy_CGZnTJNh_BvT0" stdDeviation="10"/>
</filter>
<linearGradient id="linear_fill_51_25" x1="290.0030517578125" y1="95.45947265625" x2="532.959716796875" y2="328.921630859375" gradientUnits="userSpaceOnUse">
<stop offset="0" stop-color="#BBFFF3"  />
<stop offset="1" stop-color="#ECECFF"  />
</linearGradient>
<mask id="mask-51_27" style="mask-type:alpha" maskUnits="userSpaceOnUse">
<path d="M398.702 83C470.634 83 531.304 136.732 550.147 210.141L550.147 210.141C550.799 212.682 553.089 214.459 555.712 214.459L578.05 214.46C589.096 214.46 598.05 223.414 598.05 234.46C598.05 238.896 596.575 243.206 593.858 246.712L523.106 337.996C519.723 342.361 513.441 343.157 509.076 339.774C508.411 339.258 507.814 338.661 507.298 337.996L436.547 246.712C429.78 237.981 431.372 225.418 440.103 218.652C443.609 215.934 447.919 214.46 452.355 214.46L483.453 214.459C484.937 214.458 486.141 213.255 486.141 211.771C486.141 211.39 486.06 211.014 485.903 210.667L485.903 210.667C462.293 158.255 418.2 123 367.702 123C345.852 123 325.2 129.601 306.889 141.337C304.061 143.149 297.1 145.689 292.514 141.828C287.928 137.967 290.403 131.34 293.749 127.642C319.907 98.7377 358.386 83 398.702 83Z" fill-rule="evenodd"  fill="#000000" >
</path>
</mask>
<filter id="filter_51_29" x="538.6142578125" y="187.0849609375" width="76.749267578125" height="135.1259765625" filterUnits="userSpaceOnUse" color-interpolation-filters="sRGB">
<feGaussianBlur result="gaussian_blur_51_29" stdDeviation="7"/>
</filter>
<filter id="filter_51_30" x="490.3399658203125" y="207.68994140625" width="131.6558837890625" height="148.350341796875" filterUnits="userSpaceOnUse" color-interpolation-filters="sRGB">
<feGaussianBlur result="gaussian_blur_51_30" stdDeviation="15"/>
</filter>
<filter id="filter_51_31" x="428.173095703125" y="208.23681640625" width="94.4112548828125" height="139.58642578125" filterUnits="userSpaceOnUse" color-interpolation-filters="sRGB">
<feGaussianBlur result="gaussian_blur_51_31" stdDeviation="3.5"/>
</filter>
<filter id="filter_51_32" x="272.3060302734375" y="59.732421875" width="301.6807861328125" height="168.44189453125" filterUnits="userSpaceOnUse" color-interpolation-filters="sRGB">
<feGaussianBlur result="gaussian_blur_51_32" stdDeviation="8"/>
</filter>
<filter id="filter_51_33" x="299.924560546875" y="107.18798828125" width="198.8922119140625" height="114.4384765625" filterUnits="userSpaceOnUse" color-interpolation-filters="sRGB">
<feGaussianBlur result="gaussian_blur_51_33" stdDeviation="5"/>
</filter>
<mask id="mask-51_35" style="mask-type:alpha" maskUnits="userSpaceOnUse">
<path d="M398.702 83C470.634 83 531.304 136.732 550.147 210.141L550.147 210.141C550.799 212.682 553.089 214.459 555.712 214.459L578.05 214.46C589.096 214.46 598.05 223.414 598.05 234.46C598.05 238.896 596.575 243.206 593.858 246.712L523.106 337.996C519.723 342.361 513.441 343.157 509.076 339.774C508.411 339.258 507.814 338.661 507.298 337.996L436.547 246.712C429.78 237.981 431.372 225.418 440.103 218.652C443.609 215.934 447.919 214.46 452.355 214.46L483.453 214.459C484.937 214.458 486.141 213.255 486.141 211.771C486.141 211.39 486.06 211.014 485.903 210.667L485.903 210.667C462.293 158.255 418.2 123 367.702 123C345.852 123 325.2 129.601 306.889 141.337C304.061 143.149 297.1 145.689 292.514 141.828C287.928 137.967 290.403 131.34 293.749 127.642C319.907 98.7377 358.386 83 398.702 83Z" fill-rule="evenodd"  fill="#000000" >
</path>
</mask>
<linearGradient id="linear_fill_51_37" x1="456.5335693359375" y1="123.96044921875" x2="312.09521484375" y2="123.96044921875" gradientUnits="userSpaceOnUse">
<stop offset="0" stop-color="#A6FFF2"  />
<stop offset="1" stop-color="#008773"  />
</linearGradient>
<filter id="filter_51_37" x="275.3040771484375" y="80.546875" width="215.0048828125" height="76.1923828125" filterUnits="userSpaceOnUse" color-interpolation-filters="sRGB">
<feGaussianBlur result="gaussian_blur_51_37" stdDeviation="10"/>
</filter>
<filter id="filter_9dBup6P9AbECb-SnuwlfW" x="288.009521484375" y="272.49609375" width="132.3829345703125" height="129.504638671875" filterUnits="userSpaceOnUse" color-interpolation-filters="sRGB">
<feFlood flood-opacity="0" result="feFloodId_9dBup6P9AbECb-SnuwlfW"/>
<feColorMatrix in="SourceAlpha" type="matrix" values="0 0 0 0 0 0 0 0 0 0 0 0 0 0 0 0 0 0 127 0" result="hardAlpha_9dBup6P9AbECb-SnuwlfW"/>
<feOffset dx="3" dy="2"/>
<feGaussianBlur stdDeviation="5"/>
<feComposite in2="hardAlpha_9dBup6P9AbECb-SnuwlfW" operator="out"/>
<feColorMatrix type="matrix" values="0 0 0 0 0.24705882352941178 0 0 0 0 0.24705882352941178 0 0 0 0 0.5686274509803921 0 0 0 1 0"/>
<feBlend mode="normal" in2="feFloodId_9dBup6P9AbECb-SnuwlfW" result="dropShadow_1_9dBup6P9AbECb-SnuwlfW"/>
<feBlend mode="normal" in="SourceGraphic" in2="dropShadow_1_9dBup6P9AbECb-SnuwlfW" result="shape_9dBup6P9AbECb-SnuwlfW"/>
<feBlend mode="normal" in="SourceGraphic" in2="feFloodId_9dBup6P9AbECb-SnuwlfW" result="shape_9dBup6P9AbECb-SnuwlfW"/>
<feColorMatrix in="SourceAlpha" type="matrix" values="0 0 0 0 0 0 0 0 0 0 0 0 0 0 0 0 0 0 127 0" result="hardAlpha_9dBup6P9AbECb-SnuwlfW"/>
<feOffset dx="3" dy="2"/>
<feGaussianBlur stdDeviation="2"/>
<feComposite in2="hardAlpha_9dBup6P9AbECb-SnuwlfW" operator="arithmetic" k2="-1" k3="1"/>
<feColorMatrix type="matrix" values="0 0 0 0 1 0 0 0 0 1 0 0 0 0 1 0 0 0 1 0"/>
<feBlend mode="normal" in2="shape_9dBup6P9AbECb-SnuwlfW" result="innerShadow_0_9dBup6P9AbECb-SnuwlfW" />
</filter>
<filter id="filter_w37mQZTY-xYQi7Ip_ug2t" x="293.010498046875" y="277.6572265625" width="116.3841552734375" height="115.1826171875" filterUnits="userSpaceOnUse" color-interpolation-filters="sRGB">
<feFlood flood-opacity="0" result="feFloodId_w37mQZTY-xYQi7Ip_ug2t"/>
<feBlend mode="normal" in="SourceGraphic" in2="feFloodId_w37mQZTY-xYQi7Ip_ug2t" result="shape_w37mQZTY-xYQi7Ip_ug2t"/>
<feColorMatrix in="SourceAlpha" type="matrix" values="0 0 0 0 0 0 0 0 0 0 0 0 0 0 0 0 0 0 127 0" result="hardAlpha_w37mQZTY-xYQi7Ip_ug2t"/>
<feOffset dx="3" dy="2"/>
<feComposite in2="hardAlpha_w37mQZTY-xYQi7Ip_ug2t" operator="arithmetic" k2="-1" k3="1"/>
<feColorMatrix type="matrix" values="0 0 0 0 1 0 0 0 0 1 0 0 0 0 1 0 0 0 1 0"/>
<feBlend mode="normal" in2="shape_w37mQZTY-xYQi7Ip_ug2t" result="innerShadow_0_w37mQZTY-xYQi7Ip_ug2t" />
<feGaussianBlur result="gaussian_blur_w37mQZTY-xYQi7Ip_ug2t" stdDeviation="1.5"/>
</filter>
</defs>
</svg>
