<svg xmlns="http://www.w3.org/2000/svg" xmlns:xlink="http://www.w3.org/1999/xlink" width="545" height="725.805419921875" viewBox="0 0 545 725.805419921875" fill="none">
<g opacity="0.7">
<g filter="url(#filter_51_2)">
<circle cx="180" cy="90" r="40"   fill="#CB47FF" >
</circle>
</g>
</g>
<g opacity="0.9">
<g filter="url(#filter_51_3)">
<circle cx="103" cy="479" r="45"   fill="url(#linear_fill_51_3)" >
</circle>
</g>
</g>
<g opacity="0.9">
<g filter="url(#filter_51_7)">
<circle cx="455" cy="635" r="40"   fill="url(#linear_fill_51_7)" >
</circle>
</g>
</g>
<ellipse cx="317.52343940734863" cy="539.2222709655762" transform="rotate(43.999977761866226 289.08233642578125 502.48583984375)" rx="28.441102981567383" ry="36.73643112182617"   fill="#00BF9D" >
</ellipse>
<g filter="url(#filter_xLUiUGsXodpKJ8sZ0-ZMf)">
</g>
<g opacity="0.6">
<g filter="url(#filter_dsOOGciG8wU2Zj9nMXsaf)">
<path d="M306.159 524.939C310.021 527.937 321.371 552.365 287.27 574.34C299.031 559.453 312.235 543.325 306.159 524.939Z" fill-rule="evenodd"  fill="#FFFFFF" >
</path>
</g>
</g>
<g filter="url(#filter_TDiHkzjrEvt5e5HbSycaX)">
<path d="M278.772 522.255C271.822 525.671 248.631 539.263 257.196 567.622C252.176 555.238 249.992 534.18 278.772 522.255Z" fill-rule="evenodd"  fill="#0C4D51" >
</path>
</g>
<g filter="url(#filter_6cdFAXPrSMSHv30YLg6NY)">
<path d="M269.895 543.658L278.068 556.866L272.975 566.862L269.895 543.658ZM293.06 527.442L278.929 555.177L270.549 541.686L293.06 527.442ZM294.254 556.069L273.532 567.146L278.625 557.15L294.254 556.069ZM293.478 527.655L295.186 554.239L279.346 555.39L293.478 527.655Z"   fill="#DAFFF8" >
</path>
</g>
<g opacity="0.8">
<path d="M148.265 501.599L273.155 535.064C327.641 559.034 342.063 618.867 316.422 714.56L313.408 725.805L182.108 725.805L193.917 681.735L194.422 678.866C210.781 584.528 195.395 525.439 148.265 501.599Z" fill-rule="evenodd"  fill="url(#linear_fill_Er_OkV_68zn-AuRc3G0iZ)" >
</path>
</g>
<g mask="url(#mask-Ss2WPsmYmUWWtiPc9-D8V)">
<g filter="url(#filter_51_15)">
<path d="M187.719 536.072Q177.065 520.342 160.608 512.483L159.586 514.622Q175.464 522.204 185.757 537.401Q195.3 551.491 199.912 571.902Q204.157 590.686 204.126 614.335Q204.098 635.927 200.519 660.731Q197.263 683.296 191.285 707.114Q188.911 716.57 186.217 725.806L188.686 725.806Q191.284 716.851 193.583 707.691Q199.591 683.755 202.865 661.069Q206.468 636.099 206.496 614.339Q206.527 590.423 202.224 571.379Q197.513 550.532 187.719 536.072Z" fill-rule="evenodd"  fill="#000000" fill-opacity="0.8">
</path>
</g>
</g>
<g mask="url(#mask-RTPZJvaXv0GyfNvx7Kf84)">
<g filter="url(#filter_51_13)">
<path d="M288.732 545.104Q271.94 532.753 247.744 529.352L247.304 532.481Q270.71 535.771 286.859 547.65Q301.706 558.57 310.284 576.643Q318.156 593.228 320.612 615.502Q322.841 635.726 320.545 659.969Q318.482 681.758 312.893 705.62Q310.52 715.751 307.622 725.806L310.91 725.806Q313.682 716.109 315.97 706.34Q321.608 682.269 323.691 660.267Q326.017 635.702 323.753 615.156Q321.239 592.353 313.139 575.288Q304.22 556.496 288.732 545.104Z" fill-rule="evenodd"  fill="#FFFFFF" >
</path>
</g>
</g>
<g opacity="0.9">
<path d="M148.264 501.599L273.155 535.064C210.857 534.867 170.101 579.914 150.887 670.205L135.988 725.805L0 725.805L0 717.164L21.8471 635.629L22.5281 632.815C45.197 540.418 87.1089 496.679 148.264 501.599Z" fill-rule="evenodd"  fill="url(#linear_fill_TtUnNMZfMrhPL8G5z1wq2)" >
</path>
</g>
<g mask="url(#mask-6Tgtd6d2dy5kdUW06ZwX8)">
<g filter="url(#filter_51_11)">
<path d="M231.248 539.46Q244.629 535.041 260.192 534.655L260.133 532.285Q244.219 532.681 230.504 537.21Q217.406 541.536 206.177 549.68Q195.568 557.375 186.473 568.596Q177.987 579.067 170.633 592.848Q163.887 605.488 157.858 621.368Q152.49 635.508 147.358 653.122Q143.083 667.797 138.359 687.076Q136.468 694.79 134.181 704.556Q132.808 710.418 130.091 722.198Q129.654 724.096 129.259 725.806L131.691 725.806Q132.031 724.335 132.401 722.731Q135.117 710.955 136.489 705.096Q138.773 695.342 140.661 687.64Q145.373 668.411 149.634 653.784Q154.739 636.261 160.073 622.21Q166.049 606.47 172.723 593.964Q179.971 580.383 188.314 570.089Q197.212 559.11 207.569 551.598Q218.499 543.671 231.248 539.46Z" fill-rule="evenodd"  fill="#FFFFFF" >
</path>
</g>
</g>
<g mask="url(#mask-2bHS2k6EXHWlVtbNhYZzp)">
<g filter="url(#filter_51_9)">
<path d="M113.533 510.23Q126.914 505.81 142.478 505.424L142.419 503.055Q126.504 503.45 112.79 507.979Q99.6911 512.305 88.4624 520.449Q77.8527 528.145 68.7581 539.366Q60.2721 549.836 52.9174 563.618Q46.1715 576.258 40.1424 592.139Q34.7744 606.278 29.6432 623.892Q25.368 638.568 20.6436 657.847Q18.7532 665.561 16.4662 675.327Q15.0942 681.185 12.3764 692.969Q10.1565 702.594 9.03543 707.406Q7.1683 715.42 5.63777 721.794Q5.14914 723.829 4.66836 725.806L7.1073 725.806Q7.52192 724.098 7.94229 722.347Q9.47472 715.965 11.3436 707.944Q12.4654 703.129 14.6858 693.502Q17.4027 681.722 18.7738 675.867Q21.058 666.113 22.9455 658.411Q27.6578 639.181 31.9187 624.555Q37.0235 607.031 42.3582 592.98Q48.3336 577.24 55.0083 564.733Q62.2562 551.153 70.5993 540.858Q79.4971 529.88 89.8539 522.368Q100.784 514.44 113.533 510.23Z" fill-rule="evenodd"  fill="#FFFFFF" >
</path>
</g>
</g>
<ellipse cx="163.6554832458496" cy="510.5179023742676" transform="rotate(14.999988456089277 120.54154968261719 473)" rx="43.11393356323242" ry="37.51790237426758"   fill="#F7931A" >
</ellipse>
<g filter="url(#filter_awzAnuKoEXyP8VJAAQq1g)">
</g>
<g opacity="0.6">
<g filter="url(#filter_2_3S_NPERVB-gsZWbnysd)">
<path d="M188.687 538.675C168.481 555.152 122.692 552.956 113.812 526.746C122.619 564.993 174.78 562.043 188.687 538.675Z" fill-rule="evenodd"  fill="#D3FCF2" >
</path>
</g>
</g>
<g opacity="0.6">
<g filter="url(#filter_Nz9aYM3VCY2OXYchNj4bA)">
<path d="M182.295 499.893C188.491 505.733 202.297 542.132 161.396 547.077C189.086 537.186 189.718 514.035 182.295 499.893Z" fill-rule="evenodd"  fill="#FFFFFF" >
</path>
</g>
</g>
<g filter="url(#filter_klaKNv0Cfof3kZevEVpyR)">
<path d="M152.774 485.963C139.715 487.076 112.277 495.407 112.924 524.793C108.688 517.238 113.327 482.747 152.774 485.963Z" fill-rule="evenodd"  fill="#AE5B13" >
</path>
</g>
<g filter="url(#filter_lsh4wBbgh1_FxEOoD0IKI)">
<path d="M169.094 518.333C167.654 521.116 165.51 522.36 162.663 522.065C164.08 523.557 164.854 525.112 164.986 526.731C165.118 528.349 164.442 530.096 162.958 531.973C162.195 532.928 161.379 533.675 160.509 534.214C159.639 534.753 158.761 535.092 157.875 535.232C156.989 535.372 156.02 535.34 154.969 535.138C153.918 534.935 152.885 534.617 151.872 534.184C150.858 533.751 149.745 533.181 148.531 532.474L145.493 537.152C145.199 537.605 144.594 537.734 144.141 537.44L142.468 536.353C142.015 536.059 141.886 535.453 142.18 535.001L145.162 530.409C144.014 529.664 143.144 529.088 142.551 528.683L139.555 533.296C139.261 533.749 138.656 533.878 138.203 533.583L136.529 532.497C136.077 532.203 135.948 531.597 136.242 531.144L139.28 526.466C139.022 526.299 138.637 526.044 138.125 525.701C137.613 525.359 137.221 525.099 136.949 524.922L133.616 522.758C133.163 522.463 133.034 521.858 133.328 521.405C133.358 521.359 133.392 521.316 133.429 521.276L135.316 519.223C135.638 518.872 136.168 518.805 136.568 519.065L138.263 520.166C138.98 520.632 139.634 520.535 140.225 519.877L145.854 511.21L146.198 511.433C146.121 511.363 146.011 511.281 145.868 511.188L149.886 505C150.334 503.902 150.013 502.999 148.923 502.291L147.355 501.272C146.902 500.978 146.773 500.373 147.068 499.92L148.296 498.028C148.59 497.575 149.196 497.446 149.649 497.74C149.65 497.741 149.651 497.742 149.653 497.743L153.378 500.188C154.296 500.784 154.997 501.228 155.479 501.521L158.475 496.908C158.769 496.455 159.375 496.327 159.828 496.621L161.501 497.707C161.954 498.001 162.083 498.607 161.789 499.06L158.863 503.565C160.058 504.3 160.942 504.854 161.516 505.227L164.413 500.764C164.708 500.311 165.313 500.183 165.766 500.477L167.439 501.564C167.892 501.858 168.021 502.463 167.727 502.916L164.731 507.529C165.799 508.366 166.698 509.179 167.428 509.97C168.158 510.761 168.759 511.611 169.229 512.52C169.7 513.428 169.927 514.373 169.912 515.354C169.897 516.335 169.624 517.328 169.094 518.333ZM157.411 525.489C157.457 524.947 157.407 524.444 157.259 523.981C157.112 523.517 156.841 523.03 156.449 522.52C156.056 522.009 155.673 521.571 155.299 521.206C154.924 520.84 154.436 520.431 153.833 519.978C153.23 519.525 152.749 519.182 152.39 518.949C152.032 518.716 151.564 518.423 150.988 518.069C150.412 517.716 150.067 517.502 149.952 517.427L145.22 524.715C145.335 524.789 145.598 524.965 146.009 525.242C146.42 525.52 146.762 525.747 147.035 525.924C147.307 526.101 147.694 526.337 148.196 526.632C148.698 526.927 149.136 527.171 149.511 527.363C149.885 527.555 150.334 527.76 150.856 527.976C151.378 528.193 151.842 528.35 152.246 528.45C152.651 528.549 153.089 528.619 153.562 528.661C154.035 528.702 154.458 528.67 154.832 528.566C155.206 528.461 155.568 528.288 155.919 528.046C156.27 527.804 156.576 527.481 156.838 527.079C157.174 526.561 157.365 526.032 157.411 525.489ZM162.525 514.388C162.584 513.905 162.561 513.461 162.457 513.057C162.353 512.652 162.139 512.227 161.816 511.782C161.493 511.337 161.176 510.963 160.864 510.658C160.552 510.353 160.148 510.009 159.653 509.626C159.157 509.243 158.753 508.955 158.44 508.762C158.127 508.569 157.735 508.325 157.264 508.029C156.793 507.733 156.507 507.553 156.407 507.488L152.109 514.107C152.18 514.154 152.425 514.318 152.844 514.6C153.262 514.882 153.596 515.098 153.844 515.249C154.093 515.401 154.461 515.619 154.948 515.905C155.435 516.191 155.856 516.407 156.208 516.555C156.561 516.702 156.982 516.863 157.47 517.037C157.959 517.211 158.393 517.304 158.773 517.316C159.153 517.328 159.544 517.306 159.947 517.251C160.35 517.196 160.723 517.045 161.067 516.798C161.411 516.551 161.713 516.227 161.975 515.824C162.283 515.35 162.466 514.871 162.525 514.388Z"   fill="#FFE5C6" >
</path>
</g>
<circle cx="189.60750579833984" cy="752.6672134399414" transform="rotate(180 138.25547790527344 701.315185546875)" r="51.352027893066406"   fill="#8484DD" >
</circle>
<g mask="url(#mask-z9UHzP7RGq-CtFmIbexo1)" opacity="0.7">
<g filter="url(#filter_mOPSrn9AodkTz3UUDA7IP)">
<path d="M86.9035 701.315C85.1471 701.315 83.4114 701.227 81.7005 701.055C110.924 698.255 133.79 673.228 133.79 642.769C133.79 635.567 132.512 628.668 130.173 622.296C135.289 630.281 138.255 639.776 138.255 649.963C138.255 678.324 115.264 701.315 86.9035 701.315Z" fill-rule="evenodd"  fill="#2C2CA4" >
</path>
</g>
</g>
<g mask="url(#mask-zGwlBrbmpRfWRbLJATGg3)" opacity="0.3">
<g filter="url(#filter_PnpKifrk8udlvIe0f_4Pw)">
<path d="M125.355 651.915C125.355 627.253 105.363 607.26 80.7015 607.26C77.139 607.26 73.6739 607.678 70.3524 608.466C75.1282 606.723 80.2845 605.772 85.6631 605.772C110.325 605.772 130.317 625.764 130.317 650.426C130.317 671.523 115.687 689.203 96.0184 693.873C113.136 687.622 125.355 671.195 125.355 651.915Z" fill-rule="evenodd"  fill="#F8F8FF" >
</path>
</g>
</g>
<g mask="url(#mask-a2X0xsLjV1_us56oYK_Dy)" opacity="0.8">
<g filter="url(#filter_qWDtTYhum6RdxIRAAxuJV)">
<path d="M71.1163 698.252C50.7477 691.527 36.0476 672.338 36.0476 649.715C36.0476 633.798 43.3245 619.581 54.7326 610.207C46.7952 621.075 42.0012 634.563 42.0012 647.73C42.0012 667.375 54.0247 687.22 71.0026 698.179L71.1163 698.252Z" fill-rule="evenodd"  fill="#151562" >
</path>
</g>
</g>
<g mask="url(#mask-3PWKuzbF3djQn09fkhL25)" opacity="0.8">
<g filter="url(#filter_QcPaBAW0--o5EdK9NS0Uf)">
<path d="M35.557 650.737L35.5514 649.963C35.5514 621.602 58.5421 598.611 86.9035 598.611C115.264 598.611 138.255 621.602 138.255 649.963C138.255 650.222 138.254 650.48 138.25 650.737L138.255 651.452C138.255 625.283 115.264 604.069 86.9035 604.069C58.8012 604.069 35.9717 624.898 35.557 650.737ZM86.9035 701.315C65.3491 701.315 46.8963 688.036 39.2804 669.212L39.5869 669.895C47.3829 686.902 65.6327 698.834 86.9035 698.834C108.458 698.834 126.91 686.581 134.526 669.212L134.22 669.952C126.424 688.383 108.174 701.315 86.9035 701.315Z" fill-rule="evenodd"  fill="url(#linear_fill_QcPaBAW0--o5EdK9NS0Uf)" >
</path>
</g>
</g>
<g filter="url(#filter_JUYPleqmx4Thijkzh7StM)">
<path d="M108.289 625.754L65.6212 625.754C65.0424 625.754 64.5732 626.223 64.5732 626.802L64.5732 635.581C64.5732 636.16 65.0424 636.629 65.6212 636.629L80.0281 636.629C80.6069 636.629 81.0761 637.098 81.0761 637.677L81.0761 643.734C67.6611 644.334 57.5594 646.964 57.5594 650.12C57.5594 653.276 67.661 655.906 81.0761 656.506L81.0761 678.259C81.0761 678.838 81.5453 679.307 82.1241 679.307L91.7859 679.307C92.3647 679.307 92.8339 678.838 92.8339 678.259L92.8339 656.501C106.197 655.891 116.248 653.266 116.248 650.12C116.248 646.973 106.197 644.347 92.8339 643.738L92.8339 637.677C92.8339 637.098 93.3031 636.629 93.8819 636.629L108.289 636.629C108.867 636.629 109.337 636.16 109.337 635.581L109.337 626.802C109.337 626.223 108.867 625.754 108.289 625.754ZM92.8339 653.777L92.1522 653.806L92.0769 653.806L91.4376 653.829L91.3684 653.829C90.8931 653.846 90.4119 653.859 89.9246 653.87L89.8943 653.87L89.2407 653.884L89.0559 653.884L88.5402 653.891L85.2737 653.891L84.7632 653.884L84.5859 653.884L83.9761 653.871L83.909 653.871C83.1862 653.855 82.4743 653.833 81.773 653.806L81.7638 653.806L81.0655 653.776C70.4644 653.3 62.603 651.553 62.603 649.467C62.603 647.381 70.4656 645.64 81.0655 645.158L81.0655 651.754C82.9056 651.849 84.8631 651.902 86.8932 651.902C88.9557 651.902 90.9526 651.849 92.8238 651.749L92.8238 645.178C103.382 645.66 111.193 647.402 111.193 649.477C111.193 651.553 103.382 653.294 92.8339 653.777Z"   fill="#DDDDFF" >
</path>
</g>
<defs>
<filter id="filter_51_2" x="90" y="0" width="180" height="180" filterUnits="userSpaceOnUse" color-interpolation-filters="sRGB">
<feGaussianBlur result="gaussian_blur_51_2" stdDeviation="25"/>
</filter>
<radialGradient id="linear_fill_51_3" cx="0" cy="0" r="1" gradientTransform="translate(103 479) rotate(90) scale(45, 45)" gradientUnits="userSpaceOnUse">
<stop offset="0" stop-color="#06F0C6"  />
<stop offset="0.212" stop-color="#FFC54A"  />
<stop offset="0.4211" stop-color="#2BDCFF"  />
<stop offset="0.7522" stop-color="#CB47FF"  />
</radialGradient>
<filter id="filter_51_3" x="8" y="384" width="190" height="190" filterUnits="userSpaceOnUse" color-interpolation-filters="sRGB">
<feGaussianBlur result="gaussian_blur_51_3" stdDeviation="25"/>
</filter>
<radialGradient id="linear_fill_51_7" cx="0" cy="0" r="1" gradientTransform="translate(455 635) rotate(90) scale(40, 40)" gradientUnits="userSpaceOnUse">
<stop offset="0" stop-color="#06F0C6"  />
<stop offset="0.212" stop-color="#FFC54A"  />
<stop offset="0.4211" stop-color="#2B6BFF"  />
<stop offset="0.7522" stop-color="#CB47FF"  />
</radialGradient>
<filter id="filter_51_7" x="365" y="545" width="180" height="180" filterUnits="userSpaceOnUse" color-interpolation-filters="sRGB">
<feGaussianBlur result="gaussian_blur_51_7" stdDeviation="25"/>
</filter>
<filter id="filter_xLUiUGsXodpKJ8sZ0-ZMf" x="245.78270843524888" y="510.1416561891551" width="76.4783453365335" height="77.05408996543974" filterUnits="userSpaceOnUse" color-interpolation-filters="sRGB">
<feFlood flood-opacity="0" result="feFloodId_xLUiUGsXodpKJ8sZ0-ZMf"/>
<feBlend mode="normal" in="SourceGraphic" in2="feFloodId_xLUiUGsXodpKJ8sZ0-ZMf" result="shape_xLUiUGsXodpKJ8sZ0-ZMf"/>
<feColorMatrix in="SourceAlpha" type="matrix" values="0 0 0 0 0 0 0 0 0 0 0 0 0 0 0 0 0 0 127 0" result="hardAlpha_xLUiUGsXodpKJ8sZ0-ZMf"/>
<feOffset dx="0" dy="-0.7900312586921222"/>
<feGaussianBlur stdDeviation="2.765109405422428"/>
<feComposite in2="hardAlpha_xLUiUGsXodpKJ8sZ0-ZMf" operator="arithmetic" k2="-1" k3="1"/>
<feColorMatrix type="matrix" values="0 0 0 0 0.5647058823529412 0 0 0 0 1 0 0 0 0 0.9215686274509803 0 0 0 1 0"/>
<feBlend mode="normal" in2="shape_xLUiUGsXodpKJ8sZ0-ZMf" result="innerShadow_0_xLUiUGsXodpKJ8sZ0-ZMf" />
<feGaussianBlur result="gaussian_blur_xLUiUGsXodpKJ8sZ0-ZMf" stdDeviation="2.765109405422428"/>
</filter>
<filter id="filter_dsOOGciG8wU2Zj9nMXsaf" x="280.949281180463" y="518.618470633588" width="36.46938807852712" height="62.04211146719899" filterUnits="userSpaceOnUse" color-interpolation-filters="sRGB">
<feGaussianBlur result="gaussian_blur_dsOOGciG8wU2Zj9nMXsaf" stdDeviation="3.160125034768489"/>
</filter>
<filter id="filter_TDiHkzjrEvt5e5HbSycaX" x="249.42302045565975" y="517.5151835415973" width="34.08929234063362" height="54.847318463680494" filterUnits="userSpaceOnUse" color-interpolation-filters="sRGB">
<feGaussianBlur result="gaussian_blur_TDiHkzjrEvt5e5HbSycaX" stdDeviation="2.370093776076367"/>
</filter>
<filter id="filter_6cdFAXPrSMSHv30YLg6NY" x="263.894775390625" y="521.442138671875" width="41.29144287109375" height="55.703369140625" filterUnits="userSpaceOnUse" color-interpolation-filters="sRGB">
<feFlood flood-opacity="0" result="feFloodId_6cdFAXPrSMSHv30YLg6NY"/>
<feColorMatrix in="SourceAlpha" type="matrix" values="0 0 0 0 0 0 0 0 0 0 0 0 0 0 0 0 0 0 127 0" result="hardAlpha_6cdFAXPrSMSHv30YLg6NY"/>
<feOffset dx="2" dy="2"/>
<feGaussianBlur stdDeviation="4"/>
<feComposite in2="hardAlpha_6cdFAXPrSMSHv30YLg6NY" operator="out"/>
<feColorMatrix type="matrix" values="0 0 0 0 0 0 0 0 0 0.4117647058823529 0 0 0 0 0.34901960784313724 0 0 0 1 0"/>
<feBlend mode="normal" in2="feFloodId_6cdFAXPrSMSHv30YLg6NY" result="dropShadow_1_6cdFAXPrSMSHv30YLg6NY"/>
<feBlend mode="normal" in="SourceGraphic" in2="dropShadow_1_6cdFAXPrSMSHv30YLg6NY" result="shape_6cdFAXPrSMSHv30YLg6NY"/>
<feBlend mode="normal" in="SourceGraphic" in2="feFloodId_6cdFAXPrSMSHv30YLg6NY" result="shape_6cdFAXPrSMSHv30YLg6NY"/>
<feColorMatrix in="SourceAlpha" type="matrix" values="0 0 0 0 0 0 0 0 0 0 0 0 0 0 0 0 0 0 127 0" result="hardAlpha_6cdFAXPrSMSHv30YLg6NY"/>
<feOffset dx="3" dy="2"/>
<feGaussianBlur stdDeviation="2"/>
<feComposite in2="hardAlpha_6cdFAXPrSMSHv30YLg6NY" operator="arithmetic" k2="-1" k3="1"/>
<feColorMatrix type="matrix" values="0 0 0 0 1 0 0 0 0 1 0 0 0 0 1 0 0 0 1 0"/>
<feBlend mode="normal" in2="shape_6cdFAXPrSMSHv30YLg6NY" result="innerShadow_0_6cdFAXPrSMSHv30YLg6NY" />
</filter>
<linearGradient id="linear_fill_Er_OkV_68zn-AuRc3G0iZ" x1="228.12338256835938" y1="558.185546875" x2="280.09967041015625" y2="802.892578125" gradientUnits="userSpaceOnUse">
<stop offset="0" stop-color="#CDCDFF"  />
<stop offset="1" stop-color="#8EFFEB"  />
</linearGradient>
<mask id="mask-Ss2WPsmYmUWWtiPc9-D8V" style="mask-type:alpha" maskUnits="userSpaceOnUse">
<path d="M148.265 501.599L273.155 535.064C327.641 559.034 342.063 618.866 316.422 714.56L313.408 725.805L182.108 725.805L193.917 681.735L194.422 678.866C210.78 584.528 195.394 525.439 148.265 501.599Z" fill-rule="evenodd"  fill="#000000" >
</path>
</mask>
<filter id="filter_51_15" x="149.58624267578125" y="502.4833984375" width="66.91024780273438" height="233.32275390625" filterUnits="userSpaceOnUse" color-interpolation-filters="sRGB">
<feGaussianBlur result="gaussian_blur_51_15" stdDeviation="5"/>
</filter>
<mask id="mask-RTPZJvaXv0GyfNvx7Kf84" style="mask-type:alpha" maskUnits="userSpaceOnUse">
<path d="M148.265 501.599L273.155 535.064C327.641 559.034 342.063 618.866 316.422 714.56L313.408 725.805L182.108 725.805L193.917 681.735L194.422 678.866C210.78 584.528 195.394 525.439 148.265 501.599Z" fill-rule="evenodd"  fill="#000000" >
</path>
</mask>
<filter id="filter_51_13" x="240.98388811405675" y="523.031556571088" width="90.20623500235524" height="209.094601701574" filterUnits="userSpaceOnUse" color-interpolation-filters="sRGB">
<feGaussianBlur result="gaussian_blur_51_13" stdDeviation="3.160125034768489"/>
</filter>
<linearGradient id="linear_fill_TtUnNMZfMrhPL8G5z1wq2" x1="150.78689575195312" y1="537.61279296875" x2="43.405364990234375" y2="699.639892578125" gradientUnits="userSpaceOnUse">
<stop offset="0" stop-color="#ECECFF"  />
<stop offset="1" stop-color="#BBFFF3"  />
</linearGradient>
<mask id="mask-6Tgtd6d2dy5kdUW06ZwX8" style="mask-type:alpha" maskUnits="userSpaceOnUse">
<path d="M148.264 501.599L273.155 535.064C210.857 534.867 170.101 579.914 150.887 670.205L135.988 725.805L0 725.805L0 717.164L21.8471 635.63L22.5281 632.815C45.197 540.418 87.1089 496.679 148.264 501.599Z" fill-rule="evenodd"  fill="#000000" >
</path>
</mask>
<filter id="filter_51_11" x="121.35849173436785" y="524.3850878037038" width="146.73411211231902" height="209.3213771269675" filterUnits="userSpaceOnUse" color-interpolation-filters="sRGB">
<feGaussianBlur result="gaussian_blur_51_11" stdDeviation="3.9501562934606107"/>
</filter>
<mask id="mask-2bHS2k6EXHWlVtbNhYZzp" style="mask-type:alpha" maskUnits="userSpaceOnUse">
<path d="M148.264 501.599L273.155 535.064C210.857 534.867 170.101 579.914 150.887 670.205L135.988 725.805L0 725.805L0 717.164L21.8471 635.63L22.5281 632.815C45.197 540.418 87.1089 496.679 148.264 501.599Z" fill-rule="evenodd"  fill="#000000" >
</path>
</mask>
<filter id="filter_51_9" x="-3.2319547378001303" y="495.15437491307875" width="153.60995897511197" height="238.5520900175925" filterUnits="userSpaceOnUse" color-interpolation-filters="sRGB">
<feGaussianBlur result="gaussian_blur_51_9" stdDeviation="3.9501562934606107"/>
</filter>
<filter id="filter_awzAnuKoEXyP8VJAAQq1g" x="104.17432525653797" y="476.9392636110301" width="96.60351318321315" height="86.91785949668974" filterUnits="userSpaceOnUse" color-interpolation-filters="sRGB">
<feFlood flood-opacity="0" result="feFloodId_awzAnuKoEXyP8VJAAQq1g"/>
<feBlend mode="normal" in="SourceGraphic" in2="feFloodId_awzAnuKoEXyP8VJAAQq1g" result="shape_awzAnuKoEXyP8VJAAQq1g"/>
<feColorMatrix in="SourceAlpha" type="matrix" values="0 0 0 0 0 0 0 0 0 0 0 0 0 0 0 0 0 0 127 0" result="hardAlpha_awzAnuKoEXyP8VJAAQq1g"/>
<feOffset dx="0" dy="1.5800625173842444"/>
<feComposite in2="hardAlpha_awzAnuKoEXyP8VJAAQq1g" operator="arithmetic" k2="-1" k3="1"/>
<feColorMatrix type="matrix" values="0 0 0 0 0.615686274509804 0 0 0 0 0.30980392156862746 0 0 0 0 0.043137254901960784 0 0 0 1 0"/>
<feBlend mode="normal" in2="shape_awzAnuKoEXyP8VJAAQq1g" result="innerShadow_0_awzAnuKoEXyP8VJAAQq1g" />
<feGaussianBlur result="gaussian_blur_awzAnuKoEXyP8VJAAQq1g" stdDeviation="2.765109405422428"/>
</filter>
<filter id="filter_2_3S_NPERVB-gsZWbnysd" x="105.43137859301208" y="518.3662998576606" width="91.6359152993274" height="45.95392372217884" filterUnits="userSpaceOnUse" color-interpolation-filters="sRGB">
<feGaussianBlur result="gaussian_blur_2_3S_NPERVB-gsZWbnysd" stdDeviation="4.190141086794733"/>
</filter>
<filter id="filter_Nz9aYM3VCY2OXYchNj4bA" x="155.8094312336161" y="494.30621162912394" width="39.38804976421315" height="58.35730330425213" filterUnits="userSpaceOnUse" color-interpolation-filters="sRGB">
<feGaussianBlur result="gaussian_blur_Nz9aYM3VCY2OXYchNj4bA" stdDeviation="2.7934273885630523"/>
</filter>
<filter id="filter_klaKNv0Cfof3kZevEVpyR" x="106.06132332345985" y="480.16485420724894" width="52.29959456401781" height="50.21545760112713" filterUnits="userSpaceOnUse" color-interpolation-filters="sRGB">
<feGaussianBlur result="gaussian_blur_klaKNv0Cfof3kZevEVpyR" stdDeviation="2.7934273885630523"/>
</filter>
<filter id="filter_lsh4wBbgh1_FxEOoD0IKI" x="126.03424072265625" y="490.326416015625" width="52.89305114746094" height="57.407470703125" filterUnits="userSpaceOnUse" color-interpolation-filters="sRGB">
<feFlood flood-opacity="0" result="feFloodId_lsh4wBbgh1_FxEOoD0IKI"/>
<feColorMatrix in="SourceAlpha" type="matrix" values="0 0 0 0 0 0 0 0 0 0 0 0 0 0 0 0 0 0 127 0" result="hardAlpha_lsh4wBbgh1_FxEOoD0IKI"/>
<feOffset dx="1" dy="2"/>
<feGaussianBlur stdDeviation="4"/>
<feComposite in2="hardAlpha_lsh4wBbgh1_FxEOoD0IKI" operator="out"/>
<feColorMatrix type="matrix" values="0 0 0 0 0 0 0 0 0 0 0 0 0 0 0 0 0 0 0.25 0"/>
<feBlend mode="normal" in2="feFloodId_lsh4wBbgh1_FxEOoD0IKI" result="dropShadow_1_lsh4wBbgh1_FxEOoD0IKI"/>
<feBlend mode="normal" in="SourceGraphic" in2="dropShadow_1_lsh4wBbgh1_FxEOoD0IKI" result="shape_lsh4wBbgh1_FxEOoD0IKI"/>
<feBlend mode="normal" in="SourceGraphic" in2="feFloodId_lsh4wBbgh1_FxEOoD0IKI" result="shape_lsh4wBbgh1_FxEOoD0IKI"/>
<feColorMatrix in="SourceAlpha" type="matrix" values="0 0 0 0 0 0 0 0 0 0 0 0 0 0 0 0 0 0 127 0" result="hardAlpha_lsh4wBbgh1_FxEOoD0IKI"/>
<feOffset dx="3" dy="2"/>
<feGaussianBlur stdDeviation="2"/>
<feComposite in2="hardAlpha_lsh4wBbgh1_FxEOoD0IKI" operator="arithmetic" k2="-1" k3="1"/>
<feColorMatrix type="matrix" values="0 0 0 0 1 0 0 0 0 1 0 0 0 0 1 0 0 0 1 0"/>
<feBlend mode="normal" in2="shape_lsh4wBbgh1_FxEOoD0IKI" result="innerShadow_0_lsh4wBbgh1_FxEOoD0IKI" />
</filter>
<mask id="mask-z9UHzP7RGq-CtFmIbexo1" style="mask-type:alpha" maskUnits="userSpaceOnUse">
<circle cx="189.60750579833984" cy="752.6672134399414" transform="rotate(180 138.25547790527344 701.315185546875)" r="51.352027893066406"   fill="#000000" >
</circle>
</mask>
<filter id="filter_mOPSrn9AodkTz3UUDA7IP" x="73.76199162150013" y="614.3569318070472" width="72.4319646329763" height="94.89673208903059" filterUnits="userSpaceOnUse" color-interpolation-filters="sRGB">
<feGaussianBlur result="gaussian_blur_mOPSrn9AodkTz3UUDA7IP" stdDeviation="3.969239174601504"/>
</filter>
<mask id="mask-zGwlBrbmpRfWRbLJATGg3" style="mask-type:alpha" maskUnits="userSpaceOnUse">
<circle cx="189.60750579833984" cy="752.6672134399414" transform="rotate(180 138.25547790527344 701.315185546875)" r="51.352027893066406"   fill="#000000" >
</circle>
</mask>
<filter id="filter_PnpKifrk8udlvIe0f_4Pw" x="65.39086802196056" y="600.8104236860231" width="69.88766703225076" height="98.02417215920377" filterUnits="userSpaceOnUse" color-interpolation-filters="sRGB">
<feGaussianBlur result="gaussian_blur_PnpKifrk8udlvIe0f_4Pw" stdDeviation="2.4807744851134785"/>
</filter>
<mask id="mask-a2X0xsLjV1_us56oYK_Dy" style="mask-type:alpha" maskUnits="userSpaceOnUse">
<circle cx="189.60750579833984" cy="752.6672134399414" transform="rotate(180 138.25547790527344 701.315185546875)" r="51.352027893066406"   fill="#000000" >
</circle>
</mask>
<filter id="filter_qWDtTYhum6RdxIRAAxuJV" x="31.086012675280855" y="605.2459705610231" width="44.991793008813275" height="97.96801981545377" filterUnits="userSpaceOnUse" color-interpolation-filters="sRGB">
<feGaussianBlur result="gaussian_blur_qWDtTYhum6RdxIRAAxuJV" stdDeviation="2.4807744851134785"/>
</filter>
<mask id="mask-3PWKuzbF3djQn09fkhL25" style="mask-type:alpha" maskUnits="userSpaceOnUse">
<circle cx="189.60750579833984" cy="752.6672134399414" transform="rotate(180 138.25547790527344 701.315185546875)" r="51.352027893066406"   fill="#000000" >
</circle>
</mask>
<linearGradient id="linear_fill_QcPaBAW0--o5EdK9NS0Uf" x1="86.9034423828125" y1="701.315185546875" x2="86.9034423828125" y2="598.611083984375" gradientUnits="userSpaceOnUse">
<stop offset="0" stop-color="#FFFFFF"  />
<stop offset="1" stop-color="#FFFFFF" stop-opacity="0.7" />
</linearGradient>
<filter id="filter_QcPaBAW0--o5EdK9NS0Uf" x="31.58218295243944" y="594.6418448176737" width="110.64253411953518" height="110.6425798959026" filterUnits="userSpaceOnUse" color-interpolation-filters="sRGB">
<feGaussianBlur result="gaussian_blur_QcPaBAW0--o5EdK9NS0Uf" stdDeviation="1.9846195833505953"/>
</filter>
<filter id="filter_JUYPleqmx4Thijkzh7StM" x="50.5594482421875" y="619.754150390625" width="74.68818664550781" height="69.552978515625" filterUnits="userSpaceOnUse" color-interpolation-filters="sRGB">
<feFlood flood-opacity="0" result="feFloodId_JUYPleqmx4Thijkzh7StM"/>
<feColorMatrix in="SourceAlpha" type="matrix" values="0 0 0 0 0 0 0 0 0 0 0 0 0 0 0 0 0 0 127 0" result="hardAlpha_JUYPleqmx4Thijkzh7StM"/>
<feOffset dx="1" dy="2"/>
<feGaussianBlur stdDeviation="4"/>
<feComposite in2="hardAlpha_JUYPleqmx4Thijkzh7StM" operator="out"/>
<feColorMatrix type="matrix" values="0 0 0 0 0.24705882352941178 0 0 0 0 0.24705882352941178 0 0 0 0 0.5686274509803921 0 0 0 1 0"/>
<feBlend mode="normal" in2="feFloodId_JUYPleqmx4Thijkzh7StM" result="dropShadow_1_JUYPleqmx4Thijkzh7StM"/>
<feBlend mode="normal" in="SourceGraphic" in2="dropShadow_1_JUYPleqmx4Thijkzh7StM" result="shape_JUYPleqmx4Thijkzh7StM"/>
<feBlend mode="normal" in="SourceGraphic" in2="feFloodId_JUYPleqmx4Thijkzh7StM" result="shape_JUYPleqmx4Thijkzh7StM"/>
<feColorMatrix in="SourceAlpha" type="matrix" values="0 0 0 0 0 0 0 0 0 0 0 0 0 0 0 0 0 0 127 0" result="hardAlpha_JUYPleqmx4Thijkzh7StM"/>
<feOffset dx="3" dy="2"/>
<feGaussianBlur stdDeviation="2"/>
<feComposite in2="hardAlpha_JUYPleqmx4Thijkzh7StM" operator="arithmetic" k2="-1" k3="1"/>
<feColorMatrix type="matrix" values="0 0 0 0 1 0 0 0 0 1 0 0 0 0 1 0 0 0 1 0"/>
<feBlend mode="normal" in2="shape_JUYPleqmx4Thijkzh7StM" result="innerShadow_0_JUYPleqmx4Thijkzh7StM" />
</filter>
</defs>
</svg>
