<svg xmlns="http://www.w3.org/2000/svg" xmlns:xlink="http://www.w3.org/1999/xlink" width="20" height="14" viewBox="0 0 20 14" fill="none">
<path d="M14.6074 9.5387L19.5774 5.3587C19.8911 5.09451 19.8911 4.60289 19.5774 4.3387L14.6074 0.1587C14.1784 -0.20265 13.5274 0.0969458 13.5274 0.6587L13.5274 2.7979L7.7856 2.7979C7.42048 2.7979 7.1156 3.09371 7.1156 3.4579C7.1156 3.82209 7.42048 4.1179 7.7856 4.1179L13.5156 4.1179L13.5156 6.2779L6.29 6.2779L6.29 4.835C6.29 4.27325 5.63901 3.97365 5.21 4.335L0.24 8.515C-0.0736615 8.77919 -0.0736615 9.27081 0.24 9.535L5.21 13.715C5.63901 14.0764 6.29 13.7768 6.29 13.215L6.29 11.0783L12.0456 11.0783C12.4107 11.0783 12.7156 10.7825 12.7156 10.4183C12.7156 10.0541 12.4107 9.7583 12.0456 9.7583L6.2956 9.7583L6.2956 7.5983L13.5274 7.5983L13.5274 9.0387C13.5274 9.60045 14.1784 9.90005 14.6074 9.5387ZM14.8456 6.9383L14.8456 2.7979L14.8428 2.7979L14.8428 2.0776L18.1328 4.8476L14.8428 7.6176L14.8428 7.5979L14.8456 7.5979L14.8456 6.9383ZM1.6846 9.0239L4.9746 6.2539L4.9746 11.7939L1.6846 9.0239Z" fill-rule="evenodd"  fill="#9DA9B5" >
</path>
</svg>
