<svg xmlns="http://www.w3.org/2000/svg" xmlns:xlink="http://www.w3.org/1999/xlink" width="8.74267578125" height="8.4853515625" viewBox="0 0 8.74267578125 8.4853515625" fill="none">
<path   fill="rgba(151, 151, 151, 1)"  d="M7.76864 5.03209L6.3329 6.9106L5.93565 6.60698L6.3329 6.9106C5.57789 7.89845 4.00004 7.36452 4.00004 6.12118L4.00004 6.12118L4.00004 2.36417L4.00004 2.36417C4.00004 1.12083 5.57789 0.5869 6.3329 1.57475L5.93565 1.87838L6.3329 1.57475L7.76864 3.45326L7.37138 3.75688L7.76864 3.45326L7.37138 3.75688L7.76864 3.45326Q8.03577 3.80277 8.03577 4.24268Q8.03577 4.68258 7.76864 5.03209L7.37138 4.72847L7.76864 5.03209ZM6.97413 4.42485L6.97413 4.42485Q7.03577 4.34419 7.03577 4.24268Q7.03577 4.14116 6.97413 4.0605L6.97413 4.0605L6.97413 4.0605L5.53839 2.182L5.53839 2.182C5.36416 1.95403 5.00004 2.07725 5.00004 2.36417L4.50004 2.36417L5.00004 2.36417L5.00004 6.12118L4.50004 6.12118L5.00004 6.12118C5.00003 6.4081 5.36416 6.53132 5.53839 6.30335L5.53839 6.30335L6.97413 4.42485Z">
</path>
<path   fill="rgba(151, 151, 151, 1)"  d="M1.5 2.74268L5 2.74268L5 5.74268L1.5 5.74268C0.671573 5.74268 0 5.0711 0 4.24268Q0 3.62136 0.43934 3.18202Q0.87868 2.74268 1.5 2.74268ZM1.5 3.74268Q1.29289 3.74268 1.14645 3.88912Q1 4.03557 1 4.24268C1 4.51882 1.22386 4.74268 1.5 4.74268L4.5 4.74268L4.5 5.24268L4 5.24268L4 3.24268L4.5 3.24268L4.5 3.74268L1.5 3.74268Z">
</path>
</svg>
