<svg xmlns="http://www.w3.org/2000/svg" xmlns:xlink="http://www.w3.org/1999/xlink" width="16" height="16" viewBox="0 0 16 16" fill="none">
<path   fill-rule="evenodd"  fill="#FFFFFF"  d="M13.437 6.94978C13.4419 7.0509 13.4444 7.15208 13.4444 7.25331C13.4444 7.35454 13.442 7.4556 13.4371 7.55648C13.432 7.65822 13.4245 7.75913 13.4147 7.85923C13.4047 7.96065 13.3923 8.06116 13.3775 8.16078C13.3628 8.26023 13.3455 8.35995 13.3256 8.45992C13.306 8.55842 13.2838 8.65709 13.2591 8.75591C13.2346 8.85359 13.2076 8.95107 13.1781 9.04835C13.1486 9.14526 13.1169 9.24143 13.0827 9.33684C13.0488 9.43173 13.0124 9.52618 12.9734 9.62017C12.9347 9.71358 12.8938 9.80598 12.8505 9.89739C12.807 9.98938 12.7615 10.0798 12.714 10.1686C12.6658 10.2587 12.6159 10.3468 12.5643 10.4329C12.5122 10.5196 12.458 10.6052 12.4016 10.6895C12.3456 10.7734 12.2873 10.8561 12.2267 10.9378C12.1663 11.0193 12.1041 11.099 12.0399 11.177C11.9752 11.2559 11.909 11.3326 11.8415 11.407C11.7737 11.4818 11.7039 11.5551 11.6322 11.6268C11.5601 11.6988 11.4867 11.7687 11.4119 11.8366C11.3374 11.904 11.2606 11.9702 11.1816 12.0351C11.1036 12.0991 11.0239 12.1613 10.9424 12.2217C10.8607 12.2822 10.7778 12.3406 10.6937 12.3968C10.6094 12.453 10.5239 12.5072 10.4371 12.5592C10.3509 12.6108 10.2628 12.6607 10.1728 12.7089C10.0837 12.7564 9.99313 12.802 9.90102 12.8456C9.80948 12.8889 9.71686 12.93 9.62318 12.9687C9.52927 13.0076 9.4348 13.044 9.33978 13.078C9.24423 13.1122 9.14808 13.1439 9.05132 13.1733C8.9536 13.2029 8.85584 13.2299 8.75805 13.2545C8.65908 13.2792 8.56027 13.3014 8.46162 13.321C8.3615 13.3409 8.26163 13.3582 8.16202 13.373C8.06225 13.3878 7.96171 13.4002 7.8604 13.4102C7.7599 13.42 7.65882 13.4274 7.55715 13.4325C7.45585 13.4375 7.35451 13.44 7.25313 13.44C7.15175 13.44 7.05053 13.4375 6.94947 13.4325C6.84756 13.4274 6.74648 13.42 6.64623 13.4102C6.54476 13.4002 6.44411 13.3878 6.34427 13.373C6.24446 13.3582 6.14459 13.3409 6.04465 13.321C5.94578 13.3014 5.84696 13.2792 5.74821 13.2545C5.65032 13.2299 5.5527 13.2029 5.45534 13.1734C5.35827 13.144 5.26199 13.1122 5.1665 13.078C5.07114 13.0439 4.97656 13.0074 4.88276 12.9686C4.78963 12.9301 4.69709 12.8891 4.60516 12.8456C4.51353 12.8022 4.42307 12.7567 4.3338 12.7091C4.24356 12.6608 4.15533 12.6108 4.06912 12.5592C3.9823 12.5072 3.8967 12.4529 3.81235 12.3965C3.7284 12.3405 3.64557 12.2822 3.56387 12.2217C3.48257 12.1614 3.40279 12.0992 3.32454 12.035C3.24557 11.9701 3.16882 11.9039 3.0943 11.8364C3.01978 11.769 2.94647 11.6992 2.87438 11.6272C2.80288 11.5556 2.73301 11.4822 2.66476 11.407C2.59674 11.332 2.53058 11.2553 2.46627 11.1769C2.40226 11.099 2.33999 11.0193 2.27948 10.9377C2.21913 10.8564 2.16084 10.7736 2.1046 10.6895C2.04836 10.6053 1.99417 10.5197 1.94204 10.4328C1.88997 10.346 1.84008 10.258 1.79237 10.1687C1.74482 10.0798 1.69929 9.98938 1.65579 9.89745C1.61267 9.80637 1.57166 9.71387 1.53276 9.61997C1.49387 9.52612 1.45744 9.43172 1.42346 9.33677C1.38934 9.24143 1.35759 9.14536 1.32822 9.04858C1.29879 8.95156 1.27179 8.85401 1.24721 8.75593C1.22256 8.65755 1.20039 8.55884 1.18069 8.4598C1.1609 8.36034 1.1436 8.26065 1.12877 8.16072C1.11393 8.0607 1.10154 7.96029 1.09161 7.85949C1.08168 7.75876 1.07423 7.65784 1.06927 7.55675C1.0643 7.45565 1.06182 7.3545 1.06182 7.25331C1.06182 7.15212 1.0643 7.05098 1.06927 6.94988C1.07423 6.84878 1.08168 6.74786 1.09161 6.64713C1.10153 6.54643 1.11392 6.44602 1.12877 6.34592C1.14363 6.2458 1.16093 6.14611 1.18068 6.04683C1.20043 5.94758 1.22261 5.84886 1.24722 5.75067C1.27181 5.6525 1.29881 5.55498 1.32821 5.45811C1.3576 5.36124 1.38935 5.26516 1.42345 5.16987C1.45757 5.07456 1.494 4.98015 1.53275 4.88664C1.57151 4.79309 1.61253 4.70058 1.65583 4.60908C1.69911 4.5176 1.74462 4.4272 1.79238 4.3379C1.84009 4.24865 1.88998 4.1606 1.94205 4.07375C1.99417 3.98683 2.04835 3.90131 2.10457 3.81719C2.16084 3.73302 2.21914 3.65026 2.27949 3.56893C2.33982 3.4876 2.40212 3.4078 2.46638 3.32953C2.53063 3.25125 2.59678 3.1746 2.66482 3.09955C2.73277 3.0246 2.80259 2.95129 2.87429 2.87962C2.946 2.80793 3.01935 2.73812 3.09434 2.67018C3.16941 2.60217 3.2461 2.53603 3.32443 2.47177C3.40274 2.40752 3.48258 2.34523 3.56398 2.28489C3.64537 2.22454 3.72818 2.16624 3.81242 2.10997C3.89661 2.05373 3.98219 1.99956 4.06916 1.94744C4.15612 1.89534 4.24427 1.84543 4.33361 1.79769C4.42301 1.74992 4.51351 1.70438 4.60511 1.66107C4.6967 1.61776 4.78932 1.57672 4.88297 1.53794C4.97661 1.49917 5.07114 1.46272 5.16656 1.42859C5.26198 1.39446 5.35819 1.36268 5.45521 1.33327C5.5522 1.30385 5.64986 1.27684 5.74817 1.25222C5.84649 1.2276 5.94536 1.20541 6.04477 1.18563C6.14419 1.16587 6.24404 1.14855 6.3443 1.13368C6.44456 1.11881 6.54513 1.10641 6.64599 1.09648C6.74688 1.08655 6.84795 1.07909 6.94922 1.07412C7.05047 1.06915 7.15177 1.06666 7.25313 1.06666C7.35448 1.06666 7.45579 1.06915 7.55705 1.07412C7.65831 1.07909 7.75937 1.08655 7.86025 1.09648C7.96123 1.10642 8.0618 1.11882 8.16197 1.13368C8.26205 1.14852 8.36189 1.16584 8.46149 1.18563C8.56069 1.20536 8.65956 1.22756 8.75809 1.25223C8.85631 1.27681 8.95396 1.30382 9.05105 1.33326C9.14802 1.36267 9.24424 1.39445 9.33971 1.42859C9.4348 1.4626 9.52931 1.49905 9.62327 1.53795C9.71729 1.57687 9.8099 1.61791 9.90111 1.66105C9.99314 1.70458 10.0837 1.75012 10.1727 1.79769C10.262 1.84541 10.3501 1.89531 10.437 1.94739C10.524 1.99955 10.6096 2.05375 10.6939 2.11C10.7781 2.16624 10.8609 2.22454 10.9423 2.28489C11.0239 2.3454 11.1038 2.40772 11.1819 2.47184C11.2602 2.53604 11.3368 2.60213 11.4119 2.67013C11.4871 2.73836 11.5605 2.80816 11.6319 2.87952C11.7041 2.9517 11.7739 3.02504 11.8415 3.09955C11.9089 3.17401 11.9751 3.25071 12.04 3.32965C12.1042 3.40787 12.1665 3.4876 12.2267 3.56884C12.2873 3.6505 12.3457 3.73334 12.4018 3.81737C12.4581 3.90148 12.5122 3.98691 12.5642 4.07365C12.6158 4.15981 12.6657 4.24786 12.7139 4.33781C12.7616 4.42716 12.8071 4.51761 12.8505 4.60916C12.8939 4.70097 12.9349 4.7935 12.9736 4.88675C13.0123 4.98021 13.0487 5.07456 13.0827 5.16981C13.1169 5.26517 13.1486 5.36122 13.178 5.45794C13.2075 5.55534 13.2345 5.65293 13.2591 5.75072C13.2838 5.84933 13.306 5.94799 13.3256 6.04672C13.3454 6.14652 13.3627 6.24624 13.3775 6.34587C13.3923 6.44557 13.4047 6.54594 13.4147 6.64699C13.4245 6.74735 13.4319 6.84828 13.437 6.94978ZM14.4975 7.6096C14.5033 7.49078 14.5062 7.37202 14.5062 7.25331C14.5062 7.13461 14.5033 7.01596 14.4975 6.89739C14.4916 6.77813 14.4829 6.65975 14.4714 6.54222C14.4596 6.42341 14.4451 6.30557 14.4277 6.1887C14.4104 6.07175 14.3901 5.95482 14.3668 5.83789C14.3438 5.72186 14.3178 5.60598 14.2888 5.49026C14.26 5.37564 14.2284 5.26131 14.1938 5.14728C14.1593 5.03349 14.122 4.92074 14.082 4.80903C14.042 4.69718 13.9993 4.58638 13.9538 4.47663C13.9086 4.36744 13.8605 4.25895 13.8095 4.15113C13.7587 4.04388 13.7053 3.93792 13.6493 3.83326C13.5928 3.72768 13.5343 3.62441 13.4738 3.52345C13.4127 3.42154 13.3492 3.32119 13.2831 3.22241C13.2175 3.1242 13.1492 3.02727 13.0783 2.93161C13.0075 2.83621 12.9344 2.74259 12.859 2.65074C12.7831 2.55843 12.7056 2.46863 12.6265 2.38135C12.5473 2.29399 12.4655 2.20808 12.3811 2.12361C12.2972 2.03981 12.2112 1.95798 12.1231 1.87814C12.0351 1.79838 11.9452 1.72085 11.8534 1.64555C11.762 1.57055 11.6685 1.49759 11.5728 1.42666C11.4774 1.35593 11.3804 1.28761 11.2817 1.2217C11.1831 1.15585 11.0829 1.09242 10.9811 1.03139C10.8792 0.970352 10.776 0.911871 10.6713 0.855949C10.567 0.800236 10.4611 0.746919 10.3534 0.695999C10.2465 0.645422 10.138 0.597342 10.0279 0.551761C9.91791 0.506232 9.80723 0.463549 9.69583 0.423711C9.58409 0.383749 9.47147 0.346555 9.35798 0.312129C9.24422 0.277643 9.12985 0.246006 9.01486 0.217219C8.89955 0.18835 8.78381 0.162368 8.66764 0.13927C8.55106 0.116097 8.4342 0.0958237 8.31704 0.0784499C8.19976 0.061059 8.08204 0.0465442 7.96386 0.0349055C7.84575 0.0232753 7.72742 0.01455 7.60889 0.00872957C7.49036 0.00290986 7.37178 0 7.25313 0C7.13449 0 7.0159 0.00290986 6.89738 0.00872957C6.77884 0.01455 6.66051 0.023275 6.54241 0.0349044C6.42434 0.0465289 6.30661 0.0610441 6.18924 0.0784499C6.07187 0.0958564 5.95499 0.11613 5.83861 0.13927C5.72221 0.162419 5.60645 0.188404 5.49135 0.217225C5.37625 0.246046 5.26191 0.277678 5.14833 0.312122C5.03477 0.346556 4.92213 0.383755 4.8104 0.423718C4.69865 0.463686 4.58796 0.506371 4.47833 0.551772C4.36865 0.597186 4.26017 0.645253 4.1529 0.695976C4.04566 0.746682 3.93969 0.800008 3.83498 0.855954C3.73034 0.91186 3.6271 0.970322 3.52526 1.03134C3.42337 1.0924 3.32312 1.15586 3.22451 1.22173C3.12581 1.28765 3.02879 1.35596 2.93344 1.42666C2.83809 1.49735 2.74453 1.57034 2.65276 1.64564C2.56101 1.72091 2.47115 1.79839 2.38318 1.8781C2.2953 1.95771 2.20934 2.03952 2.12531 2.12352C2.04128 2.20753 1.95943 2.29348 1.87977 2.38135C1.80004 2.46928 1.72251 2.55912 1.6472 2.65087C1.57187 2.74262 1.49884 2.83617 1.42809 2.93153C1.35736 3.02687 1.289 3.12389 1.22303 3.22259C1.15712 3.32121 1.09361 3.42146 1.03252 3.52335C0.971429 3.62524 0.912905 3.72852 0.856947 3.83317C0.800951 3.9379 0.747571 4.04392 0.696808 4.15121C0.646041 4.25851 0.597925 4.36702 0.552462 4.47673C0.507011 4.58643 0.464278 4.69717 0.424264 4.80897C0.384251 4.92075 0.347005 5.03347 0.312525 5.14711C0.278045 5.26073 0.246375 5.37513 0.217515 5.49031C0.188649 5.60549 0.162631 5.72132 0.13946 5.83779C0.116289 5.95424 0.0959889 6.0712 0.0785595 6.18864C0.0611295 6.3061 0.0465939 6.42391 0.0349529 6.54207C0.0233076 6.66026 0.0145706 6.77866 0.00874193 6.89729C0.00291398 7.0159 0 7.13458 0 7.25331C0 7.37205 0.00291398 7.49072 0.00874193 7.60933C0.0145706 7.72796 0.0233076 7.84637 0.0349529 7.96455C0.0466088 8.08282 0.0611443 8.20063 0.0785595 8.31799C0.095957 8.43523 0.116256 8.55217 0.139456 8.66881C0.162579 8.78506 0.188599 8.90089 0.217516 9.0163C0.246336 9.13134 0.278003 9.24575 0.312518 9.35952C0.347002 9.47313 0.384248 9.58583 0.424255 9.69762C0.464138 9.80907 0.50687 9.9198 0.552451 10.0298C0.598083 10.14 0.646217 10.2485 0.696851 10.3555C0.747815 10.4632 0.801181 10.5692 0.856951 10.6735C0.91292 10.7782 0.971446 10.8814 1.03253 10.9833C1.09362 11.0851 1.15711 11.1853 1.223 11.2839C1.28896 11.3827 1.35733 11.4798 1.42811 11.5751C1.49909 11.6708 1.57215 11.7643 1.6473 11.8559C1.72252 11.9475 1.80003 12.0373 1.87983 12.1253C1.95971 12.2134 2.04151 12.2993 2.12523 12.383C2.20983 12.4676 2.29583 12.5494 2.38323 12.6285C2.47052 12.7077 2.56033 12.7851 2.65265 12.8609C2.7445 12.9363 2.83814 13.0094 2.93354 13.0801C3.02918 13.151 3.1262 13.2192 3.22459 13.2849C3.32319 13.3509 3.42343 13.4144 3.5253 13.4754C3.62626 13.5358 3.72942 13.5942 3.83479 13.6506C3.93961 13.7066 4.04563 13.7599 4.15285 13.8106C4.26062 13.8616 4.36918 13.9097 4.47853 13.9549C4.58801 14.0003 4.69865 14.043 4.81046 14.0829C4.92212 14.1228 5.0347 14.16 5.14821 14.1945C5.2624 14.2291 5.37677 14.2607 5.49132 14.2894C5.60699 14.3184 5.72279 14.3444 5.83874 14.3674C5.95556 14.3906 6.07241 14.4109 6.18927 14.4282C6.30607 14.4455 6.4237 14.46 6.54218 14.4717C6.65988 14.4833 6.77819 14.492 6.89711 14.4979C7.01586 14.5037 7.13453 14.5066 7.25313 14.5066C7.37173 14.5066 7.49028 14.5037 7.60879 14.4979C7.72796 14.492 7.84626 14.4833 7.96371 14.4717C8.08254 14.46 8.2003 14.4455 8.31698 14.4282C8.43364 14.4109 8.55048 14.3907 8.6675 14.3674C8.78323 14.3445 8.89903 14.3185 9.0149 14.2894C9.12932 14.2608 9.24358 14.2292 9.3577 14.1946C9.47142 14.1601 9.58411 14.1228 9.69576 14.0829C9.80723 14.0431 9.91796 14.0004 10.028 13.9548C10.1375 13.9095 10.246 13.8615 10.3535 13.8106C10.4611 13.7597 10.567 13.7064 10.6712 13.6507C10.7768 13.5943 10.88 13.5358 10.981 13.4753C11.0828 13.4143 11.1831 13.3507 11.2818 13.2848C11.3801 13.2192 11.477 13.151 11.5727 13.0801C11.6684 13.0091 11.7621 12.936 11.8537 12.8609C11.9007 12.8223 11.9471 12.7832 11.9928 12.7437L15.0947 15.8446C15.1443 15.8943 15.2015 15.9325 15.2662 15.9594C15.3308 15.9863 15.3981 15.9998 15.4681 16L15.4692 16L15.4699 16C15.5404 15.9999 15.6081 15.9863 15.673 15.9591C15.7381 15.9319 15.7955 15.8932 15.8452 15.8432L15.8455 15.8428C15.8949 15.793 15.933 15.7356 15.9597 15.6706C15.9865 15.6056 15.9999 15.538 16.0001 15.4677L15.8437 15.0886L12.7452 11.9911C12.7836 11.9466 12.8215 11.9015 12.859 11.8558C12.9342 11.7643 13.0073 11.6707 13.0783 11.575C13.1492 11.4793 13.2176 11.3823 13.2833 11.2839C13.3492 11.1853 13.4127 11.0851 13.4738 10.9832C13.5343 10.8823 13.5928 10.7791 13.6492 10.6737C13.705 10.5693 13.7584 10.4632 13.8093 10.3556C13.8602 10.2481 13.9084 10.1394 13.9539 10.0296C13.9994 9.91974 14.0422 9.80906 14.082 9.69756C14.122 9.58584 14.1592 9.47323 14.1937 9.35975C14.2284 9.2453 14.2601 9.13083 14.2888 9.01632C14.3178 8.9004 14.3438 8.78452 14.3668 8.66869C14.3901 8.55158 14.4104 8.43467 14.4277 8.31794C14.445 8.20117 14.4595 8.08346 14.4713 7.96481C14.4829 7.84701 14.4916 7.72861 14.4975 7.6096Z">
</path>
</svg>
