<svg xmlns="http://www.w3.org/2000/svg" xmlns:xlink="http://www.w3.org/1999/xlink" width="20" height="18" viewBox="0 0 20 18" fill="none">
<path d="M13.67 0.12C13.217 -0.000141923 12.69 -8.25085e-05 11.994 -4.04707e-06L11.94 0L2.73 0C1.22299 0 0 1.20877 0 2.7L0 9.97C0 11.6108 0.000461871 12.9315 0.14 13.97C0.28791 15.05 0.601611 15.9572 1.33 16.68C2.06118 17.4 2.97881 17.7146 4.07 17.86C5.12072 17.9998 6.45229 18 8.11 18L13.7 18C14.9307 18 15.9477 17.9966 16.75 17.89C17.5942 17.7778 18.3342 17.5398 18.93 16.95C19.5272 16.3588 19.777 15.6149 19.89 14.78C19.9988 13.9852 20 12.9785 20 11.76L20 9.84C20 8.62154 19.9988 7.61477 19.89 6.82C19.777 5.98508 19.5272 5.24985 18.93 4.66C18.3342 4.06877 17.5942 3.82215 16.75 3.71C16.6244 3.69338 16.4954 3.68108 16.36 3.67C16.3488 3.28923 16.3195 2.96354 16.24 2.67C15.9037 1.42662 14.9258 0.452308 13.67 0.12ZM11.8208 1.7998L2.7308 1.7998C2.22988 1.7998 1.8208 2.20274 1.8208 2.6998C1.8208 3.19686 2.22988 3.5998 2.7308 3.5998L14.5408 3.5998C14.5408 3.44276 14.5163 3.28282 14.4808 3.1298C14.3122 2.50755 13.8282 2.02576 13.2008 1.8598C12.9985 1.80718 12.7264 1.7998 11.8208 1.7998ZM15.1139 12.69C14.0862 12.69 13.2539 11.8697 13.2539 10.85C13.2539 9.83027 14.0862 9 15.1139 9C16.1416 9 16.9739 9.83027 16.9739 10.85C16.9739 11.8697 16.1416 12.69 15.1139 12.69Z" fill-rule="evenodd"  fill="#FFFFFF" >
</path>
</svg>
