<svg xmlns="http://www.w3.org/2000/svg" xmlns:xlink="http://www.w3.org/1999/xlink" width="400" height="287" viewBox="0 0 400 287" fill="none">
<g opacity="0.05800000000000001">
<path d="M19.7027 286C7.076 259.841 0 230.512 0 199.535C0 89.3344 89.5427 0 200 0C310.457 0 400 89.3344 400 199.535C400 230.512 392.924 259.841 380.297 286L19.7027 286Z"   fill="#F3F5FF" >
</path>
</g>
<g opacity="0.072">
<path d="M41.2093 286C30.1787 263.047 24 237.332 24 210.177C24 113.2 102.797 34.5859 200 34.5859C297.203 34.5859 376 113.2 376 210.177C376 237.332 369.821 263.047 358.791 286L41.2093 286Z"   fill="#F3F5FF" >
</path>
</g>
<g opacity="0.3">
<path     fill="#DADCF0"  d="M269.252 280C269.252 280 271.247 229.253 247.068 185.455C218.338 133.423 321.971 128.09 303.123 79.0252C292.928 52.5147 344.86 89.8187 341.876 121.157C338.727 154.295 272.883 173.518 272.328 199.151C271.771 224.784 281.548 279.256 269.251 280">
</path>
</g>
<g opacity="0.7">
<path     fill="#A8ADCF"  d="M275.987 276.305C276.701 276.617 277.438 276.856 278.162 277.131C280.307 277.861 282.52 278.486 284.785 279C287.939 278.927 291.071 278.457 294.109 277.601C305.975 274.43 325.705 264.03 331.214 230.216C334.925 207.185 332.633 205.965 353.288 193.278C354.149 192.788 354.97 192.25 355.894 191.694C379.302 177.482 359.279 151.3 380.658 129.243C402.04 107.184 363.094 94.1215 355.936 121.292C348.777 148.463 291.752 140.875 289.662 183.25C287.572 225.625 253.709 210.207 226.778 238C207.561 257.832 202.059 270.373 220.318 277.601">
</path>
</g>
<g opacity="0.4">
<path d="M370.578 117L373 117.364C354.301 175 257.538 270.224 256.709 271.407L254.495 270.618C255.006 269.895 292.527 230.452 325.217 188.756C325.001 188.191 324.693 187.402 324.371 186.577L324.149 186.011C323.668 184.782 323.194 183.568 322.977 182.979C321.231 178.244 320.204 174.176 320.008 170.209C319.741 164.825 321.108 160.185 324.485 156.488L326.7 158.512C323.911 161.565 322.774 165.423 323.004 170.061C323.183 173.667 324.142 177.467 325.792 181.941C325.989 182.476 326.429 183.603 326.891 184.784L327.122 185.376C327.205 185.587 327.286 185.796 327.367 186.001C346.88 160.884 364.315 135.242 370.578 117Z" fill-rule="evenodd"  fill="#FFFFFF" >
</path>
</g>
<g opacity="0.7">
<path d="M222.985 272.74C224.889 257.803 247.236 250.423 272.897 249.142C293.223 248.127 293.223 223.459 292.77 211.333C291.724 183.319 321.573 207.844 337.789 208.511C354.006 209.179 362.727 181.42 376.923 184.195C391.121 186.972 395.14 201.36 380.221 212.046C365.301 222.728 396.458 212.714 399.83 220.539C403.201 228.365 354.958 244.097 365.343 250.563C375.73 257.03 404.217 257.797 368.483 272.74C332.754 287.686 257.15 288.302 234.998 272.74L222.985 272.74Z"   fill="#727796" >
</path>
</g>
<g opacity="0.4">
<path     fill="#FFFFFF"  d="M310.379 230.067L313.344 230.894C307.275 241.859 310.315 256.399 311.535 261.083C322.503 256.34 332.777 250.861 337.625 245.447C342.643 239.848 346.208 233.693 349.973 227.17C351.761 224.088 353.58 220.976 355.567 217.893C354.275 215.66 350.625 208.669 353.56 206.1L356.04 207.523C354.989 208.409 355.894 211.729 357.471 215.019C361.805 208.757 367.104 202.736 374.792 197.545L377 199.183C364.884 207.374 358.807 217.863 352.927 228.026L352.098 229.456C353.927 230.58 359.406 233.178 367.967 229.925L369.47 231.92C360.331 235.367 353.821 233.156 350.834 231.608C347.943 236.825 344.424 241.86 340.319 246.654C337.617 249.483 334.358 252.025 330.643 254.203C333.893 256.883 345.367 265.326 359.259 263.881L359.732 266.116C346.555 267.509 335.734 261.277 330.497 257.487C329.518 256.741 328.751 256.161 328.182 255.685C308.2 267.061 275.81 276.531 274.095 277L272.896 274.9C285.013 271.3 296.946 267.103 308.653 262.325C307.529 258.544 303.501 242.477 310.379 230.067ZM311.746 83.0017C318.791 94.797 320.738 108.535 315.662 120.288C313.245 126.039 309.234 131.387 303.864 136.015C298.767 140.594 292.277 144.1 286.322 148.289C280.366 152.481 274.524 156.934 270.391 162.549C266.257 168.165 264.111 174.63 263.399 181.11C262.017 194.139 264.445 207.16 267.293 219.956C265.45 207.077 263.943 194.034 265.67 181.402C266.633 175.123 268.81 169.038 272.819 163.795C276.828 158.552 282.396 154.219 288.364 150.236C294.33 146.254 300.819 142.606 306.158 137.708C311.713 132.786 315.816 127.118 318.226 121.041C323.009 108.474 319.984 94.3497 311.748 83">
</path>
</g>
<path d="M76.8621 179.532L72.7608 179.532C72.2434 179.532 72.2381 180.332 72.7554 180.332L76.8568 180.332C77.3688 180.332 77.3741 179.532 76.8621 179.532L72.7608 179.532C72.2434 179.532 72.2381 180.332 72.7554 180.332L76.8568 180.332C77.3688 180.332 77.3741 179.532 76.8621 179.532ZM83.6994 179.532L79.5981 179.532C79.0808 179.532 79.0754 180.332 79.5928 180.332L83.6941 180.332C84.2061 180.332 84.2114 179.532 83.6994 179.532L79.5981 179.532C79.0808 179.532 79.0754 180.332 79.5928 180.332L83.6941 180.332C84.2061 180.332 84.2114 179.532 83.6994 179.532ZM77.8274 181.239L77.8274 185.34C77.8274 185.857 78.6274 185.863 78.6274 185.345L78.6274 181.244C78.6274 180.727 77.8274 180.721 77.8274 181.239L77.8274 185.34C77.8274 185.857 78.6274 185.863 78.6274 185.345L78.6274 181.244C78.6274 180.727 77.8274 180.721 77.8274 181.239ZM77.8274 174.439L77.8274 178.54C77.8274 179.057 78.6274 179.063 78.6274 178.545L78.6274 174.444C78.6274 173.932 77.8274 173.927 77.8274 174.439L77.8274 178.54C77.8274 179.057 78.6274 179.063 78.6274 178.545L78.6274 174.444C78.6274 173.932 77.8274 173.927 77.8274 174.439ZM89.1714 226.097L84.3981 226.097C83.8808 226.097 83.8755 226.897 84.3928 226.897L89.1661 226.897C89.6834 226.897 89.6888 226.097 89.1714 226.097L84.3981 226.097C83.8808 226.097 83.8755 226.897 84.3928 226.897L89.1661 226.897C89.6834 226.897 89.6888 226.097 89.1714 226.097ZM96.7394 226.097L91.9661 226.097C91.4488 226.097 91.4435 226.897 91.9608 226.897L96.7341 226.897C97.2461 226.897 97.2568 226.097 96.7394 226.097L91.9661 226.097C91.4488 226.097 91.4435 226.897 91.9608 226.897L96.7341 226.897C97.2461 226.897 97.2568 226.097 96.7394 226.097ZM90.1688 227.825L90.1688 232.599C90.1688 233.116 90.9688 233.121 90.9688 232.604L90.9688 227.831C90.9688 227.319 90.1688 227.308 90.1688 227.825L90.1688 232.599C90.1688 233.116 90.9688 233.121 90.9688 232.604L90.9688 227.831C90.9688 227.319 90.1688 227.308 90.1688 227.825ZM90.1688 220.305L90.1688 225.079C90.1688 225.596 90.9688 225.601 90.9688 225.084L90.9688 220.311C90.9688 219.799 90.1688 219.793 90.1688 220.305L90.1688 225.079C90.1688 225.596 90.9688 225.601 90.9688 225.084L90.9688 220.311C90.9688 219.799 90.1688 219.793 90.1688 220.305Z"   fill="#888A96" >
</path>
<path d="M207.057 96.8412L204.406 96.8412C203.889 96.8412 203.883 97.6412 204.401 97.6412L207.051 97.6412C207.569 97.6412 207.574 96.8412 207.057 96.8412L204.406 96.8412C203.889 96.8412 203.883 97.6412 204.401 97.6412L207.051 97.6412C207.569 97.6412 207.574 96.8412 207.057 96.8412ZM212.289 96.8412L209.734 96.8412C209.217 96.8412 209.211 97.6412 209.729 97.6412L212.283 97.6412C212.795 97.6412 212.801 96.8412 212.289 96.8412L209.734 96.8412C209.217 96.8412 209.211 97.6412 209.729 97.6412L212.283 97.6412C212.795 97.6412 212.801 96.8412 212.289 96.8412ZM207.947 98.4838L207.947 101.135C207.947 101.652 208.747 101.657 208.747 101.14L208.747 98.4892C208.747 97.9772 207.947 97.9718 207.947 98.4838L207.947 101.135C207.947 101.652 208.747 101.657 208.747 101.14L208.747 98.4892C208.747 97.9772 207.947 97.9718 207.947 98.4838ZM207.947 93.2892L207.947 95.9398C207.947 96.4572 208.747 96.4625 208.747 95.9452L208.747 93.2945C208.747 92.7772 207.947 92.7718 207.947 93.2892L207.947 95.9398C207.947 96.4572 208.747 96.4625 208.747 95.9452L208.747 93.2945C208.747 92.7772 207.947 92.7718 207.947 93.2892Z"   fill="#888A96" >
</path>
<path d="M376.449 75.0891C376.966 75.0891 376.971 74.2891 376.454 74.2891L374.246 74.2891C373.729 74.2891 373.723 75.0891 374.241 75.0891L376.449 75.0891C376.966 75.0891 376.971 74.2891 376.454 74.2891C375.942 74.2891 375.937 75.0891 376.449 75.0891C376.966 75.0891 376.971 74.2891 376.454 74.2891L374.246 74.2891C373.729 74.2891 373.723 75.0891 374.241 75.0891L376.449 75.0891C376.966 75.0891 376.971 74.2891 376.454 74.2891C375.942 74.2891 375.937 75.0891 376.449 75.0891ZM381.387 74.2891L379.259 74.2891C378.742 74.2891 378.737 75.0891 379.254 75.0891L379.265 75.0891C379.782 75.0891 379.787 74.2891 379.27 74.2891L379.259 74.2891C378.742 74.2891 378.737 75.0891 379.254 75.0891L381.382 75.0891C381.894 75.0891 381.899 74.2891 381.387 74.2891L379.259 74.2891C378.742 74.2891 378.737 75.0891 379.254 75.0891L379.265 75.0891C379.782 75.0891 379.787 74.2891 379.27 74.2891L379.259 74.2891C378.742 74.2891 378.737 75.0891 379.254 75.0891L381.382 75.0891C381.894 75.0891 381.899 74.2891 381.387 74.2891ZM378.214 76.0171C378.214 75.4997 377.414 75.4944 377.414 76.0117L377.414 78.2197C377.414 78.7371 378.214 78.7424 378.214 78.2251L378.214 76.0171C378.214 75.4997 377.414 75.4944 377.414 76.0117C377.414 76.5291 378.214 76.5344 378.214 76.0171C378.214 75.4997 377.414 75.4944 377.414 76.0117L377.414 78.2197C377.414 78.7371 378.214 78.7424 378.214 78.2251L378.214 76.0171C378.214 75.4997 377.414 75.4944 377.414 76.0117C377.414 76.5291 378.214 76.5344 378.214 76.0171ZM377.414 71.1104L377.414 73.3184C377.414 73.8357 378.214 73.8411 378.214 73.3237C378.214 72.8064 377.414 72.8011 377.414 73.3184C377.414 73.8357 378.214 73.8411 378.214 73.3237L378.214 71.1157C378.214 70.5984 377.414 70.5931 377.414 71.1104L377.414 73.3184C377.414 73.8357 378.214 73.8411 378.214 73.3237C378.214 72.8064 377.414 72.8011 377.414 73.3184C377.414 73.8357 378.214 73.8411 378.214 73.3237L378.214 71.1157C378.214 70.5984 377.414 70.5931 377.414 71.1104Z"   fill="#888A96" >
</path>
<path d="M30.926 224.695C30.2647 224.695 29.6407 224.871 29.102 225.175C29.454 225.377 29.6887 225.756 29.6887 226.193C29.6887 226.844 29.1607 227.372 28.51 227.372C28.1154 227.372 27.7687 227.18 27.5554 226.881C27.3527 227.34 27.2354 227.847 27.2354 228.385C27.2354 230.423 28.8887 232.076 30.926 232.076C32.9634 232.076 34.6167 230.423 34.6167 228.385C34.6167 226.348 32.9634 224.695 30.926 224.695Z"   fill="#707380" >
</path>
<path d="M32.9687 226.737C33.6087 227.969 33.486 229.495 32.606 230.583C31.8274 231.548 30.5687 232.044 29.3367 231.852C28.1367 231.665 27.0914 230.844 26.6273 229.719C26.1527 228.561 26.3393 227.201 27.118 226.22C28.0727 225.009 29.7047 224.593 31.1447 225.121C31.3687 225.207 31.47 224.844 31.246 224.759C29.8274 224.236 28.206 224.572 27.134 225.644C26.158 226.62 25.774 228.076 26.1313 229.404C26.4834 230.705 27.5233 231.751 28.8193 232.119C30.158 232.497 31.63 232.108 32.6167 231.127C33.822 229.921 34.0727 228.055 33.2887 226.551C33.182 226.337 32.8567 226.524 32.9687 226.737Z"   fill="#888A96" >
</path>
<path d="M384.603 157.305C384.891 157.471 385.083 157.785 385.083 158.143C385.083 158.676 384.651 159.108 384.118 159.108C383.793 159.108 383.51 158.948 383.334 158.703C383.163 159.081 383.073 159.497 383.073 159.935C383.073 161.609 384.427 162.964 386.102 162.964C387.777 162.964 389.131 161.609 389.131 159.935C389.131 158.265 387.777 156.911 386.102 156.911C385.558 156.911 385.046 157.055 384.603 157.305Z"   fill="#707380" >
</path>
<path d="M387.585 161.551C386.955 162.452 385.846 162.937 384.758 162.745C383.755 162.569 382.897 161.855 382.561 160.895C382.235 159.972 382.406 158.927 383.019 158.164C383.659 157.369 384.715 156.964 385.723 157.14C386.95 157.359 387.899 158.356 388.065 159.588C388.097 159.823 388.47 159.828 388.438 159.588C388.273 158.335 387.441 157.273 386.225 156.879C385.126 156.521 383.889 156.804 383.046 157.588C382.214 158.356 381.857 159.545 382.102 160.649C382.353 161.775 383.222 162.697 384.321 163.028C385.67 163.433 387.11 162.884 387.91 161.743C388.043 161.54 387.718 161.353 387.585 161.551Z"   fill="#888A96" >
</path>
<path d="M138.662 67.7852C138.209 67.7852 137.787 67.9025 137.419 68.1158C137.659 68.2545 137.819 68.5158 137.819 68.8092C137.819 69.2518 137.462 69.6145 137.014 69.6145C136.747 69.6145 136.507 69.4812 136.363 69.2785C136.225 69.5932 136.145 69.9398 136.145 70.3025C136.145 71.6945 137.27 72.8198 138.662 72.8198C140.054 72.8198 141.179 71.6945 141.179 70.3025C141.179 68.9105 140.054 67.7852 138.662 67.7852Z"   fill="#707380" >
</path>
<path d="M135.974 71.5398C135.494 70.7452 135.499 69.7532 136.022 68.9852C136.491 68.2972 137.313 67.9132 138.139 67.9772C139.878 68.1105 140.833 70.1425 139.883 71.5878C139.313 72.4572 138.235 72.8092 137.254 72.5265C137.025 72.4625 136.923 72.8198 137.153 72.8838C138.161 73.1718 139.27 72.8838 139.969 72.0838C140.598 71.3638 140.811 70.3452 140.507 69.4385C140.203 68.5318 139.414 67.8278 138.475 67.6465C137.542 67.4652 136.55 67.7905 135.921 68.5105C135.137 69.4065 135.041 70.7078 135.654 71.7265C135.777 71.9345 136.097 71.7478 135.974 71.5398Z"   fill="#888A96" >
</path>
<path d="M290.281 89.1692C289.891 89.1692 289.523 89.2705 289.209 89.4519C289.417 89.5745 289.555 89.7932 289.555 90.0492C289.555 90.4332 289.246 90.7425 288.862 90.7425C288.633 90.7425 288.425 90.6305 288.302 90.4545C288.179 90.7265 288.115 91.0252 288.115 91.3399C288.115 92.5399 289.086 93.5105 290.286 93.5105C291.486 93.5105 292.457 92.5399 292.457 91.3399C292.451 90.1399 291.475 89.1692 290.281 89.1692Z"   fill="#707380" >
</path>
<path d="M288.345 92.8226C287.198 91.7559 287.641 89.8039 289.182 89.4093C290.638 89.0413 291.982 90.4386 291.572 91.8786C291.326 92.7479 290.521 93.3133 289.625 93.3186C289.385 93.3186 289.385 93.6919 289.625 93.6919C290.553 93.6866 291.417 93.1693 291.806 92.3159C292.153 91.5479 292.073 90.6359 291.572 89.9533C290.521 88.5133 288.222 88.7426 287.502 90.3853C287.097 91.3133 287.337 92.3959 288.078 93.0839C288.254 93.2493 288.521 92.9879 288.345 92.8226Z"   fill="#888A96" >
</path>
<path d="M29.2808 66.1692C28.8915 66.1692 28.5235 66.2705 28.2088 66.4519C28.4168 66.5745 28.5555 66.7932 28.5555 67.0492C28.5555 67.4332 28.2461 67.7425 27.8621 67.7425C27.6328 67.7425 27.4248 67.6305 27.3021 67.4545C27.1795 67.7265 27.1155 68.0252 27.1155 68.3399C27.1155 69.5399 28.0861 70.5105 29.2861 70.5105C30.4861 70.5105 31.4568 69.5399 31.4568 68.3399C31.4515 67.1399 30.4755 66.1692 29.2808 66.1692Z"   fill="#707380" >
</path>
<path d="M27.3447 69.8226C26.1981 68.7559 26.6407 66.8039 28.182 66.4093C29.638 66.0413 30.982 67.4386 30.5714 68.8786C30.326 69.7479 29.5207 70.3133 28.6247 70.3186C28.3847 70.3186 28.3847 70.6919 28.6247 70.6919C29.5527 70.6866 30.4167 70.1693 30.806 69.3159C31.1527 68.5479 31.0727 67.6359 30.5714 66.9533C29.5207 65.5133 27.2221 65.7426 26.5021 67.3853C26.0967 68.3133 26.3367 69.3959 27.0781 70.0839C27.2541 70.2493 27.5207 69.9879 27.3447 69.8226Z"   fill="#888A96" >
</path>
<path d="M161.02 47C161.02 50.2286 163.24 52.7621 166 52.7467C163.24 52.7467 161.02 55.342 161.02 58.4934C161.02 55.3111 158.784 52.7467 156.04 52.7467C157.311 52.7467 158.467 52.1964 159.345 51.2949C159.422 51.6333 159.733 51.8861 160.104 51.8861C160.535 51.8861 160.884 51.5458 160.884 51.1261C160.884 50.7064 160.535 50.3662 160.104 50.3662L160.071 50.3689C160.668 49.4196 161.02 48.2538 161.02 47Z"   fill="#707380" >
</path>
<path d="M159.98 47.5066C159.98 50.658 157.76 53.2533 155 53.2533C157.744 53.2533 159.98 55.8177 159.98 59C159.98 55.8486 162.2 53.2533 164.96 53.2533C162.2 53.2687 159.98 50.7352 159.98 47.5066Z" stroke="rgba(136, 138, 150, 1.00)" stroke-width="0.4" stroke-linejoin="round"  >
</path>
<path d="M94.0199 120C94.0199 123.229 96.2403 125.762 98.9998 125.747C96.2403 125.747 94.0199 128.342 94.0199 131.493C94.0199 128.311 91.7837 125.747 89.04 125.747C90.3107 125.747 91.4671 125.196 92.345 124.295C92.4221 124.633 92.7328 124.886 93.1042 124.886C93.5351 124.886 93.8844 124.546 93.8844 124.126C93.8844 123.706 93.5351 123.366 93.1042 123.366L93.0714 123.369C93.6685 122.42 94.0199 121.254 94.0199 120Z"   fill="#707380" >
</path>
<path d="M92.9799 120.507C92.9799 123.658 90.7596 126.253 88 126.253C90.7437 126.253 92.9799 128.818 92.9799 132C92.9799 128.849 95.2002 126.253 97.9598 126.253C95.2002 126.269 92.9799 123.735 92.9799 120.507Z" stroke="rgba(136, 138, 150, 1.00)" stroke-width="0.4" stroke-linejoin="round"  >
</path>
<path d="M43.708 73C43.708 80.2973 48.717 86.1522 54.9999 86.1522C48.717 86.1522 43.708 91.9858 43.708 99.3043C43.708 92.007 38.6989 86.1522 32.416 86.1522C35.2521 86.1522 37.8357 84.9335 39.8137 82.93C40.0634 83.3228 40.5078 83.5841 41.0143 83.5841C41.7964 83.5841 42.4305 82.9611 42.4305 82.1927C42.4305 81.5763 42.0225 81.0535 41.4573 80.8708C42.8716 78.6701 43.708 75.9409 43.708 73Z"   fill="#707380" >
</path>
<path d="M42.2919 73.6958C42.2919 80.9931 47.301 86.8479 53.5839 86.8479C47.301 86.8479 42.2919 92.6816 42.2919 100C42.2919 92.7028 37.2829 86.8479 31 86.8479C37.2613 86.8479 42.2919 80.9083 42.2919 73.6958Z" stroke="rgba(136, 138, 150, 1.00)" stroke-width="0.5" stroke-linejoin="round"  >
</path>
<path d="M392.875 266L7.12529 266C3.18941 266 0 269.214 0 273.105L0 279.228C0 283.153 3.22334 286.333 7.12529 286.333L392.875 286.333C396.811 286.333 400 283.119 400 279.228L400 273.105C400 269.214 396.777 266 392.875 266Z"   fill="#B1B6CF" >
</path>
<path d="M391.898 287L8.10195 287C3.64588 287 0 283.405 0 279.012L0 272.988C0 268.595 3.64588 265 8.10195 265L391.898 265C396.354 265 400 268.595 400 272.988L400 279.012C400 283.439 396.354 287 391.898 287ZM8.10195 266.997C4.7599 266.997 2.02549 269.693 2.02549 272.988L2.02549 279.012C2.02549 282.307 4.7599 285.003 8.10195 285.003L391.898 285.003C395.24 285.003 397.975 282.307 397.975 279.012L397.975 272.988C397.975 269.693 395.24 266.997 391.898 266.997L8.10195 266.997Z"   fill="#565C7E" >
</path>
<path d="M121.501 245.386C114.04 245.386 107.93 239.263 107.93 231.786L107.93 125.615C107.93 118.139 114.04 112.015 121.501 112.015L283.994 112.015C291.454 112.015 297.564 118.139 297.564 125.615L297.564 231.82C297.564 239.297 291.454 245.386 283.994 245.386L121.501 245.386Z"   fill="#B1B6CF" >
</path>
<path d="M121.501 246.401C113.466 246.401 106.917 239.838 106.917 231.786L106.917 125.615C106.917 117.563 113.466 111 121.501 111L283.994 111C292.028 111 298.577 117.563 298.577 125.615L298.577 231.82C298.577 239.872 292.028 246.401 283.994 246.401L121.501 246.401ZM121.501 113.03C114.58 113.03 108.943 118.68 108.943 125.615L108.943 231.82C108.943 238.755 114.58 244.405 121.501 244.405L283.994 244.405C290.914 244.405 296.552 238.755 296.552 231.82L296.552 125.615C296.552 118.68 290.914 113.03 283.994 113.03L121.501 113.03Z"   fill="#565C7E" >
</path>
<path d="M123.459 224.038C119.104 224.038 115.559 220.486 115.559 216.122L115.559 128.965C115.559 124.601 119.104 121.048 123.459 121.048L282.036 121.048C286.391 121.048 289.935 124.601 289.935 128.965L289.935 216.122C289.935 220.486 286.391 224.038 282.036 224.038L123.459 224.038Z"   fill="#FFF5F5" >
</path>
<path d="M124.5 224C120.375 224 117 220.625 117 216.5L117 128.5C117 124.375 120.375 121 124.5 121L282.5 121C286.625 121 290 124.375 290 128.5L290 216.5C290 220.625 286.625 224 282.5 224L124.5 224Z"   fill="#252A44" >
</path>
<path d="M124.5 224L282.5 224C286.625 224 290 220.625 290 216.5L290 133.5L117 133.5L117 216.5C117 220.625 120.375 224 124.5 224Z"   fill="#8B90AE" >
</path>
<path d="M127 191L130 191C130.5 191 131 191.5 131 192.25C131 193 130.5 193.5 130 193.5L127 193.5C126.5 193.5 126 193 126 192.25C126 191.5 126.5 191 127 191Z"   fill="#BFBFF1" >
</path>
<path d="M134.75 191L162.25 191C162.875 191 163.5 191.5 163.5 192.25C163.5 193 163 193.5 162.25 193.5L134.75 193.5C134.125 193.5 133.5 193 133.5 192.25C133.5 191.5 134 191 134.75 191Z"   fill="#BDC2E2" >
</path>
<path d="M127 198.5L130 198.5C130.5 198.5 131 199 131 199.75C131 200.5 130.5 201 130 201L127 201C126.5 201 126 200.5 126 199.75C126 199 126.5 198.5 127 198.5Z"   fill="#BFBFF1" >
</path>
<path d="M134.75 198.5L162.25 198.5C162.875 198.5 163.5 199 163.5 199.75C163.5 200.5 163 201 162.25 201L134.75 201C134.125 201 133.5 200.5 133.5 199.75C133.5 199 134 198.5 134.75 198.5ZM134.75 206L162.25 206C162.875 206 163.5 206.5 163.5 207.25C163.5 208 163 208.5 162.25 208.5L134.75 208.5C134.125 208.5 133.5 208 133.5 207.25C133.5 206.5 134 206 134.75 206Z"   fill="#BDC2E2" >
</path>
<path d="M269.769 170L282.519 170C283.144 170 283.644 170.5 283.644 171.125L283.644 171.375C283.644 172 283.144 172.5 282.519 172.5L269.769 172.5C269.144 172.5 268.644 172 268.644 171.375L268.644 171.125C268.644 170.5 269.144 170 269.769 170Z"   fill="#BDC2E2" >
</path>
<path d="M261.144 170L265.144 170C265.769 170 266.269 170.5 266.269 171.125L266.269 171.375C266.144 172 265.644 172.5 265.019 172.5L261.144 172.5C260.519 172.5 260.019 172 260.019 171.375L260.019 171.125C259.894 170.5 260.394 170 261.144 170Z"   fill="#BFBFF1" >
</path>
<path d="M269.769 165L282.519 165C283.144 165 283.644 165.5 283.644 166.125L283.644 166.375C283.644 167 283.144 167.5 282.519 167.5L269.769 167.5C269.144 167.5 268.644 167 268.644 166.375L268.644 166.125C268.644 165.5 269.144 165 269.769 165Z"   fill="#BDC2E2" >
</path>
<path d="M261.144 165L265.144 165C265.769 165 266.269 165.5 266.269 166.125L266.269 166.375C266.144 167 265.644 167.5 265.019 167.5L261.144 167.5C260.519 167.5 260.019 167 260.019 166.375L260.019 166.125C259.894 165.5 260.394 165 261.144 165Z"   fill="#BFBFF1" >
</path>
<path d="M269.769 182L282.519 182C283.144 182 283.644 182.5 283.644 183.125L283.644 183.375C283.644 184 283.144 184.5 282.519 184.5L269.769 184.5C269.144 184.5 268.644 184 268.644 183.375L268.644 183.125C268.644 182.5 269.144 182 269.769 182Z"   fill="#BDC2E2" >
</path>
<path d="M261.144 182L265.144 182C265.769 182 266.269 182.5 266.269 183.125L266.269 183.375C266.144 184 265.644 184.5 265.019 184.5L261.144 184.5C260.519 184.5 260.019 184 260.019 183.375L260.019 183.125C259.894 182.5 260.394 182 261.144 182Z"   fill="#BFBFF1" >
</path>
<path d="M269.769 177L282.519 177C283.144 177 283.644 177.5 283.644 178.125L283.644 178.375C283.644 179 283.144 179.5 282.519 179.5L269.769 179.5C269.144 179.5 268.644 179 268.644 178.375L268.644 178.125C268.644 177.5 269.144 177 269.769 177Z"   fill="#BDC2E2" >
</path>
<path d="M261.144 177L265.144 177C265.769 177 266.269 177.5 266.269 178.125L266.269 178.375C266.144 179 265.644 179.5 265.019 179.5L261.144 179.5C260.519 179.5 260.019 179 260.019 178.375L260.019 178.125C259.894 177.5 260.394 177 261.144 177Z"   fill="#BFBFF1" >
</path>
<path d="M132.25 161C133 161 133.5 161.75 133.5 162.625L133.5 174.5C133.5 175.375 133 176.125 132.25 176.125C131.5 176.125 131 175.375 131 174.5L131 162.625C131 161.75 131.625 161 132.25 161ZM138.5 156C139.25 156 139.75 156.75 139.75 157.625L139.75 174.375C139.75 175.25 139.25 176 138.5 176C137.75 176 137.25 175.25 137.25 174.375L137.25 157.625C137.25 156.75 137.875 156 138.5 156ZM144.75 163.5C145.5 163.5 146 164.25 146 165L146 174.375C146 175.25 145.5 175.875 144.75 175.875C144 175.875 143.5 175.125 143.5 174.375L143.5 165C143.5 164.25 144.125 163.5 144.75 163.5Z"   fill="#BFBFF1" >
</path>
<path d="M126.625 177L157.875 177C158.25 177 158.5 177.25 158.5 177.625C158.5 178 158.25 178.25 157.875 178.25L126.625 178.25C126.25 178.25 126 178 126 177.625C126 177.25 126.375 177 126.625 177Z"   fill="#BEC3E1" >
</path>
<path d="M130.75 127.875C130.75 126.875 129.875 126 128.875 126C127.875 126 127 126.875 127 127.875C127 128.875 127.875 129.75 128.875 129.75C129.375 129.75 129.875 129.5 130.25 129.25C130.5 128.875 130.75 128.375 130.75 127.875ZM137 127.875C137 126.875 136.125 126 135.125 126C134.125 126 133.25 126.875 133.25 127.875C133.25 128.875 134.125 129.75 135.125 129.75C135.625 129.75 136.125 129.5 136.5 129.25C136.75 128.875 137 128.375 137 127.875ZM143.25 127.875C143.25 126.875 142.375 126 141.375 126C140.375 126 139.5 126.875 139.5 127.875C139.5 128.875 140.375 129.75 141.375 129.75C141.875 129.75 142.375 129.5 142.75 129.25C143 128.875 143.25 128.375 143.25 127.875Z"   fill="#8484DD" >
</path>
<path d="M127.25 140L257.25 140C258 140 258.5 140.5 258.5 141.125L258.5 145C258.5 145.625 258 146.125 257.25 146.125L127.25 146.125C126.5 146.125 126 145.625 126 145L126 141.125C126 140.5 126.625 140 127.25 140Z"   fill="#63698A" >
</path>
<path d="M130.074 141.25C130.449 141.25 130.699 141.5 130.699 141.75L130.699 144.5C130.699 144.75 130.449 145 130.074 145C129.699 145 129.449 144.75 129.449 144.5L129.449 141.75C129.449 141.5 129.824 141.25 130.074 141.25Z"   fill="#8484DD" >
</path>
<path d="M133.199 141.25L143.449 141.25C144.074 141.25 144.574 141.75 144.574 142.25L144.574 143.875C144.574 144.5 144.074 144.875 143.449 144.875L133.199 144.875C132.574 144.875 132.074 144.375 132.074 143.875L132.074 142.25C131.949 141.75 132.574 141.25 133.199 141.25Z"   fill="#C7C7FF" >
</path>
<path d="M123.912 225.02C119.017 225.02 115 221.028 115 216.088L115 128.932C115 124.026 118.983 120 123.912 120L282.489 120C287.384 120 291.401 123.992 291.401 128.932L291.401 216.088C291.401 220.994 287.418 225.02 282.489 225.02L123.912 225.02ZM117.025 128.932L117.025 216.088C117.025 219.878 120.097 222.99 123.912 222.99L282.489 222.99C286.27 222.99 289.376 219.912 289.376 216.088L289.376 128.932C289.376 125.142 286.304 122.03 282.489 122.03L123.912 122.03C120.131 122.03 117.025 125.109 117.025 128.932Z"   fill="#565C7E" >
</path>
<path d="M197.633 234.628C197.633 237.468 199.93 239.77 202.764 239.77C205.598 239.77 207.895 237.468 207.895 234.628C207.895 231.788 205.598 229.485 202.764 229.485C199.93 229.485 197.633 231.788 197.633 234.628Z"   fill="#B1B6CF" >
</path>
<path d="M202.764 240.751C199.388 240.751 196.62 237.977 196.62 234.594C196.62 231.211 199.388 228.437 202.764 228.437C206.14 228.437 208.908 231.211 208.908 234.594C208.908 237.977 206.14 240.751 202.764 240.751ZM202.764 230.5C200.502 230.5 198.646 232.361 198.646 234.628C198.646 236.895 200.502 238.755 202.764 238.755C205.026 238.755 206.883 236.895 206.883 234.628C206.883 232.327 205.026 230.5 202.764 230.5Z"   fill="#565C7E" >
</path>
<path d="M216.098 245.386L221.668 265.652L183.859 265.652L188.012 245.386L216.098 245.386Z"   fill="#B1B6CF" >
</path>
<path d="M222.985 266.667L182.61 266.667L187.202 244.372L216.875 244.372L222.985 266.667ZM185.109 264.637L220.318 264.637L215.322 246.401L188.856 246.401L185.109 264.637Z"   fill="#565C7E" >
</path>
<path d="M212.453 251.848L193.075 251.848C192.704 251.848 192.4 251.544 192.4 251.172C192.4 250.8 192.704 250.495 193.075 250.495L212.453 250.495C212.824 250.495 213.128 250.8 213.128 251.172C213.128 251.544 212.824 251.848 212.453 251.848ZM209.583 255.841L195.945 255.841C195.574 255.841 195.27 255.536 195.27 255.164C195.27 254.792 195.574 254.487 195.945 254.487L209.583 254.487C209.955 254.487 210.258 254.792 210.258 255.164C210.258 255.536 209.955 255.841 209.583 255.841Z"   fill="#565C7E" >
</path>
<path d="M332.698 266.652L318.217 266.652C316.259 266.652 314.638 265.028 314.638 263.066L311.938 233.376C311.938 231.414 313.558 229.79 315.516 229.79L335.669 229.79C337.628 229.79 339.247 231.414 339.247 233.376L336.243 263.066C336.276 265.062 334.656 266.652 332.698 266.652Z"   fill="#E6E9F8" >
</path>
<path d="M321.221 223.193C321.019 223.193 320.85 223.125 320.715 222.956C320.479 222.685 320.512 222.245 320.782 222.008C320.816 221.975 323.854 219.268 323.989 215.919C324.057 214.227 323.314 212.603 321.863 211.115C319.905 209.152 318.993 207.088 319.095 204.957C319.23 201.675 321.829 199.476 321.93 199.375C322.2 199.138 322.639 199.172 322.875 199.476C323.112 199.747 323.078 200.187 322.774 200.424C322.74 200.457 320.546 202.352 320.445 205.025C320.377 206.75 321.188 208.476 322.842 210.133C324.597 211.893 325.441 213.855 325.374 215.952C325.238 219.911 321.863 222.854 321.728 222.99C321.525 223.125 321.39 223.193 321.221 223.193Z"   fill="#494F6F" >
</path>
<path d="M324 240L324 245.5C324 245.758 324.197 245.973 324.403 245.994L324.5 246C324.776 246 325 245.776 325 245.5L325 240C325 238.895 325.895 238 327 238L329 238C330.105 238 331 238.895 331 240L331 249.5C331 249.758 331.197 249.973 331.403 249.994L331.5 250C331.776 250 332 249.776 332 249.5L332 240C332 238.895 332.895 238 334 238L339.08 238L338.997 239.077L337.21 263.307C337.05 265.391 335.312 267 333.222 267L320.778 267C318.688 267 316.95 265.391 316.79 263.307L315.003 239.077L314.92 238L316 238L322 238C323.105 238 324 238.895 324 240Z"   fill="#C6CFFF" >
</path>
<path d="M324 240L324 245.5C324 245.758 324.197 245.973 324.403 245.994L324.5 246C324.776 246 325 245.776 325 245.5L325 240C325 238.895 325.895 238 327 238L329 238C330.105 238 331 238.895 331 240L331 249.5C331 249.758 331.197 249.973 331.403 249.994L331.5 250C331.776 250 332 249.776 332 249.5L332 240C332 238.895 332.895 238 334 238L339.08 238L338.997 239.077L337.21 263.307C337.05 265.391 335.312 267 333.222 267L317.778 267C315.688 267 313.95 265.391 313.79 263.307L312.003 239.077L311.92 238L313 238L322 238C323.105 238 324 238.895 324 240ZM335.46 240C334.653 240 334 240.653 334 241.46L334 249.5C334 250.825 332.968 251.91 331.622 251.994L331.453 251.999L331.26 251.989C329.983 251.867 329 250.791 329 249.5L329 241C329 240.448 328.552 240 328 240C327.448 240 327 240.448 327 241L327 245.5C327 246.825 325.968 247.91 324.622 247.994L324.453 247.999L324.26 247.989C322.983 247.867 322 246.791 322 245.5L322 241C322 240.448 321.552 240 321 240L314.08 240L315.784 263.153C315.86 264.143 316.648 264.919 317.623 264.994L317.778 265L333.222 265C334.267 265 335.136 264.195 335.216 263.153L336.812 241.456C336.867 240.709 336.306 240.059 335.559 240.004C335.526 240.001 335.493 240 335.46 240Z"   fill="#565C7E" >
</path>
<path d="M334.531 229C334.715 229 334.9 229.01 335.083 229.031C337.828 229.336 339.805 231.808 339.5 234.552L338.994 239.11L337.006 238.89L337.513 234.331C337.696 232.685 336.509 231.201 334.862 231.018C334.752 231.006 334.642 231 334.531 231L316.469 231C314.812 231 313.469 232.343 313.469 234C313.469 234.111 313.475 234.221 313.487 234.331L313.994 238.89L312.006 239.11L311.5 234.552C311.479 234.369 311.469 234.184 311.469 234C311.469 231.239 313.708 229 316.469 229L334.531 229Z"   fill="#565C7E" >
</path>
<path d="M325.914 223.193C325.711 223.193 325.542 223.125 325.407 222.956C325.171 222.685 325.205 222.245 325.475 222.008C325.509 221.975 328.547 219.268 328.682 215.919C328.749 214.227 328.007 212.603 326.555 211.115C324.597 209.152 323.686 207.088 323.787 204.957C323.922 201.675 326.521 199.476 326.623 199.375C326.893 199.138 327.332 199.172 327.568 199.476C327.804 199.747 327.77 200.187 327.467 200.424C327.433 200.457 325.238 202.318 325.103 205.025C325.036 206.75 325.846 208.476 327.5 210.133C329.256 211.893 330.1 213.855 330.032 215.952C329.897 219.911 326.521 222.854 326.386 222.99C326.217 223.125 326.049 223.193 325.914 223.193Z"   fill="#494F6F" >
</path>
<path d="M63.5119 259.596C63.3768 259.596 63.2418 259.596 63.1068 259.562L62.3979 259.461C61.0813 259.258 60.1698 257.972 60.3724 256.653L67.6641 212.265C67.8667 210.945 69.1495 210.032 70.4661 210.235L71.175 210.336C72.4915 210.539 73.403 211.825 73.2005 213.144L65.9087 257.532C65.7399 258.716 64.6934 259.596 63.5119 259.596ZM70.0947 212.197C69.8922 212.197 69.7234 212.332 69.6896 212.535L62.3979 256.923C62.3641 257.16 62.5329 257.363 62.7354 257.397L63.4444 257.498C63.6807 257.532 63.8832 257.363 63.917 257.16L71.2087 212.772C71.2425 212.637 71.175 212.502 71.1412 212.468C71.1075 212.4 71.0062 212.332 70.8711 212.299L70.1622 212.197L70.0947 212.197Z"   fill="#565C7E" >
</path>
<path d="M58.4141 265.956C57.7727 265.956 57.165 265.72 56.6924 265.246C56.2198 264.772 55.9498 264.163 55.9498 263.521L55.4434 218.524C55.4434 217.881 55.6797 217.238 56.1523 216.798C56.6249 216.325 57.2326 216.054 57.874 216.054L58.5829 216.054C59.2243 216.054 59.8657 216.291 60.3046 216.764C60.7434 217.238 61.0472 217.847 61.0472 218.49L61.5536 263.487C61.5536 264.129 61.3173 264.772 60.8447 265.212C60.3721 265.686 59.7644 265.956 59.123 265.956L58.4141 265.956C58.4479 265.956 58.4141 265.956 58.4141 265.956ZM58.6166 218.084L57.9077 218.084C57.7727 218.084 57.6714 218.152 57.6039 218.219C57.5364 218.287 57.4689 218.355 57.4689 218.524L57.9752 263.521C57.9752 263.656 58.0428 263.757 58.1103 263.825C58.144 263.859 58.2453 263.926 58.4141 263.96L59.123 263.96C59.2581 263.96 59.3593 263.893 59.4268 263.825C59.4944 263.757 59.5619 263.69 59.5619 263.521L59.0555 218.524C59.0555 218.388 58.988 218.287 58.9205 218.219C58.853 218.152 58.7517 218.084 58.6166 218.084Z"   fill="#565C7E" >
</path>
<path d="M249.209 131L154.209 131C151.447 131 149.209 133.238 149.209 136L149.209 207C149.209 209.762 151.447 212 154.209 212L249.209 212C251.97 212 254.209 209.762 254.209 207L254.209 136C254.209 133.238 251.97 131 249.209 131Z"   fill="#FFFFFF" >
</path>
<path d="M249.209 131.5L154.209 131.5C151.724 131.5 149.709 133.515 149.709 136L149.709 207C149.709 209.485 151.724 211.5 154.209 211.5L249.209 211.5C251.694 211.5 253.709 209.485 253.709 207L253.709 136C253.709 134.807 253.235 133.662 252.391 132.818C251.547 131.974 250.402 131.5 249.209 131.5ZM154.209 131L249.209 131C251.97 131 254.209 133.238 254.209 136L254.209 207C254.209 209.762 251.97 212 249.209 212L154.209 212C151.447 212 149.209 209.762 149.209 207L149.209 136C149.209 133.238 151.447 131 154.209 131Z"   fill="#6D6DDD" >
</path>
<path d="M152.209 136.5L152.209 162.5L149.209 162.5L149.209 136.5L152.209 136.5Z"   fill="#FFFFFF" >
</path>
<path d="M136 162.04L137.609 164.418L136 162.04Z"   fill="#FFFFFF" >
</path>
<path d="M268.77 139.484L263.687 139.684C263.598 139.688 263.517 139.738 263.475 139.818C263.434 139.897 263.437 139.992 263.485 140.068C263.533 140.143 263.617 140.188 263.706 140.184L268.789 139.984C268.855 139.981 268.918 139.952 268.963 139.903C269.008 139.855 269.032 139.79 269.029 139.724C269.024 139.586 268.907 139.479 268.77 139.484ZM265.153 132.25C265.087 132.252 265.024 132.28 264.979 132.328L261.527 135.969C261.433 136.069 261.437 136.228 261.537 136.323C261.637 136.418 261.796 136.413 261.891 136.313L265.342 132.672C265.387 132.624 265.412 132.56 265.41 132.493C265.408 132.427 265.38 132.364 265.332 132.319C265.284 132.273 265.22 132.248 265.153 132.25ZM265.635 137.129C265.579 137.094 265.511 137.082 265.446 137.097L262.711 137.727C262.58 137.762 262.501 137.893 262.531 138.025C262.561 138.156 262.69 138.24 262.823 138.214L265.558 137.585C265.623 137.57 265.679 137.53 265.714 137.473C265.749 137.417 265.76 137.349 265.745 137.285C265.731 137.22 265.691 137.164 265.635 137.129Z"   fill="#E6E6FF" >
</path>
<g opacity="0.15">
<path d="M244.209 168L159.209 168C157.552 168 156.209 169.343 156.209 171L156.209 200C156.209 201.657 157.552 203 159.209 203L244.209 203C245.005 203 245.768 202.684 246.33 202.121C246.893 201.559 247.209 200.796 247.209 200L247.209 171C247.209 169.343 245.866 168 244.209 168Z"   fill="#8484DD" >
</path>
</g>
<path d="M241.209 179L162.209 179C161.657 179 161.209 179.448 161.209 180C161.209 180.552 161.657 181 162.209 181L241.209 181C241.761 181 242.209 180.552 242.209 180C242.209 179.448 241.761 179 241.209 179ZM211.209 189L162.209 189C161.657 189 161.209 189.448 161.209 190C161.209 190.552 161.657 191 162.209 191L211.209 191C211.761 191 212.209 190.552 212.209 190C212.209 189.448 211.761 189 211.209 189Z"   fill="#FFFFFF" >
</path>
<path d="M257.709 141L150.709 141C149.052 141 147.709 142.343 147.709 144L147.709 158.5C147.709 160.157 149.052 161.5 150.709 161.5L257.709 161.5C259.366 161.5 260.709 160.157 260.709 158.5L260.709 144C260.709 142.343 259.366 141 257.709 141Z"   fill="#DDDDF0" >
</path>
<path d="M254 138L147 138C145.343 138 144 139.343 144 141L144 155C144 155.796 144.316 156.559 144.879 157.121C145.441 157.684 146.204 158 147 158L254 158C255.657 158 257 156.657 257 155L257 141C257 139.343 255.657 138 254 138Z"   fill="#8484DD" >
</path>
<path d="M185.5 152L187.71 152L188.36 148.76C188.47 148.19 188.56 147.59 188.65 147.03L188.7 147.03C188.77 147.59 188.87 148.19 188.99 148.76L189.66 152L191.91 152L193.2 144.56L191.5 144.56L191.02 147.95C190.93 148.72 190.83 149.51 190.74 150.31L190.69 150.31C190.54 149.51 190.41 148.71 190.26 147.95L189.48 144.56L187.98 144.56L187.22 147.95C187.07 148.72 186.92 149.52 186.78 150.31L186.74 150.31L186.44 147.95L185.97 144.56L184.14 144.56L185.5 152Z"   fill="#FFFFFF" >
</path>
<path d="M194.21 152L199.04 152L199.04 150.5L196 150.5L196 148.92L198.49 148.92L198.49 147.42L196 147.42L196 146.04L198.93 146.04L198.93 144.56L194.21 144.56L194.21 152Z"   fill="#FFFFFF" >
</path>
<path d="M200.51 152L205.19 152L205.19 150.5L202.3 150.5L202.3 144.56L200.51 144.56L200.51 152Z"   fill="#FFFFFF" >
</path>
<path d="M209.63 152.14C210.6 152.14 211.43 151.77 212.06 151.04L211.12 149.92C210.77 150.3 210.29 150.6 209.7 150.6C208.65 150.6 207.97 149.74 207.97 148.26C207.97 146.81 208.76 145.95 209.72 145.95C210.25 145.95 210.64 146.19 211.01 146.53L211.95 145.39C211.44 144.87 210.66 144.42 209.69 144.42C207.8 144.42 206.14 145.84 206.14 148.32C206.14 150.84 207.74 152.14 209.63 152.14Z"   fill="#FFFFFF" >
</path>
<path d="M216.22 152.14C218.25 152.14 219.63 150.68 219.63 148.24C219.63 145.81 218.25 144.42 216.22 144.42C214.19 144.42 212.81 145.8 212.81 148.24C212.81 150.68 214.19 152.14 216.22 152.14ZM216.22 150.6C215.24 150.6 214.64 149.69 214.64 148.24C214.64 146.8 215.24 145.95 216.22 145.95C217.2 145.95 217.81 146.8 217.81 148.24C217.81 149.69 217.2 150.6 216.22 150.6Z"   fill="#FFFFFF" >
</path>
<path d="M221.01 152L222.61 152L222.61 149.45C222.61 148.71 222.47 147.6 222.38 146.87L222.42 146.87L223.02 148.65L224.03 151.37L225.01 151.37L226.01 148.65L226.63 146.87L226.67 146.87C226.58 147.6 226.44 148.71 226.44 149.45L226.44 152L228.07 152L228.07 144.56L226.13 144.56L224.99 147.77C224.85 148.2 224.73 148.67 224.58 149.13L224.53 149.13C224.39 148.67 224.27 148.2 224.12 147.77L222.94 144.56L221.01 144.56L221.01 152Z"   fill="#FFFFFF" >
</path>
<path d="M231.57 145.97L232.37 145.97C233.22 145.97 233.67 146.2 233.67 146.9C233.67 147.6 233.22 147.97 232.37 147.97L231.57 147.97L231.57 145.97ZM235.8 152L234.14 149.05C234.91 148.69 235.42 147.99 235.42 146.9C235.42 145.1 234.1 144.56 232.51 144.56L229.78 144.56L229.78 152L231.57 152L231.57 149.38L232.43 149.38L233.8 152L235.8 152Z"   fill="#FFFFFF" >
</path>
<path d="M176.271 143.783L176.243 143.755C174.321 141.836 171.351 141.447 168.999 142.805C166.648 144.163 165.502 146.931 166.205 149.554C166.908 152.176 169.286 154 172.001 154L176.479 154C176.73 153.995 176.931 153.79 176.931 153.539L176.931 151.411C177.26 150.934 177.52 150.412 177.702 149.862C178.401 147.728 177.848 145.382 176.271 143.783Z"   fill="#FFFFFF" >
</path>
<path d="M169 146.534C169 146.725 169.102 146.902 169.267 146.997C169.432 147.092 169.635 147.092 169.8 146.997C169.965 146.902 170.066 146.725 170.066 146.534C170.066 146.239 169.828 146 169.533 146C169.239 146 169 146.239 169 146.534ZM173.934 146.534C173.934 146.829 174.172 147.069 174.467 147.069C174.761 147.069 175 146.829 175 146.534C175 146.239 174.761 146 174.467 146C174.172 146 173.934 146.239 173.934 146.534ZM174.447 147.737C174.226 147.737 174.047 147.916 174.047 148.138C174.045 149.275 173.125 150.197 171.99 150.198C170.854 150.197 169.934 149.276 169.933 148.138C169.926 147.921 169.749 147.749 169.533 147.749C169.317 147.749 169.14 147.921 169.133 148.138C169.135 149.718 170.413 150.998 171.989 151C173.566 150.998 174.844 149.718 174.846 148.138C174.846 148.031 174.804 147.929 174.729 147.854C174.654 147.779 174.553 147.737 174.447 147.737L174.447 147.737Z"   fill="#8484DD" >
</path>
<path d="M63.2755 258.547L62.5665 258.446C61.7901 258.31 61.25 257.566 61.385 256.788L68.6768 212.4C68.8118 211.622 69.5545 211.081 70.3309 211.216L71.0398 211.318C71.8163 211.453 72.3564 212.197 72.2214 212.975L64.9296 257.363C64.7946 258.141 64.0519 258.682 63.2755 258.547Z"   fill="#E9EEF4" >
</path>
<path d="M66.0254 228.491L66.2441 227.156L69.915 227.728L69.6962 229.063L66.0254 228.491ZM71.5128 232.361L71.4115 232.361C71.0401 232.293 70.8038 231.955 70.8713 231.583L72.9981 218.524C73.0994 217.847 72.6605 217.238 71.9854 217.137L71.8841 217.137L71.8316 216.993C71.494 216.824 71.9625 216.608 72.0975 216.27C72.2663 215.931 71.8166 215.614 72.1542 215.75L72.2892 215.817C73.6395 216.088 74.551 217.373 74.3147 218.761L72.1879 231.82C72.1204 232.124 71.8166 232.361 71.5128 232.361Z"   fill="#565C7E" >
</path>
<path d="M59.123 264.941L58.4141 264.941C57.6377 264.941 56.9625 264.299 56.9625 263.521L56.4561 218.524C56.4561 217.746 57.0975 217.069 57.874 217.069L58.5829 217.069C59.3593 217.069 60.0345 217.712 60.0345 218.49L60.5409 263.487C60.5746 264.299 59.9332 264.941 59.123 264.941Z"   fill="#E9EEF4" >
</path>
<path d="M56.4561 233.49L60.2242 233.45L60.2391 234.803L56.4713 234.843L56.4561 233.49ZM61.9249 236.997L61.7899 223.769C61.7899 223.092 61.2498 222.551 60.5746 222.551L60.3721 222.551C60.0007 222.551 60.3383 222.297 60.3046 221.925C60.3046 221.553 59.9332 221.231 60.3046 221.197L60.5409 221.197C61.9587 221.197 63.1402 222.314 63.1402 223.735L63.2753 236.963C63.2753 237.369 62.9714 237.674 62.6001 237.674C62.2288 237.674 61.9249 237.369 61.9249 236.997Z"   fill="#565C7E" >
</path>
<path d="M69.6219 265.652L50.5486 265.652C48.3205 265.652 46.4976 263.825 46.4976 261.592L46.4976 246.334C46.4976 244.101 48.3205 242.274 50.5486 242.274L69.6219 242.274C71.8499 242.274 73.6729 244.101 73.6729 246.334L73.6729 261.592C73.6729 263.825 71.8499 265.652 69.6219 265.652Z"   fill="#E6E9F8" >
</path>
<path d="M50.5486 265.652C48.3205 265.652 46.4976 263.825 46.4976 261.592L46.4976 248.334C46.4976 246.101 48.3205 244.274 50.5486 244.274L66.6219 244.274C68.8499 244.274 70.6729 246.101 70.6729 248.334L70.6729 261.592C70.6729 263.825 68.8499 265.652 66.6219 265.652L50.5486 265.652Z"   fill="#C6CFFF" >
</path>
<path d="M50.5487 266.667C47.7467 266.667 45.4849 264.4 45.4849 261.592L45.4849 246.334C45.4849 243.526 47.7467 241.259 50.5487 241.259L69.622 241.259C72.4239 241.259 74.6857 243.526 74.6857 246.334L74.6857 261.592C74.6857 264.4 72.3902 266.667 69.622 266.667L50.5487 266.667ZM50.5149 243.289C48.827 243.289 47.4767 244.642 47.4767 246.334L47.4767 261.592C47.4767 263.284 48.827 264.637 50.5149 264.637L69.5882 264.637C71.2761 264.637 72.6265 263.284 72.6265 261.592L72.6265 246.334C72.6265 244.642 71.2761 243.289 69.5882 243.289L50.5149 243.289Z"   fill="#565C7E" >
</path>
<path d="M64.0012 250.157L46.4612 250.157C45.8873 250.157 45.4512 249.712 45.4512 249.137C45.4512 248.562 45.8873 248.127 46.4612 248.127L64.0012 248.127C64.5751 248.127 65.0112 248.562 65.0112 249.137C65.0112 249.712 64.5414 250.157 64.0012 250.157ZM64.0012 253.407L46.4612 253.407C45.8873 253.407 45.4512 252.962 45.4512 252.387C45.4512 251.812 45.8873 251.377 46.4612 251.377L64.0012 251.377C64.5751 251.377 65.0112 251.812 65.0112 252.387C65.0112 252.962 64.5414 253.407 64.0012 253.407ZM64.0012 256.617L46.4612 256.617C45.8873 256.617 45.4512 256.182 45.4512 255.607C45.4512 255.032 45.8873 254.587 46.4612 254.587L64.0012 254.587C64.5751 254.587 65.0112 255.032 65.0112 255.607C65.0112 256.182 64.5414 256.617 64.0012 256.617ZM64.0012 260.037L46.4612 260.037C45.8873 260.037 45.4512 259.592 45.4512 259.017C45.4512 258.442 45.8873 258.007 46.4612 258.007L64.0012 258.007C64.5751 258.007 65.0112 258.442 65.0112 259.017C65.0112 259.592 64.5414 260.037 64.0012 260.037Z"   fill="#565C7E" >
</path>
</svg>
